Ikshu-Regular.ufo
<glyph name="exclam" format="2">
  <advance width="225"/>
  <unicode hex="0021"/>
  <note>
exclam
</note>
  <anchor x="112" y="482" name="top"/>
  <outline>
    <contour>
      <point x="112" y="-17" type="curve" smooth="yes"/>
      <point x="145" y="-17"/>
      <point x="171" y="9"/>
      <point x="171" y="41" type="curve" smooth="yes"/>
      <point x="171" y="74"/>
      <point x="145" y="99"/>
      <point x="112" y="99" type="curve" smooth="yes"/>
      <point x="80" y="99"/>
      <point x="54" y="74"/>
      <point x="54" y="41" type="curve" smooth="yes"/>
      <point x="54" y="9"/>
      <point x="80" y="-17"/>
    </contour>
    <contour>
      <point x="73" y="339" type="line"/>
      <point x="80" y="178" type="line"/>
      <point x="144" y="178" type="line"/>
      <point x="150" y="339" type="line"/>
      <point x="150" y="706" type="line"/>
      <point x="73" y="706" type="line"/>
    </contour>
  </outline>
</glyph>
<glyph name="quotedbl" format="2">
  <advance width="359"/>
  <unicode hex="0022"/>
  <outline>
    <contour>
      <point x="256" y="537" type="curve"/>
      <point x="265" y="534"/>
      <point x="275" y="534"/>
      <point x="284" y="537" type="curve"/>
      <point x="303" y="621"/>
      <point x="329" y="680"/>
      <point x="329" y="724" type="curve" smooth="yes"/>
      <point x="329" y="746"/>
      <point x="289" y="787"/>
      <point x="272" y="787" type="curve" smooth="yes"/>
      <point x="254" y="787"/>
      <point x="211" y="745"/>
      <point x="211" y="723" type="curve" smooth="yes"/>
      <point x="211" y="680"/>
      <point x="237" y="622"/>
    </contour>
    <contour>
      <point x="75" y="537" type="curve"/>
      <point x="84" y="534"/>
      <point x="94" y="534"/>
      <point x="103" y="537" type="curve"/>
      <point x="122" y="621"/>
      <point x="148" y="680"/>
      <point x="148" y="724" type="curve" smooth="yes"/>
      <point x="148" y="746"/>
      <point x="108" y="787"/>
      <point x="91" y="787" type="curve" smooth="yes"/>
      <point x="73" y="787"/>
      <point x="30" y="745"/>
      <point x="30" y="723" type="curve" smooth="yes"/>
      <point x="30" y="680"/>
      <point x="56" y="622"/>
    </contour>
  </outline>
</glyph>
<glyph name="numbersign" format="2">
  <advance width="600"/>
  <unicode hex="0023"/>
  <note>
numbersign
</note>
  <outline>
    <contour>
      <point x="125" y="212" type="line"/>
      <point x="80" y="-6" type="line"/>
      <point x="144" y="-6" type="line"/>
      <point x="189" y="212" type="line"/>
      <point x="353" y="212" type="line"/>
      <point x="308" y="-6" type="line"/>
      <point x="372" y="-6" type="line"/>
      <point x="417" y="212" type="line"/>
      <point x="521" y="212" type="line"/>
      <point x="532" y="273" type="line"/>
      <point x="429" y="273" type="line"/>
      <point x="462" y="428" type="line"/>
      <point x="564" y="428" type="line"/>
      <point x="575" y="488" type="line"/>
      <point x="474" y="488" type="line"/>
      <point x="519" y="706" type="line"/>
      <point x="455" y="706" type="line"/>
      <point x="410" y="488" type="line"/>
      <point x="246" y="488" type="line"/>
      <point x="291" y="706" type="line"/>
      <point x="227" y="706" type="line"/>
      <point x="182" y="488" type="line"/>
      <point x="80" y="488" type="line"/>
      <point x="69" y="428" type="line"/>
      <point x="170" y="428" type="line"/>
      <point x="137" y="273" type="line"/>
      <point x="36" y="273" type="line"/>
      <point x="25" y="212" type="line"/>
    </contour>
    <contour>
      <point x="365" y="273" type="line"/>
      <point x="201" y="273" type="line"/>
      <point x="234" y="428" type="line"/>
      <point x="398" y="428" type="line"/>
    </contour>
  </outline>
</glyph>
<glyph name="ampersand" format="2">
  <advance width="657"/>
  <unicode hex="0026"/>
  <outline>
    <contour>
      <point x="249" y="-13" type="curve" smooth="yes"/>
      <point x="362" y="-13"/>
      <point x="474" y="63"/>
      <point x="506" y="207" type="curve"/>
      <point x="524" y="205"/>
      <point x="540" y="204"/>
      <point x="554" y="204" type="curve" smooth="yes"/>
      <point x="599" y="204"/>
      <point x="627" y="246"/>
      <point x="627" y="297" type="curve"/>
      <point x="566" y="257"/>
      <point x="508" y="276"/>
      <point x="447" y="276" type="curve" smooth="yes"/>
      <point x="381" y="276"/>
      <point x="348" y="285"/>
      <point x="271" y="180" type="curve"/>
      <point x="314" y="221"/>
      <point x="372" y="223"/>
      <point x="429" y="217" type="curve"/>
      <point x="429" y="105"/>
      <point x="372" y="38"/>
      <point x="283" y="38" type="curve" smooth="yes"/>
      <point x="247" y="38"/>
      <point x="192" y="60"/>
      <point x="161" y="102" type="curve"/>
      <point x="329" y="237"/>
      <point x="525" y="573"/>
      <point x="540" y="647" type="curve"/>
      <point x="513" y="670"/>
      <point x="476" y="690"/>
      <point x="449" y="695" type="curve"/>
      <point x="443" y="640"/>
      <point x="416" y="507"/>
      <point x="363" y="409" type="curve"/>
      <point x="341" y="454"/>
      <point x="288" y="495"/>
      <point x="225" y="495" type="curve" smooth="yes"/>
      <point x="83" y="495"/>
      <point x="14" y="373"/>
      <point x="14" y="251" type="curve" smooth="yes"/>
      <point x="14" y="119"/>
      <point x="94" y="-13"/>
    </contour>
    <contour>
      <point x="134" y="155" type="curve"/>
      <point x="80" y="292"/>
      <point x="101" y="452"/>
      <point x="206" y="452" type="curve" smooth="yes"/>
      <point x="271" y="452"/>
      <point x="303" y="364"/>
      <point x="287" y="292" type="curve"/>
      <point x="264" y="249"/>
      <point x="194" y="177"/>
    </contour>
  </outline>
</glyph>
<glyph name="quotesingle" format="2">
  <advance width="178"/>
  <unicode hex="0027"/>
  <outline>
    <contour>
      <point x="75" y="537" type="curve"/>
      <point x="84" y="534"/>
      <point x="94" y="534"/>
      <point x="103" y="537" type="curve"/>
      <point x="122" y="621"/>
      <point x="148" y="680"/>
      <point x="148" y="724" type="curve" smooth="yes"/>
      <point x="148" y="746"/>
      <point x="108" y="787"/>
      <point x="91" y="787" type="curve" smooth="yes"/>
      <point x="73" y="787"/>
      <point x="30" y="745"/>
      <point x="30" y="723" type="curve" smooth="yes"/>
      <point x="30" y="680"/>
      <point x="56" y="622"/>
    </contour>
  </outline>
</glyph>
<glyph name="parenleft" format="2">
  <advance width="304"/>
  <unicode hex="0028"/>
  <note>
parenleft
</note>
  <outline>
    <contour>
      <point x="199" y="-220" type="curve"/>
      <point x="278" y="-220" type="line"/>
      <point x="173" y="-62"/>
      <point x="123" y="104"/>
      <point x="123" y="263" type="curve" smooth="yes"/>
      <point x="123" y="422"/>
      <point x="173" y="588"/>
      <point x="278" y="746" type="curve"/>
      <point x="199" y="746" type="line"/>
      <point x="108" y="619"/>
      <point x="46" y="438"/>
      <point x="46" y="263" type="curve" smooth="yes"/>
      <point x="46" y="89"/>
      <point x="108" y="-93"/>
    </contour>
  </outline>
</glyph>
<glyph name="parenright" format="2">
  <advance width="304"/>
  <unicode hex="0029"/>
  <note>
parenright
</note>
  <outline>
    <contour>
      <point x="105" y="746" type="curve"/>
      <point x="26" y="746" type="line"/>
      <point x="131" y="588"/>
      <point x="181" y="422"/>
      <point x="181" y="263" type="curve" smooth="yes"/>
      <point x="181" y="104"/>
      <point x="131" y="-62"/>
      <point x="26" y="-220" type="curve"/>
      <point x="105" y="-220" type="line"/>
      <point x="196" y="-93"/>
      <point x="258" y="88"/>
      <point x="258" y="263" type="curve" smooth="yes"/>
      <point x="258" y="437"/>
      <point x="196" y="619"/>
    </contour>
  </outline>
</glyph>
<glyph name="asterisk" format="2">
  <advance width="253"/>
  <unicode hex="002A"/>
  <outline>
    <contour>
      <point x="170" y="486" type="curve" smooth="yes"/>
      <point x="192" y="489"/>
      <point x="201" y="498"/>
      <point x="195" y="521" type="curve" smooth="yes"/>
      <point x="192" y="533"/>
      <point x="177" y="583"/>
      <point x="169" y="612" type="curve"/>
      <point x="202" y="598"/>
      <point x="231" y="591"/>
      <point x="251" y="587" type="curve" smooth="yes"/>
      <point x="274" y="583"/>
      <point x="284" y="584"/>
      <point x="289" y="607" type="curve" smooth="yes"/>
      <point x="293" y="628"/>
      <point x="288" y="643"/>
      <point x="265" y="644" type="curve" smooth="yes"/>
      <point x="179" y="647" type="line"/>
      <point x="200" y="673"/>
      <point x="215" y="698"/>
      <point x="225" y="716" type="curve"/>
      <point x="235" y="736"/>
      <point x="237" y="746"/>
      <point x="217" y="758" type="curve" smooth="yes"/>
      <point x="199" y="769"/>
      <point x="184" y="766"/>
      <point x="176" y="746" type="curve"/>
      <point x="170" y="734"/>
      <point x="150" y="681"/>
      <point x="138" y="656" type="curve"/>
      <point x="117" y="687"/>
      <point x="94" y="711"/>
      <point x="77" y="727" type="curve" smooth="yes"/>
      <point x="61" y="743"/>
      <point x="52" y="747"/>
      <point x="35" y="731" type="curve" smooth="yes"/>
      <point x="19" y="716"/>
      <point x="17" y="702"/>
      <point x="35" y="689" type="curve"/>
      <point x="45" y="680"/>
      <point x="83" y="649"/>
      <point x="107" y="630" type="curve"/>
      <point x="75" y="613"/>
      <point x="50" y="595"/>
      <point x="33" y="582" type="curve"/>
      <point x="16" y="568"/>
      <point x="10" y="558"/>
      <point x="24" y="540" type="curve" smooth="yes"/>
      <point x="38" y="523"/>
      <point x="51" y="519"/>
      <point x="67" y="535" type="curve"/>
      <point x="77" y="544"/>
      <point x="109" y="577"/>
      <point x="131" y="598" type="curve"/>
      <point x="131" y="563"/>
      <point x="134" y="534"/>
      <point x="138" y="514" type="curve" smooth="yes"/>
      <point x="142" y="491"/>
      <point x="146" y="482"/>
    </contour>
  </outline>
</glyph>
<glyph name="plus" format="2">
  <advance width="522"/>
  <unicode hex="002B"/>
  <guideline x="209" y="61" angle="0"/>
  <outline>
    <contour>
      <point x="307" y="493" type="curve"/>
      <point x="285" y="501"/>
      <point x="265" y="499"/>
      <point x="237" y="493" type="curve"/>
      <point x="236" y="348"/>
      <point x="235" y="149"/>
      <point x="237" y="32" type="curve"/>
      <point x="260" y="25"/>
      <point x="289" y="24"/>
      <point x="307" y="32" type="curve"/>
      <point x="306" y="149"/>
      <point x="306" y="348"/>
    </contour>
    <contour>
      <point x="44" y="297" type="curve"/>
      <point x="40" y="275"/>
      <point x="38" y="255"/>
      <point x="44" y="227" type="curve"/>
      <point x="189" y="226"/>
      <point x="377" y="225"/>
      <point x="494" y="227" type="curve"/>
      <point x="497" y="250"/>
      <point x="498" y="279"/>
      <point x="494" y="297" type="curve"/>
      <point x="377" y="296"/>
      <point x="189" y="296"/>
    </contour>
  </outline>
</glyph>
<glyph name="comma" format="2">
  <advance width="223"/>
  <unicode hex="002C"/>
  <outline>
    <contour>
      <point x="91" y="-131" type="curve"/>
      <point x="150" y="-102"/>
      <point x="188" y="-35"/>
      <point x="188" y="17" type="curve" smooth="yes"/>
      <point x="188" y="70"/>
      <point x="160" y="125"/>
      <point x="112" y="125" type="curve" smooth="yes"/>
      <point x="89" y="125"/>
      <point x="49" y="93"/>
      <point x="45" y="55" type="curve"/>
      <point x="68" y="49"/>
      <point x="114" y="27"/>
      <point x="114" y="-24" type="curve" smooth="yes"/>
      <point x="114" y="-45"/>
      <point x="101" y="-86"/>
      <point x="48" y="-121" type="curve"/>
      <point x="48" y="-133"/>
      <point x="77" y="-137"/>
    </contour>
  </outline>
</glyph>
<glyph name="period" format="2">
  <advance width="165"/>
  <unicode hex="002E"/>
  <outline>
    <contour>
      <point x="107" y="4" type="curve" smooth="yes"/>
      <point x="122" y="4"/>
      <point x="161" y="41"/>
      <point x="161" y="57" type="curve" smooth="yes"/>
      <point x="161" y="74"/>
      <point x="125" y="114"/>
      <point x="109" y="114" type="curve" smooth="yes"/>
      <point x="93" y="114"/>
      <point x="54" y="76"/>
      <point x="54" y="60" type="curve" smooth="yes"/>
      <point x="54" y="43"/>
      <point x="91" y="4"/>
    </contour>
  </outline>
</glyph>
<glyph name="slash" format="2">
  <advance width="327"/>
  <unicode hex="002F"/>
  <outline>
    <contour>
      <point x="10" y="-62" type="curve"/>
      <point x="34" y="-64"/>
      <point x="49" y="-64"/>
      <point x="73" y="-62" type="curve"/>
      <point x="153" y="194"/>
      <point x="237" y="443"/>
      <point x="327" y="687" type="curve"/>
      <point x="303" y="692"/>
      <point x="286" y="692"/>
      <point x="262" y="687" type="curve"/>
      <point x="172" y="443"/>
      <point x="90" y="194"/>
    </contour>
  </outline>
</glyph>
<glyph name="zero" format="2">
  <advance width="550"/>
  <unicode hex="0030"/>
  <outline>
    <contour>
      <point x="269" y="-1" type="curve" smooth="yes"/>
      <point x="386" y="-1"/>
      <point x="512" y="78"/>
      <point x="512" y="269" type="curve" smooth="yes"/>
      <point x="512" y="423"/>
      <point x="395" y="501"/>
      <point x="288" y="501" type="curve" smooth="yes"/>
      <point x="170" y="501"/>
      <point x="39" y="410"/>
      <point x="39" y="237" type="curve" smooth="yes"/>
      <point x="39" y="76"/>
      <point x="161" y="-1"/>
    </contour>
    <contour>
      <point x="286" y="53" type="curve" smooth="yes"/>
      <point x="210" y="53"/>
      <point x="125" y="123"/>
      <point x="125" y="259" type="curve" smooth="yes"/>
      <point x="125" y="385"/>
      <point x="193" y="447"/>
      <point x="269" y="447" type="curve" smooth="yes"/>
      <point x="344" y="447"/>
      <point x="426" y="385"/>
      <point x="426" y="260" type="curve" smooth="yes"/>
      <point x="426" y="121"/>
      <point x="360" y="53"/>
    </contour>
  </outline>
</glyph>
<glyph name="two" format="2">
  <advance width="455"/>
  <unicode hex="0032"/>
  <outline>
    <contour>
      <point x="431" y="12" type="curve"/>
      <point x="431" y="101" type="line"/>
      <point x="397" y="79"/>
      <point x="303" y="76"/>
      <point x="277" y="76" type="curve" smooth="yes"/>
      <point x="220" y="76"/>
      <point x="181" y="76"/>
      <point x="133" y="79" type="curve"/>
      <point x="241" y="167"/>
      <point x="338" y="253"/>
      <point x="338" y="357" type="curve" smooth="yes"/>
      <point x="338" y="452"/>
      <point x="272" y="499"/>
      <point x="197" y="499" type="curve" smooth="yes"/>
      <point x="126" y="499"/>
      <point x="51" y="432"/>
      <point x="23" y="375" type="curve"/>
      <point x="23" y="364"/>
      <point x="50" y="348"/>
      <point x="58" y="348" type="curve"/>
      <point x="81" y="398"/>
      <point x="118" y="435"/>
      <point x="156" y="435" type="curve" smooth="yes"/>
      <point x="205" y="435"/>
      <point x="251" y="397"/>
      <point x="251" y="329" type="curve" smooth="yes"/>
      <point x="251" y="216"/>
      <point x="178" y="151"/>
      <point x="83" y="80" type="curve" smooth="yes"/>
      <point x="30" y="40" type="line"/>
      <point x="37" y="13" type="line"/>
      <point x="166" y="15"/>
      <point x="303" y="14"/>
    </contour>
  </outline>
</glyph>
<glyph name="three" format="2">
  <advance width="437"/>
  <unicode hex="0033"/>
  <outline>
    <contour>
      <point x="17" y="-134" type="curve"/>
      <point x="232" y="-160"/>
      <point x="396" y="-26"/>
      <point x="396" y="91" type="curve" smooth="yes"/>
      <point x="396" y="158"/>
      <point x="344" y="231"/>
      <point x="236" y="243" type="curve"/>
      <point x="296" y="266"/>
      <point x="352" y="321"/>
      <point x="352" y="381" type="curve" smooth="yes"/>
      <point x="352" y="437"/>
      <point x="314" y="500"/>
      <point x="228" y="501" type="curve" smooth="yes"/>
      <point x="141" y="502"/>
      <point x="64" y="442"/>
      <point x="32" y="375" type="curve"/>
      <point x="32" y="366"/>
      <point x="59" y="348"/>
      <point x="67" y="348" type="curve"/>
      <point x="96" y="404"/>
      <point x="134" y="441"/>
      <point x="180" y="441" type="curve" smooth="yes"/>
      <point x="236" y="440"/>
      <point x="258" y="399"/>
      <point x="257" y="359" type="curve" smooth="yes"/>
      <point x="256" y="253"/>
      <point x="137" y="230"/>
      <point x="103" y="210" type="curve"/>
      <point x="99" y="205"/>
      <point x="102" y="188"/>
      <point x="107" y="183" type="curve"/>
      <point x="234" y="239"/>
      <point x="311" y="144"/>
      <point x="311" y="52" type="curve" smooth="yes"/>
      <point x="311" y="-82"/>
      <point x="145" y="-101"/>
      <point x="58" y="-46" type="curve"/>
      <point x="29" y="-60"/>
      <point x="10" y="-109"/>
    </contour>
  </outline>
</glyph>
<glyph name="four" format="2">
  <advance width="563"/>
  <unicode hex="0034"/>
  <outline>
    <contour>
      <point x="323" y="-120" type="curve"/>
      <point x="352" y="-125"/>
      <point x="381" y="-125"/>
      <point x="410" y="-120" type="curve"/>
      <point x="409" y="-88"/>
      <point x="408" y="-42"/>
      <point x="408" y="13" type="curve"/>
      <point x="457" y="12"/>
      <point x="499" y="12"/>
      <point x="527" y="11" type="curve"/>
      <point x="531" y="29"/>
      <point x="532" y="51"/>
      <point x="528" y="69" type="curve"/>
      <point x="507" y="70"/>
      <point x="462" y="71"/>
      <point x="407" y="71" type="curve"/>
      <point x="406" y="208"/>
      <point x="406" y="376"/>
      <point x="405" y="500" type="curve"/>
      <point x="361" y="500" type="line"/>
      <point x="258" y="362"/>
      <point x="146" y="190"/>
      <point x="40" y="58" type="curve"/>
      <point x="47" y="10" type="line"/>
      <point x="103" y="12"/>
      <point x="218" y="13"/>
      <point x="325" y="13" type="curve"/>
      <point x="325" y="-40"/>
      <point x="324" y="-87"/>
    </contour>
    <contour>
      <point x="326" y="72" type="curve"/>
      <point x="108" y="73" type="line"/>
      <point x="182" y="174"/>
      <point x="258" y="288"/>
      <point x="331" y="395" type="curve"/>
      <point x="327" y="325"/>
      <point x="326" y="192"/>
    </contour>
  </outline>
</glyph>
<glyph name="five" format="2">
  <advance width="418"/>
  <unicode hex="0035"/>
  <outline>
    <contour>
      <point x="30" y="-134" type="curve"/>
      <point x="245" y="-160"/>
      <point x="376" y="-26"/>
      <point x="376" y="91" type="curve" smooth="yes"/>
      <point x="376" y="180"/>
      <point x="308" y="265"/>
      <point x="104" y="256" type="curve"/>
      <point x="122" y="314"/>
      <point x="125" y="350"/>
      <point x="133" y="408" type="curve"/>
      <point x="210" y="410"/>
      <point x="319" y="410"/>
      <point x="326" y="410" type="curve"/>
      <point x="362" y="484" type="line"/>
      <point x="292" y="484"/>
      <point x="152" y="481"/>
      <point x="81" y="481" type="curve"/>
      <point x="78" y="405"/>
      <point x="74" y="300"/>
      <point x="52" y="199" type="curve"/>
      <point x="76" y="175" type="line"/>
      <point x="216" y="202"/>
      <point x="291" y="155"/>
      <point x="291" y="57" type="curve" smooth="yes"/>
      <point x="291" y="-65"/>
      <point x="132" y="-108"/>
      <point x="54" y="-90" type="curve"/>
      <point x="35" y="-100"/>
      <point x="23" y="-121"/>
    </contour>
  </outline>
</glyph>
<glyph name="six" format="2">
  <advance width="507"/>
  <unicode hex="0036"/>
  <outline>
    <contour>
      <point x="233" y="-1" type="curve" smooth="yes"/>
      <point x="363" y="-1"/>
      <point x="448" y="111"/>
      <point x="448" y="221" type="curve" smooth="yes"/>
      <point x="448" y="315"/>
      <point x="374" y="396"/>
      <point x="265" y="396" type="curve" smooth="yes"/>
      <point x="235" y="396"/>
      <point x="203" y="383"/>
      <point x="174" y="364" type="curve"/>
      <point x="225" y="451"/>
      <point x="320" y="524"/>
      <point x="465" y="553" type="curve"/>
      <point x="463" y="565"/>
      <point x="457" y="574"/>
      <point x="447" y="582" type="curve"/>
      <point x="173" y="556"/>
      <point x="39" y="370"/>
      <point x="39" y="201" type="curve" smooth="yes"/>
      <point x="39" y="91"/>
      <point x="106" y="-1"/>
    </contour>
    <contour>
      <point x="248" y="43" type="curve" smooth="yes"/>
      <point x="177" y="44"/>
      <point x="129" y="122"/>
      <point x="129" y="200" type="curve" smooth="yes"/>
      <point x="129" y="239"/>
      <point x="136" y="279"/>
      <point x="151" y="317" type="curve"/>
      <point x="175" y="334"/>
      <point x="201" y="343"/>
      <point x="221" y="343" type="curve" smooth="yes"/>
      <point x="301" y="343"/>
      <point x="367" y="273"/>
      <point x="367" y="178" type="curve" smooth="yes"/>
      <point x="367" y="111"/>
      <point x="317" y="42"/>
    </contour>
  </outline>
</glyph>
<glyph name="seven" format="2">
  <advance width="458"/>
  <unicode hex="0037"/>
  <outline>
    <contour>
      <point x="138" y="-137" type="curve"/>
      <point x="230" y="16"/>
      <point x="330" y="223"/>
      <point x="428" y="438" type="curve"/>
      <point x="421" y="484" type="line"/>
      <point x="270" y="482"/>
      <point x="210" y="480"/>
      <point x="59" y="482" type="curve"/>
      <point x="43" y="439"/>
      <point x="44" y="360"/>
      <point x="51" y="302" type="curve"/>
      <point x="112" y="326" type="line"/>
      <point x="103" y="397"/>
      <point x="130" y="406"/>
      <point x="195" y="411" type="curve" smooth="yes"/>
      <point x="255" y="416"/>
      <point x="306" y="411"/>
      <point x="360" y="407" type="curve"/>
      <point x="233" y="165"/>
      <point x="167" y="63"/>
      <point x="48" y="-102" type="curve"/>
      <point x="73" y="-117"/>
      <point x="107" y="-135"/>
    </contour>
  </outline>
</glyph>
<glyph name="eight" format="2">
  <advance width="472"/>
  <unicode hex="0038"/>
  <outline>
    <contour>
      <point x="238" y="1" type="curve" smooth="yes"/>
      <point x="335" y="1"/>
      <point x="429" y="50"/>
      <point x="429" y="151" type="curve" smooth="yes"/>
      <point x="429" y="208"/>
      <point x="388" y="256"/>
      <point x="300" y="306" type="curve"/>
      <point x="375" y="344"/>
      <point x="414" y="390"/>
      <point x="414" y="443" type="curve" smooth="yes"/>
      <point x="414" y="515"/>
      <point x="360" y="580"/>
      <point x="241" y="580" type="curve" smooth="yes"/>
      <point x="185" y="580"/>
      <point x="60" y="551"/>
      <point x="60" y="436" type="curve" smooth="yes"/>
      <point x="60" y="374"/>
      <point x="101" y="334"/>
      <point x="161" y="295" type="curve"/>
      <point x="109" y="272"/>
      <point x="42" y="219"/>
      <point x="42" y="151" type="curve" smooth="yes"/>
      <point x="42" y="52"/>
      <point x="141" y="1"/>
    </contour>
    <contour>
      <point x="237" y="38" type="curve" smooth="yes"/>
      <point x="159" y="38"/>
      <point x="120" y="92"/>
      <point x="120" y="149" type="curve" smooth="yes"/>
      <point x="120" y="197"/>
      <point x="147" y="249"/>
      <point x="198" y="275" type="curve"/>
      <point x="263" y="243"/>
      <point x="348" y="198"/>
      <point x="348" y="137" type="curve" smooth="yes"/>
      <point x="348" y="62"/>
      <point x="283" y="38"/>
    </contour>
    <contour>
      <point x="259" y="328" type="curve"/>
      <point x="204" y="350"/>
      <point x="146" y="391"/>
      <point x="146" y="462" type="curve" smooth="yes"/>
      <point x="146" y="515"/>
      <point x="199" y="546"/>
      <point x="247" y="546" type="curve" smooth="yes"/>
      <point x="313" y="546"/>
      <point x="339" y="487"/>
      <point x="339" y="440" type="curve" smooth="yes"/>
      <point x="339" y="395"/>
      <point x="314" y="347"/>
    </contour>
  </outline>
</glyph>
<glyph name="nine" format="2">
  <advance width="500"/>
  <unicode hex="0039"/>
  <outline>
    <contour>
      <point x="24" y="-109" type="curve"/>
      <point x="37" y="-138" type="line"/>
      <point x="334" y="-129"/>
      <point x="457" y="105"/>
      <point x="457" y="270" type="curve" smooth="yes"/>
      <point x="457" y="376"/>
      <point x="402" y="499"/>
      <point x="270" y="499" type="curve" smooth="yes"/>
      <point x="134" y="499"/>
      <point x="51" y="384"/>
      <point x="51" y="283" type="curve" smooth="yes"/>
      <point x="51" y="178"/>
      <point x="120" y="111"/>
      <point x="204" y="111" type="curve" smooth="yes"/>
      <point x="260" y="111"/>
      <point x="319" y="141"/>
      <point x="364" y="207" type="curve"/>
      <point x="339" y="0"/>
      <point x="160" y="-93"/>
    </contour>
    <contour>
      <point x="236" y="175" type="curve" smooth="yes"/>
      <point x="174" y="175"/>
      <point x="128" y="234"/>
      <point x="128" y="328" type="curve" smooth="yes"/>
      <point x="128" y="392"/>
      <point x="169" y="454"/>
      <point x="232" y="454" type="curve" smooth="yes"/>
      <point x="304" y="454"/>
      <point x="379" y="377"/>
      <point x="363" y="248" type="curve"/>
      <point x="326" y="185"/>
      <point x="275" y="175"/>
    </contour>
  </outline>
</glyph>
<glyph name="colon" format="2">
  <advance width="200"/>
  <unicode hex="003A"/>
  <note>
colon
</note>
  <anchor x="100" y="882" name="top"/>
  <outline>
    <contour>
      <point x="100" y="-17" type="curve" smooth="yes"/>
      <point x="133" y="-17"/>
      <point x="159" y="9"/>
      <point x="159" y="41" type="curve" smooth="yes"/>
      <point x="159" y="74"/>
      <point x="133" y="99"/>
      <point x="100" y="99" type="curve" smooth="yes"/>
      <point x="68" y="99"/>
      <point x="42" y="74"/>
      <point x="42" y="41" type="curve" smooth="yes"/>
      <point x="42" y="9"/>
      <point x="68" y="-17"/>
    </contour>
    <contour>
      <point x="100" y="383" type="curve" smooth="yes"/>
      <point x="133" y="383"/>
      <point x="159" y="409"/>
      <point x="159" y="441" type="curve" smooth="yes"/>
      <point x="159" y="474"/>
      <point x="133" y="499"/>
      <point x="100" y="499" type="curve" smooth="yes"/>
      <point x="68" y="499"/>
      <point x="42" y="474"/>
      <point x="42" y="441" type="curve" smooth="yes"/>
      <point x="42" y="409"/>
      <point x="68" y="383"/>
    </contour>
  </outline>
</glyph>
<glyph name="semicolon" format="2">
  <advance width="213"/>
  <unicode hex="003B"/>
  <note>
semicolon
</note>
  <anchor x="114" y="882" name="top"/>
  <outline>
    <contour>
      <point x="111" y="371" type="curve" smooth="yes"/>
      <point x="147" y="371"/>
      <point x="176" y="400"/>
      <point x="176" y="435" type="curve" smooth="yes"/>
      <point x="176" y="472"/>
      <point x="147" y="499"/>
      <point x="111" y="499" type="curve" smooth="yes"/>
      <point x="76" y="499"/>
      <point x="47" y="472"/>
      <point x="47" y="435" type="curve" smooth="yes"/>
      <point x="47" y="400"/>
      <point x="76" y="371"/>
    </contour>
    <component base="comma" yOffset="93"/>
  </outline>
</glyph>
<glyph name="equal" format="2">
  <advance width="527"/>
  <unicode hex="003D"/>
  <guideline x="-20" y="54" angle="0"/>
  <outline>
    <contour>
      <point x="37" y="325" type="curve"/>
      <point x="182" y="320"/>
      <point x="375" y="320"/>
      <point x="492" y="325" type="curve"/>
      <point x="500" y="343"/>
      <point x="503" y="368"/>
      <point x="503" y="391" type="curve"/>
      <point x="386" y="387"/>
      <point x="193" y="386"/>
      <point x="48" y="391" type="curve"/>
      <point x="42" y="363"/>
      <point x="40" y="347"/>
    </contour>
    <contour>
      <point x="37" y="128" type="curve"/>
      <point x="182" y="123"/>
      <point x="375" y="123"/>
      <point x="492" y="128" type="curve"/>
      <point x="500" y="146"/>
      <point x="503" y="171"/>
      <point x="503" y="194" type="curve"/>
      <point x="386" y="190"/>
      <point x="193" y="189"/>
      <point x="48" y="194" type="curve"/>
      <point x="42" y="166"/>
      <point x="40" y="150"/>
    </contour>
  </outline>
</glyph>
<glyph name="question" format="2">
  <advance width="475"/>
  <unicode hex="003F"/>
  <note>
question
</note>
  <anchor x="196" y="482" name="top"/>
  <outline>
    <contour>
      <point x="197" y="0" type="curve" smooth="yes"/>
      <point x="233" y="0"/>
      <point x="262" y="29"/>
      <point x="262" y="64" type="curve" smooth="yes"/>
      <point x="262" y="100"/>
      <point x="233" y="128"/>
      <point x="197" y="128" type="curve" smooth="yes"/>
      <point x="162" y="128"/>
      <point x="133" y="100"/>
      <point x="133" y="64" type="curve" smooth="yes"/>
      <point x="133" y="29"/>
      <point x="162" y="0"/>
    </contour>
    <contour>
      <point x="187" y="375" type="curve" smooth="yes"/>
      <point x="163" y="375" type="line"/>
      <point x="163" y="199" type="line"/>
      <point x="230" y="199" type="line"/>
      <point x="230" y="318" type="line"/>
      <point x="379" y="331"/>
      <point x="434" y="425"/>
      <point x="434" y="524" type="curve" smooth="yes"/>
      <point x="434" y="618"/>
      <point x="379" y="716"/>
      <point x="218" y="716" type="curve" smooth="yes"/>
      <point x="160" y="716"/>
      <point x="112" y="708"/>
      <point x="69" y="694" type="curve"/>
      <point x="69" y="621" type="line"/>
      <point x="107" y="636"/>
      <point x="152" y="647"/>
      <point x="211" y="647" type="curve" smooth="yes"/>
      <point x="324" y="647"/>
      <point x="359" y="591"/>
      <point x="359" y="509" type="curve" smooth="yes"/>
      <point x="359" y="456"/>
      <point x="314" y="375"/>
    </contour>
  </outline>
</glyph>
<glyph name="at" format="2">
  <advance width="1071"/>
  <unicode hex="0040"/>
  <note>
at
</note>
  <outline>
    <contour>
      <point x="536" y="-219" type="curve" smooth="yes"/>
      <point x="608" y="-219"/>
      <point x="667" y="-206"/>
      <point x="708" y="-192" type="curve"/>
      <point x="708" y="-128" type="line"/>
      <point x="667" y="-144"/>
      <point x="606" y="-158"/>
      <point x="536" y="-158" type="curve" smooth="yes"/>
      <point x="290" y="-158"/>
      <point x="114" y="-20"/>
      <point x="114" y="236" type="curve" smooth="yes"/>
      <point x="114" y="510"/>
      <point x="283" y="677"/>
      <point x="540" y="677" type="curve" smooth="yes"/>
      <point x="796" y="677"/>
      <point x="965" y="508"/>
      <point x="965" y="277" type="curve" smooth="yes"/>
      <point x="965" y="158"/>
      <point x="922" y="68"/>
      <point x="831" y="68" type="curve" smooth="yes"/>
      <point x="770" y="68"/>
      <point x="726" y="108"/>
      <point x="726" y="227" type="curve" smooth="yes"/>
      <point x="726" y="449" type="line"/>
      <point x="666" y="478"/>
      <point x="592" y="499"/>
      <point x="522" y="499" type="curve" smooth="yes"/>
      <point x="396" y="499"/>
      <point x="283" y="434"/>
      <point x="283" y="240" type="curve" smooth="yes"/>
      <point x="283" y="99"/>
      <point x="376" y="0"/>
      <point x="492" y="0" type="curve" smooth="yes"/>
      <point x="597" y="0"/>
      <point x="660" y="78"/>
      <point x="667" y="130" type="curve"/>
      <point x="664" y="186" type="line"/>
      <point x="654" y="83"/>
      <point x="727" y="3"/>
      <point x="825" y="3" type="curve" smooth="yes"/>
      <point x="958" y="3"/>
      <point x="1030" y="119"/>
      <point x="1030" y="277" type="curve" smooth="yes"/>
      <point x="1030" y="541"/>
      <point x="833" y="737"/>
      <point x="540" y="737" type="curve" smooth="yes"/>
      <point x="247" y="737"/>
      <point x="45" y="531"/>
      <point x="44" y="236" type="curve" smooth="yes"/>
      <point x="43" y="-51"/>
      <point x="253" y="-219"/>
    </contour>
    <contour>
      <point x="357" y="245" type="curve" smooth="yes"/>
      <point x="357" y="395"/>
      <point x="441" y="436"/>
      <point x="525" y="436" type="curve" smooth="yes"/>
      <point x="572" y="436"/>
      <point x="622" y="422"/>
      <point x="653" y="407" type="curve"/>
      <point x="653" y="275" type="line" smooth="yes"/>
      <point x="653" y="162"/>
      <point x="602" y="63"/>
      <point x="493" y="63" type="curve" smooth="yes"/>
      <point x="413" y="63"/>
      <point x="357" y="135"/>
    </contour>
  </outline>
</glyph>
<glyph name="A" format="2">
  <advance width="654"/>
  <unicode hex="0041"/>
  <note>
A
</note>
  <anchor x="326" y="0" name="bottom"/>
  <anchor x="326" y="700" name="top"/>
  <anchor x="638" y="0" name="ogonek"/>
  <outline>
    <contour>
      <point x="311" y="642" type="line"/>
      <point x="567" y="0" type="line"/>
      <point x="643" y="0" type="line"/>
      <point x="364" y="701" type="line"/>
      <point x="289" y="701" type="line"/>
      <point x="10" y="0" type="line"/>
      <point x="86" y="0" type="line"/>
      <point x="340" y="642" type="line"/>
    </contour>
    <contour>
      <point x="506" y="212" type="line"/>
      <point x="481" y="275" type="line"/>
      <point x="172" y="275" type="line"/>
      <point x="146" y="212" type="line"/>
    </contour>
  </outline>
</glyph>
<glyph name="B" format="2">
  <advance width="621"/>
  <unicode hex="0042"/>
  <note>
B
</note>
  <anchor x="307" y="0" name="bottom"/>
  <anchor x="307" y="700" name="top"/>
  <anchor x="145" y="175" name="center"/>
  <outline>
    <contour>
      <point x="324" y="0" type="curve" smooth="yes"/>
      <point x="517" y="0"/>
      <point x="568" y="89"/>
      <point x="568" y="195" type="curve" smooth="yes"/>
      <point x="568" y="278"/>
      <point x="509" y="351"/>
      <point x="381" y="358" type="curve"/>
      <point x="377" y="340" type="line"/>
      <point x="476" y="355"/>
      <point x="524" y="424"/>
      <point x="524" y="513" type="curve" smooth="yes"/>
      <point x="524" y="628"/>
      <point x="449" y="701"/>
      <point x="275" y="701" type="curve" smooth="yes"/>
      <point x="79" y="701" type="line"/>
      <point x="79" y="0" type="line"/>
      <point x="146" y="0"/>
      <point x="263" y="0"/>
    </contour>
    <contour>
      <point x="152" y="64" type="curve"/>
      <point x="152" y="316" type="line"/>
      <point x="302" y="316" type="line" smooth="yes"/>
      <point x="440" y="316"/>
      <point x="492" y="265"/>
      <point x="492" y="196" type="curve" smooth="yes"/>
      <point x="492" y="123"/>
      <point x="473" y="64"/>
      <point x="327" y="64" type="curve" smooth="yes"/>
      <point x="280" y="64"/>
      <point x="195" y="64"/>
    </contour>
    <contour>
      <point x="283" y="379" type="curve" smooth="yes"/>
      <point x="152" y="379" type="line"/>
      <point x="152" y="640" type="line"/>
      <point x="188" y="640"/>
      <point x="239" y="640"/>
      <point x="275" y="640" type="curve" smooth="yes"/>
      <point x="402" y="640"/>
      <point x="448" y="589"/>
      <point x="448" y="509" type="curve" smooth="yes"/>
      <point x="448" y="428"/>
      <point x="403" y="379"/>
    </contour>
  </outline>
</glyph>
<glyph name="C" format="2">
  <advance width="600"/>
  <unicode hex="0043"/>
  <note>
C
</note>
  <anchor x="388" y="0" name="bottom"/>
  <anchor x="387" y="700" name="top"/>
  <outline>
    <contour>
      <point x="390" y="-12" type="curve" smooth="yes"/>
      <point x="457" y="-12"/>
      <point x="520" y="3"/>
      <point x="570" y="27" type="curve"/>
      <point x="570" y="101" type="line"/>
      <point x="524" y="73"/>
      <point x="459" y="53"/>
      <point x="393" y="53" type="curve" smooth="yes"/>
      <point x="222" y="53"/>
      <point x="127" y="179"/>
      <point x="127" y="351" type="curve" smooth="yes"/>
      <point x="127" y="514"/>
      <point x="212" y="651"/>
      <point x="393" y="651" type="curve" smooth="yes"/>
      <point x="452" y="651"/>
      <point x="507" y="637"/>
      <point x="551" y="617" type="curve"/>
      <point x="551" y="687" type="line"/>
      <point x="504" y="704"/>
      <point x="448" y="716"/>
      <point x="389" y="716" type="curve" smooth="yes"/>
      <point x="168" y="716"/>
      <point x="50" y="554"/>
      <point x="50" y="351" type="curve" smooth="yes"/>
      <point x="50" y="139"/>
      <point x="178" y="-12"/>
    </contour>
  </outline>
</glyph>
<glyph name="D" format="2">
  <advance width="679"/>
  <unicode hex="0044"/>
  <note>
D
</note>
  <anchor x="326" y="0" name="bottom"/>
  <anchor x="326" y="700" name="top"/>
  <anchor x="116" y="350" name="center"/>
  <outline>
    <contour>
      <point x="247" y="0" type="line"/>
      <point x="529" y="0"/>
      <point x="629" y="142"/>
      <point x="629" y="345" type="curve" smooth="yes"/>
      <point x="629" y="528"/>
      <point x="534" y="701"/>
      <point x="247" y="701" type="curve" smooth="yes"/>
      <point x="79" y="701" type="line"/>
      <point x="79" y="0" type="line"/>
    </contour>
    <contour>
      <point x="251" y="64" type="curve" smooth="yes"/>
      <point x="154" y="64" type="line"/>
      <point x="154" y="637" type="line"/>
      <point x="251" y="637" type="line" smooth="yes"/>
      <point x="491" y="637"/>
      <point x="552" y="493"/>
      <point x="552" y="345" type="curve" smooth="yes"/>
      <point x="552" y="178"/>
      <point x="486" y="64"/>
    </contour>
  </outline>
</glyph>
<glyph name="E" format="2">
  <advance width="535"/>
  <unicode hex="0045"/>
  <note>
E
</note>
  <anchor x="296" y="0" name="bottom"/>
  <anchor x="289" y="700" name="top"/>
  <anchor x="483" y="0" name="ogonek"/>
  <outline>
    <contour>
      <point x="79" y="703" type="line"/>
      <point x="79" y="-3" type="line"/>
      <point x="495" y="-3" type="line"/>
      <point x="495" y="63" type="line"/>
      <point x="152" y="63" type="line"/>
      <point x="152" y="315" type="line"/>
      <point x="450" y="315" type="line"/>
      <point x="450" y="378" type="line"/>
      <point x="152" y="378" type="line"/>
      <point x="152" y="638" type="line"/>
      <point x="487" y="638" type="line"/>
      <point x="487" y="703" type="line"/>
    </contour>
  </outline>
</glyph>
<glyph name="F" format="2">
  <advance width="522"/>
  <unicode hex="0046"/>
  <note>
F
</note>
  <anchor x="289" y="700" name="top"/>
  <anchor x="296" y="0" name="bottom"/>
  <anchor x="483" y="0" name="ogonek"/>
  <outline>
    <contour>
      <point x="79" y="703" type="line"/>
      <point x="79" y="0" type="line"/>
      <point x="152" y="0" type="line"/>
      <point x="152" y="317" type="line"/>
      <point x="450" y="317" type="line"/>
      <point x="450" y="378" type="line"/>
      <point x="152" y="378" type="line"/>
      <point x="152" y="640" type="line"/>
      <point x="487" y="640" type="line"/>
      <point x="487" y="703" type="line"/>
    </contour>
  </outline>
</glyph>
<glyph name="G" format="2">
  <advance width="700"/>
  <unicode hex="0047"/>
  <note>
G
</note>
  <anchor x="383" y="0" name="bottom"/>
  <anchor x="403" y="700" name="top"/>
  <outline>
    <contour>
      <point x="399" y="-15" type="curve" smooth="yes"/>
      <point x="505" y="-15"/>
      <point x="583" y="16"/>
      <point x="625" y="56" type="curve"/>
      <point x="625" y="352" type="line"/>
      <point x="349" y="352" type="line"/>
      <point x="349" y="289" type="line"/>
      <point x="552" y="289" type="line"/>
      <point x="552" y="86" type="line"/>
      <point x="514" y="61"/>
      <point x="465" y="49"/>
      <point x="402" y="49" type="curve" smooth="yes"/>
      <point x="229" y="49"/>
      <point x="127" y="178"/>
      <point x="127" y="349" type="curve" smooth="yes"/>
      <point x="127" y="511"/>
      <point x="229" y="651"/>
      <point x="412" y="651" type="curve" smooth="yes"/>
      <point x="482" y="651"/>
      <point x="544" y="631"/>
      <point x="583" y="607" type="curve"/>
      <point x="583" y="681" type="line"/>
      <point x="540" y="701"/>
      <point x="475" y="716"/>
      <point x="409" y="716" type="curve" smooth="yes"/>
      <point x="186" y="716"/>
      <point x="50" y="552"/>
      <point x="50" y="349" type="curve" smooth="yes"/>
      <point x="50" y="138"/>
      <point x="185" y="-15"/>
    </contour>
  </outline>
</glyph>
<glyph name="I" format="2">
  <advance width="230"/>
  <unicode hex="0049"/>
  <note>
I
</note>
  <anchor x="116" y="0" name="bottom"/>
  <anchor x="116" y="700" name="top"/>
  <anchor x="151" y="0" name="ogonek"/>
  <outline>
    <contour>
      <point x="79" y="703" type="line"/>
      <point x="79" y="-3" type="line"/>
      <point x="152" y="-3" type="line"/>
      <point x="152" y="703" type="line"/>
    </contour>
  </outline>
</glyph>
<glyph name="J" format="2">
  <advance width="508"/>
  <unicode hex="004A"/>
  <note>
J
</note>
  <outline>
    <contour>
      <point x="90" y="171" type="curve"/>
      <point x="22" y="171" type="line"/>
      <point x="19" y="70"/>
      <point x="102" y="-15"/>
      <point x="240" y="-15" type="curve" smooth="yes"/>
      <point x="389" y="-15"/>
      <point x="434" y="84"/>
      <point x="434" y="208" type="curve" smooth="yes"/>
      <point x="434" y="701" type="line"/>
      <point x="361" y="701" type="line"/>
      <point x="361" y="212" type="line" smooth="yes"/>
      <point x="361" y="102"/>
      <point x="327" y="46"/>
      <point x="235" y="46" type="curve" smooth="yes"/>
      <point x="146" y="46"/>
      <point x="95" y="102"/>
    </contour>
  </outline>
</glyph>
<glyph name="K" format="2">
  <advance width="600"/>
  <unicode hex="004B"/>
  <note>
K
</note>
  <anchor x="324" y="0" name="bottom"/>
  <anchor x="324" y="700" name="top"/>
  <outline>
    <contour>
      <point x="79" y="0" type="line"/>
      <point x="152" y="0" type="line"/>
      <point x="152" y="701" type="line"/>
      <point x="79" y="701" type="line"/>
    </contour>
    <contour>
      <point x="129" y="390" type="line"/>
      <point x="129" y="327" type="line"/>
      <point x="234" y="327" type="line"/>
      <point x="220" y="332" type="line"/>
      <point x="499" y="0" type="line"/>
      <point x="592" y="0" type="line"/>
      <point x="289" y="355" type="line"/>
      <point x="556" y="701" type="line"/>
      <point x="468" y="701" type="line"/>
      <point x="221" y="376" type="line"/>
      <point x="234" y="390" type="line"/>
    </contour>
  </outline>
</glyph>
<glyph name="L" format="2">
  <advance width="499"/>
  <unicode hex="004C"/>
  <note>
L
</note>
  <anchor x="282" y="0" name="bottom"/>
  <anchor x="116" y="700" name="top"/>
  <anchor x="116" y="349" name="center"/>
  <outline>
    <contour>
      <point x="79" y="703" type="line"/>
      <point x="79" y="-3" type="line"/>
      <point x="486" y="-3" type="line"/>
      <point x="486" y="61" type="line"/>
      <point x="152" y="61" type="line"/>
      <point x="152" y="703" type="line"/>
    </contour>
  </outline>
</glyph>
<glyph name="M" format="2">
  <advance width="837"/>
  <unicode hex="004D"/>
  <note>
M
</note>
  <outline>
    <contour>
      <point x="687" y="547" type="curve"/>
      <point x="687" y="0" type="line"/>
      <point x="758" y="0" type="line"/>
      <point x="758" y="716" type="line"/>
      <point x="660" y="716" type="line"/>
      <point x="420" y="117" type="line"/>
      <point x="177" y="716" type="line"/>
      <point x="79" y="716" type="line"/>
      <point x="79" y="0" type="line"/>
      <point x="150" y="0" type="line"/>
      <point x="150" y="546" type="line"/>
      <point x="150" y="572"/>
      <point x="150" y="609"/>
      <point x="150" y="635" type="curve"/>
      <point x="138" y="635" type="line"/>
      <point x="149" y="608"/>
      <point x="160" y="572"/>
      <point x="171" y="545" type="curve"/>
      <point x="394" y="0" type="line"/>
      <point x="445" y="0" type="line"/>
      <point x="668" y="548" type="line"/>
      <point x="678" y="574"/>
      <point x="689" y="609"/>
      <point x="699" y="635" type="curve"/>
      <point x="687" y="635" type="line"/>
      <point x="687" y="609"/>
      <point x="687" y="573"/>
    </contour>
  </outline>
</glyph>
<glyph name="N" format="2">
  <advance width="662"/>
  <unicode hex="004E"/>
  <note>
N
</note>
  <anchor x="324" y="0" name="bottom"/>
  <anchor x="339" y="700" name="top"/>
  <outline>
    <contour>
      <point x="79" y="703" type="line"/>
      <point x="79" y="-3" type="line"/>
      <point x="152" y="-3" type="line"/>
      <point x="152" y="558" type="line"/>
      <point x="521" y="-3" type="line"/>
      <point x="583" y="-3" type="line"/>
      <point x="583" y="703" type="line"/>
      <point x="510" y="703" type="line"/>
      <point x="510" y="142" type="line"/>
      <point x="142" y="703" type="line"/>
    </contour>
  </outline>
</glyph>
<glyph name="O" format="2">
  <advance width="732"/>
  <unicode hex="004F"/>
  <note>
O
</note>
  <anchor x="366" y="0" name="bottom"/>
  <anchor x="366" y="700" name="top"/>
  <anchor x="366" y="350" name="center"/>
  <anchor x="448" y="0" name="ogonek"/>
  <outline>
    <contour>
      <point x="366" y="-15" type="curve" smooth="yes"/>
      <point x="566" y="-15"/>
      <point x="682" y="136"/>
      <point x="682" y="351" type="curve" smooth="yes"/>
      <point x="682" y="565"/>
      <point x="566" y="716"/>
      <point x="366" y="716" type="curve" smooth="yes"/>
      <point x="166" y="716"/>
      <point x="50" y="565"/>
      <point x="50" y="351" type="curve" smooth="yes"/>
      <point x="50" y="137"/>
      <point x="166" y="-15"/>
    </contour>
    <contour>
      <point x="366" y="51" type="curve" smooth="yes"/>
      <point x="210" y="51"/>
      <point x="125" y="176"/>
      <point x="125" y="351" type="curve" smooth="yes"/>
      <point x="125" y="525"/>
      <point x="210" y="651"/>
      <point x="366" y="650" type="curve" smooth="yes"/>
      <point x="522" y="649"/>
      <point x="607" y="525"/>
      <point x="607" y="351" type="curve" smooth="yes"/>
      <point x="607" y="176"/>
      <point x="522" y="51"/>
    </contour>
  </outline>
</glyph>
<glyph name="P" format="2">
  <advance width="592"/>
  <unicode hex="0050"/>
  <note>
P
</note>
  <anchor x="300" y="0" name="bottom"/>
  <anchor x="300" y="700" name="top"/>
  <outline>
    <contour>
      <point x="262" y="231" type="curve" smooth="yes"/>
      <point x="460" y="231"/>
      <point x="551" y="331"/>
      <point x="551" y="467" type="curve" smooth="yes"/>
      <point x="551" y="604"/>
      <point x="471" y="701"/>
      <point x="262" y="701" type="curve" smooth="yes"/>
      <point x="209" y="701"/>
      <point x="127" y="701"/>
      <point x="79" y="701" type="curve"/>
      <point x="79" y="0" type="line"/>
      <point x="152" y="0" type="line"/>
      <point x="152" y="236" type="line"/>
      <point x="184" y="233"/>
      <point x="231" y="231"/>
    </contour>
    <contour>
      <point x="152" y="302" type="curve"/>
      <point x="152" y="637" type="line"/>
      <point x="184" y="637"/>
      <point x="232" y="637"/>
      <point x="264" y="637" type="curve" smooth="yes"/>
      <point x="422" y="637"/>
      <point x="476" y="574"/>
      <point x="476" y="467" type="curve" smooth="yes"/>
      <point x="476" y="364"/>
      <point x="412" y="295"/>
      <point x="264" y="295" type="curve" smooth="yes"/>
      <point x="230" y="295"/>
      <point x="183" y="298"/>
    </contour>
  </outline>
</glyph>
<glyph name="Q" format="2">
  <advance width="705"/>
  <unicode hex="0051"/>
  <note>
Q
</note>
  <anchor x="372" y="0" name="bottom"/>
  <anchor x="372" y="700" name="top"/>
  <anchor x="372" y="350" name="center"/>
  <anchor x="454" y="0" name="ogonek"/>
  <outline>
    <contour>
      <point x="159" y="147" type="curve"/>
      <point x="204" y="107" type="line"/>
      <point x="252" y="147"/>
      <point x="307" y="166"/>
      <point x="360" y="166" type="curve" smooth="yes"/>
      <point x="474" y="166"/>
      <point x="577" y="81"/>
      <point x="577" y="-63" type="curve" smooth="yes"/>
      <point x="577" y="-71"/>
      <point x="577" y="-79"/>
      <point x="576" y="-87" type="curve"/>
      <point x="640" y="-87" type="line"/>
      <point x="640" y="-81"/>
      <point x="641" y="-74"/>
      <point x="641" y="-68" type="curve" smooth="yes"/>
      <point x="641" y="97"/>
      <point x="524" y="229"/>
      <point x="366" y="229" type="curve" smooth="yes"/>
      <point x="298" y="229"/>
      <point x="218" y="208"/>
    </contour>
    <component base="O"/>
  </outline>
</glyph>
<glyph name="R" format="2">
  <advance width="587"/>
  <unicode hex="0052"/>
  <note>
R
</note>
  <anchor x="306" y="0" name="bottom"/>
  <anchor x="287" y="700" name="top"/>
  <outline>
    <contour>
      <point x="384" y="302" type="line"/>
      <point x="316" y="286" type="line"/>
      <point x="475" y="0" type="line"/>
      <point x="555" y="0" type="line"/>
    </contour>
    <component base="P"/>
  </outline>
</glyph>
<glyph name="S" format="2">
  <advance width="577"/>
  <unicode hex="0053"/>
  <note>
S
</note>
  <anchor x="285" y="0" name="bottom"/>
  <anchor x="293" y="700" name="top"/>
  <outline>
    <contour>
      <point x="279" y="-13" type="curve" smooth="yes"/>
      <point x="418" y="-13"/>
      <point x="525" y="49"/>
      <point x="525" y="188" type="curve" smooth="yes"/>
      <point x="525" y="309"/>
      <point x="438" y="353"/>
      <point x="340" y="377" type="curve" smooth="yes"/>
      <point x="258" y="397" type="line" smooth="yes"/>
      <point x="176" y="417"/>
      <point x="136" y="453"/>
      <point x="136" y="522" type="curve" smooth="yes"/>
      <point x="136" y="609"/>
      <point x="207" y="647"/>
      <point x="296" y="647" type="curve" smooth="yes"/>
      <point x="361" y="647"/>
      <point x="415" y="627"/>
      <point x="455" y="609" type="curve"/>
      <point x="455" y="681" type="line"/>
      <point x="410" y="698"/>
      <point x="356" y="713"/>
      <point x="295" y="713" type="curve" smooth="yes"/>
      <point x="167" y="713"/>
      <point x="63" y="650"/>
      <point x="63" y="519" type="curve" smooth="yes"/>
      <point x="63" y="404"/>
      <point x="137" y="356"/>
      <point x="230" y="333" type="curve" smooth="yes"/>
      <point x="311" y="313" type="line" smooth="yes"/>
      <point x="392" y="293"/>
      <point x="452" y="263"/>
      <point x="452" y="183" type="curve" smooth="yes"/>
      <point x="452" y="90"/>
      <point x="376" y="53"/>
      <point x="278" y="53" type="curve" smooth="yes"/>
      <point x="183" y="53"/>
      <point x="104" y="90"/>
      <point x="50" y="131" type="curve"/>
      <point x="50" y="47" type="line"/>
      <point x="109" y="15"/>
      <point x="188" y="-13"/>
    </contour>
  </outline>
</glyph>
<glyph name="T" format="2">
  <advance width="589"/>
  <unicode hex="0054"/>
  <note>
T
</note>
  <anchor x="294" y="0" name="bottom"/>
  <anchor x="294" y="700" name="top"/>
  <anchor x="294" y="340" name="center"/>
  <outline>
    <contour>
      <point x="258" y="637" type="line"/>
      <point x="258" y="0" type="line"/>
      <point x="331" y="0" type="line"/>
      <point x="331" y="637" type="line"/>
      <point x="577" y="637" type="line"/>
      <point x="577" y="701" type="line"/>
      <point x="12" y="701" type="line"/>
      <point x="12" y="637" type="line"/>
    </contour>
  </outline>
</glyph>
<glyph name="U" format="2">
  <advance width="670"/>
  <unicode hex="0055"/>
  <note>
U
</note>
  <anchor x="335" y="0" name="bottom"/>
  <anchor x="335" y="700" name="top"/>
  <anchor x="414" y="0" name="ogonek"/>
  <outline>
    <contour>
      <point x="337" y="-15" type="curve" smooth="yes"/>
      <point x="497" y="-15"/>
      <point x="595" y="67"/>
      <point x="595" y="250" type="curve" smooth="yes"/>
      <point x="595" y="701" type="line"/>
      <point x="521" y="701" type="line"/>
      <point x="521" y="249" type="line" smooth="yes"/>
      <point x="521" y="108"/>
      <point x="453" y="50"/>
      <point x="337" y="50" type="curve" smooth="yes"/>
      <point x="222" y="50"/>
      <point x="149" y="108"/>
      <point x="149" y="249" type="curve" smooth="yes"/>
      <point x="149" y="701" type="line"/>
      <point x="75" y="701" type="line"/>
      <point x="75" y="250" type="line" smooth="yes"/>
      <point x="75" y="68"/>
      <point x="178" y="-15"/>
    </contour>
  </outline>
</glyph>
<glyph name="V" format="2">
  <advance width="667"/>
  <unicode hex="0056"/>
  <note>
V
</note>
  <anchor x="332" y="0" name="bottom"/>
  <anchor x="332" y="700" name="top"/>
  <outline>
    <contour>
      <point x="5" y="701" type="line"/>
      <point x="293" y="-3" type="line"/>
      <point x="372" y="-3" type="line"/>
      <point x="661" y="703" type="line"/>
      <point x="584" y="703" type="line"/>
      <point x="357" y="146" type="line"/>
      <point x="349" y="129"/>
      <point x="337" y="106"/>
      <point x="332" y="84" type="curve"/>
      <point x="326" y="107"/>
      <point x="315" y="131"/>
      <point x="309" y="144" type="curve"/>
      <point x="83" y="701" type="line"/>
    </contour>
  </outline>
</glyph>
<glyph name="W" format="2">
  <advance width="921"/>
  <unicode hex="0057"/>
  <note>
W
</note>
  <anchor x="455" y="0" name="bottom"/>
  <anchor x="455" y="700" name="top"/>
  <outline>
    <contour>
      <point x="14" y="701" type="line"/>
      <point x="222" y="0" type="line"/>
      <point x="283" y="0" type="line"/>
      <point x="461" y="568" type="line"/>
      <point x="639" y="0" type="line"/>
      <point x="698" y="0" type="line"/>
      <point x="907" y="701" type="line"/>
      <point x="831" y="701" type="line"/>
      <point x="665" y="143" type="line"/>
      <point x="490" y="701" type="line"/>
      <point x="431" y="701" type="line"/>
      <point x="255" y="145" type="line"/>
      <point x="90" y="701" type="line"/>
    </contour>
  </outline>
</glyph>
<glyph name="X" format="2">
  <advance width="647"/>
  <unicode hex="0058"/>
  <note>
X
</note>
  <outline>
    <contour>
      <point x="319" y="294" type="line"/>
      <point x="536" y="0" type="line"/>
      <point x="627" y="0" type="line"/>
      <point x="369" y="350" type="line"/>
      <point x="614" y="701" type="line"/>
      <point x="529" y="701" type="line"/>
      <point x="327" y="408" type="line"/>
      <point x="111" y="701" type="line"/>
      <point x="20" y="701" type="line"/>
      <point x="278" y="351" type="line"/>
      <point x="32" y="0" type="line"/>
      <point x="117" y="0" type="line"/>
    </contour>
  </outline>
</glyph>
<glyph name="Y" format="2">
  <advance width="617"/>
  <unicode hex="0059"/>
  <note>
Y
</note>
  <anchor x="308" y="0" name="bottom"/>
  <anchor x="308" y="700" name="top"/>
  <outline>
    <contour>
      <point x="270" y="275" type="line"/>
      <point x="270" y="0" type="line"/>
      <point x="346" y="0" type="line"/>
      <point x="346" y="275" type="line"/>
      <point x="612" y="701" type="line"/>
      <point x="526" y="701" type="line"/>
      <point x="331" y="386" type="line"/>
      <point x="317" y="364"/>
      <point x="302" y="331"/>
      <point x="288" y="309" type="curve"/>
      <point x="328" y="309" type="line"/>
      <point x="314" y="331"/>
      <point x="299" y="364"/>
      <point x="285" y="386" type="curve"/>
      <point x="90" y="701" type="line"/>
      <point x="4" y="701" type="line"/>
    </contour>
  </outline>
</glyph>
<glyph name="Z" format="2">
  <advance width="569"/>
  <unicode hex="005A"/>
  <note>
Z
</note>
  <anchor x="286" y="0" name="bottom"/>
  <anchor x="286" y="700" name="top"/>
  <anchor x="286" y="350" name="center"/>
  <outline>
    <contour>
      <point x="31" y="58" type="line"/>
      <point x="31" y="0" type="line"/>
      <point x="540" y="0" type="line"/>
      <point x="540" y="63" type="line"/>
      <point x="120" y="63" type="line"/>
      <point x="534" y="643" type="line"/>
      <point x="534" y="701" type="line"/>
      <point x="48" y="701" type="line"/>
      <point x="48" y="638" type="line"/>
      <point x="446" y="638" type="line"/>
    </contour>
  </outline>
</glyph>
<glyph name="bracketleft" format="2">
  <advance width="350"/>
  <unicode hex="005B"/>
  <note>
bracketleft
</note>
  <outline>
    <contour>
      <point x="77" y="746" type="line"/>
      <point x="77" y="-220" type="line"/>
      <point x="316" y="-220" type="line"/>
      <point x="316" y="-154" type="line"/>
      <point x="154" y="-154" type="line"/>
      <point x="154" y="681" type="line"/>
      <point x="316" y="681" type="line"/>
      <point x="316" y="746" type="line"/>
    </contour>
  </outline>
</glyph>
<glyph name="backslash" format="2">
  <advance width="327"/>
  <unicode hex="005C"/>
  <outline>
    <contour>
      <point x="254" y="-62" type="curve"/>
      <point x="278" y="-64"/>
      <point x="293" y="-64"/>
      <point x="317" y="-62" type="curve"/>
      <point x="237" y="194"/>
      <point x="155" y="443"/>
      <point x="65" y="687" type="curve"/>
      <point x="41" y="692"/>
      <point x="24" y="692"/>
      <point x="0" y="687" type="curve"/>
      <point x="90" y="443"/>
      <point x="174" y="194"/>
    </contour>
  </outline>
</glyph>
<glyph name="bracketright" format="2">
  <advance width="350"/>
  <unicode hex="005D"/>
  <note>
bracketright
</note>
  <outline>
    <contour>
      <point x="273" y="-220" type="line"/>
      <point x="273" y="746" type="line"/>
      <point x="34" y="746" type="line"/>
      <point x="34" y="680" type="line"/>
      <point x="196" y="680" type="line"/>
      <point x="196" y="-155" type="line"/>
      <point x="34" y="-155" type="line"/>
      <point x="34" y="-220" type="line"/>
    </contour>
  </outline>
</glyph>
<glyph name="underscore" format="2">
  <advance width="542"/>
  <unicode hex="005F"/>
  <note>
underscore
</note>
  <outline>
    <contour>
      <point x="69" y="-60" type="line"/>
      <point x="69" y="-126" type="line"/>
      <point x="474" y="-126" type="line"/>
      <point x="474" y="-60" type="line"/>
    </contour>
  </outline>
</glyph>
<glyph name="a" format="2">
  <advance width="566"/>
  <unicode hex="0061"/>
  <note>
a
</note>
  <anchor x="282" y="0" name="bottom"/>
  <anchor x="294" y="482" name="top"/>
  <anchor x="560" y="7" name="ogonek"/>
  <outline>
    <contour>
      <point x="256" y="-7" type="curve" smooth="yes"/>
      <point x="342" y="-7"/>
      <point x="419" y="37"/>
      <point x="442" y="144" type="curve"/>
      <point x="421" y="154" type="line"/>
      <point x="421" y="103"/>
      <point x="423" y="51"/>
      <point x="433" y="0" type="curve"/>
      <point x="502" y="0" type="line"/>
      <point x="492" y="50"/>
      <point x="490" y="151"/>
      <point x="490" y="201" type="curve" smooth="yes"/>
      <point x="490" y="447" type="line"/>
      <point x="430" y="476"/>
      <point x="356" y="497"/>
      <point x="286" y="497" type="curve" smooth="yes"/>
      <point x="160" y="497"/>
      <point x="47" y="432"/>
      <point x="47" y="238" type="curve" smooth="yes"/>
      <point x="47" y="97"/>
      <point x="124" y="-7"/>
    </contour>
    <contour>
      <point x="257" y="56" type="curve" smooth="yes"/>
      <point x="176" y="56"/>
      <point x="121" y="133"/>
      <point x="121" y="243" type="curve" smooth="yes"/>
      <point x="121" y="393"/>
      <point x="205" y="434"/>
      <point x="289" y="434" type="curve" smooth="yes"/>
      <point x="337" y="434"/>
      <point x="386" y="420"/>
      <point x="417" y="405" type="curve"/>
      <point x="417" y="273" type="line" smooth="yes"/>
      <point x="417" y="171"/>
      <point x="381" y="56"/>
    </contour>
  </outline>
</glyph>
<glyph name="b" format="2">
  <advance width="561"/>
  <unicode hex="0062"/>
  <note>
b
</note>
  <anchor x="279" y="0" name="bottom"/>
  <anchor x="279" y="482" name="top"/>
  <anchor x="140" y="592" name="center"/>
  <outline>
    <contour>
      <point x="264" y="-10" type="curve" smooth="yes"/>
      <point x="429" y="-10"/>
      <point x="514" y="114"/>
      <point x="514" y="254" type="curve" smooth="yes"/>
      <point x="514" y="389"/>
      <point x="435" y="500"/>
      <point x="304" y="500" type="curve" smooth="yes"/>
      <point x="211" y="499"/>
      <point x="148" y="449"/>
      <point x="137" y="363" type="curve"/>
      <point x="142" y="333" type="line"/>
      <point x="148" y="485" type="line"/>
      <point x="148" y="716" type="line"/>
      <point x="77" y="716" type="line"/>
      <point x="77" y="38" type="line"/>
      <point x="129" y="15"/>
      <point x="190" y="-10"/>
    </contour>
    <contour>
      <point x="147" y="79" type="curve"/>
      <point x="147" y="194" type="line" smooth="yes"/>
      <point x="147" y="311"/>
      <point x="181" y="435"/>
      <point x="304" y="435" type="curve" smooth="yes"/>
      <point x="386" y="435"/>
      <point x="441" y="354"/>
      <point x="441" y="248" type="curve" smooth="yes"/>
      <point x="441" y="140"/>
      <point x="383" y="52"/>
      <point x="265" y="52" type="curve" smooth="yes"/>
      <point x="220" y="52"/>
      <point x="181" y="66"/>
    </contour>
  </outline>
</glyph>
<glyph name="c" format="2">
  <advance width="456"/>
  <unicode hex="0063"/>
  <note>
c
</note>
  <anchor x="284" y="0" name="bottom"/>
  <anchor x="294" y="482" name="top"/>
  <outline>
    <contour>
      <point x="303" y="-10" type="curve" smooth="yes"/>
      <point x="359" y="-10"/>
      <point x="402" y="5"/>
      <point x="435" y="22" type="curve"/>
      <point x="435" y="92" type="line"/>
      <point x="409" y="75"/>
      <point x="368" y="54"/>
      <point x="309" y="54" type="curve" smooth="yes"/>
      <point x="194" y="54"/>
      <point x="123" y="129"/>
      <point x="123" y="244" type="curve" smooth="yes"/>
      <point x="123" y="357"/>
      <point x="194" y="433"/>
      <point x="309" y="433" type="curve" smooth="yes"/>
      <point x="361" y="433"/>
      <point x="399" y="418"/>
      <point x="426" y="401" type="curve"/>
      <point x="426" y="470" type="line"/>
      <point x="394" y="486"/>
      <point x="354" y="499"/>
      <point x="303" y="498" type="curve" smooth="yes"/>
      <point x="144" y="497"/>
      <point x="48" y="395"/>
      <point x="48" y="244" type="curve" smooth="yes"/>
      <point x="48" y="94"/>
      <point x="144" y="-10"/>
    </contour>
  </outline>
</glyph>
<glyph name="d" format="2">
  <advance width="579"/>
  <unicode hex="0064"/>
  <note>
d
</note>
  <anchor x="296" y="0" name="bottom"/>
  <anchor x="296" y="482" name="top"/>
  <anchor x="448" y="618" name="center"/>
  <outline>
    <contour>
      <point x="428" y="396" type="curve"/>
      <point x="443" y="470" type="line"/>
      <point x="399" y="488"/>
      <point x="349" y="498"/>
      <point x="294" y="498" type="curve" smooth="yes"/>
      <point x="108" y="498"/>
      <point x="47" y="376"/>
      <point x="47" y="238" type="curve" smooth="yes"/>
      <point x="47" y="97"/>
      <point x="124" y="-7"/>
      <point x="256" y="-7" type="curve" smooth="yes"/>
      <point x="342" y="-7"/>
      <point x="419" y="37"/>
      <point x="442" y="144" type="curve"/>
      <point x="421" y="154" type="line"/>
      <point x="421" y="103"/>
      <point x="423" y="51"/>
      <point x="433" y="0" type="curve"/>
      <point x="502" y="0" type="line"/>
      <point x="492" y="50"/>
      <point x="490" y="101"/>
      <point x="490" y="151" type="curve" smooth="yes"/>
      <point x="490" y="716" type="line"/>
      <point x="417" y="716" type="line"/>
      <point x="417" y="273" type="line" smooth="yes"/>
      <point x="417" y="171"/>
      <point x="381" y="56"/>
      <point x="257" y="56" type="curve" smooth="yes"/>
      <point x="176" y="56"/>
      <point x="121" y="133"/>
      <point x="121" y="243" type="curve" smooth="yes"/>
      <point x="121" y="345"/>
      <point x="167" y="436"/>
      <point x="294" y="436" type="curve" smooth="yes"/>
      <point x="347" y="436"/>
      <point x="396" y="426"/>
    </contour>
  </outline>
</glyph>
<glyph name="e" format="2">
  <advance width="519"/>
  <unicode hex="0065"/>
  <note>
e
</note>
  <anchor x="270" y="0" name="bottom"/>
  <anchor x="295" y="482" name="top"/>
  <anchor x="463" y="48" name="ogonek"/>
  <outline>
    <contour>
      <point x="302" y="-10" type="curve" smooth="yes"/>
      <point x="365" y="-10"/>
      <point x="417" y="8"/>
      <point x="455" y="31" type="curve"/>
      <point x="455" y="101" type="line"/>
      <point x="430" y="83"/>
      <point x="379" y="54"/>
      <point x="308" y="54" type="curve" smooth="yes"/>
      <point x="201" y="54"/>
      <point x="132" y="118"/>
      <point x="123" y="221" type="curve"/>
      <point x="466" y="221" type="line"/>
      <point x="496" y="418"/>
      <point x="401" y="497"/>
      <point x="278" y="497" type="curve" smooth="yes"/>
      <point x="139" y="497"/>
      <point x="47" y="395"/>
      <point x="47" y="244" type="curve" smooth="yes"/>
      <point x="47" y="94"/>
      <point x="143" y="-10"/>
    </contour>
    <contour>
      <point x="401" y="282" type="curve"/>
      <point x="125" y="282" type="line"/>
      <point x="139" y="374"/>
      <point x="199" y="433"/>
      <point x="284" y="433" type="curve" smooth="yes"/>
      <point x="389" y="433"/>
      <point x="413" y="331"/>
    </contour>
  </outline>
</glyph>
<glyph name="f" format="2">
  <advance width="336"/>
  <unicode hex="0066"/>
  <note>
f
</note>
  <outline>
    <contour>
      <point x="112" y="0" type="line"/>
      <point x="183" y="0" type="line"/>
      <point x="183" y="408" type="line"/>
      <point x="331" y="408" type="line"/>
      <point x="331" y="468" type="line"/>
      <point x="183" y="468" type="line"/>
      <point x="183" y="541" type="line" smooth="yes"/>
      <point x="183" y="623"/>
      <point x="217" y="664"/>
      <point x="285" y="664" type="curve" smooth="yes"/>
      <point x="311" y="663"/>
      <point x="331" y="662"/>
      <point x="354" y="655" type="curve"/>
      <point x="354" y="709" type="line"/>
      <point x="334" y="719"/>
      <point x="307" y="726"/>
      <point x="275" y="726" type="curve" smooth="yes"/>
      <point x="167" y="726"/>
      <point x="112" y="665"/>
      <point x="112" y="543" type="curve" smooth="yes"/>
      <point x="112" y="468" type="line"/>
      <point x="13" y="468" type="line"/>
      <point x="13" y="408" type="line"/>
      <point x="112" y="408" type="line"/>
    </contour>
  </outline>
</glyph>
<glyph name="g" format="2">
  <advance width="564"/>
  <unicode hex="0067"/>
  <note>
g
</note>
  <anchor x="283" y="-214" name="bottom"/>
  <anchor x="293" y="482" name="top"/>
  <outline>
    <contour>
      <point x="490" y="-1" type="curve" smooth="yes"/>
      <point x="490" y="178" type="line"/>
      <point x="424" y="178" type="line"/>
      <point x="424" y="2" type="line" smooth="yes"/>
      <point x="424" y="-123"/>
      <point x="353" y="-160"/>
      <point x="273" y="-160" type="curve" smooth="yes"/>
      <point x="202" y="-160"/>
      <point x="151" y="-140"/>
      <point x="103" y="-113" type="curve"/>
      <point x="103" y="-182" type="line"/>
      <point x="149" y="-207"/>
      <point x="205" y="-224"/>
      <point x="274" y="-224" type="curve" smooth="yes"/>
      <point x="391" y="-224"/>
      <point x="490" y="-160"/>
    </contour>
    <contour>
      <point x="256" y="-7" type="curve" smooth="yes"/>
      <point x="342" y="-7"/>
      <point x="419" y="37"/>
      <point x="442" y="144" type="curve"/>
      <point x="490" y="151" type="line"/>
      <point x="490" y="447" type="line"/>
      <point x="436" y="479"/>
      <point x="370" y="498"/>
      <point x="294" y="498" type="curve" smooth="yes"/>
      <point x="108" y="498"/>
      <point x="47" y="376"/>
      <point x="47" y="238" type="curve" smooth="yes"/>
      <point x="47" y="97"/>
      <point x="124" y="-7"/>
    </contour>
    <contour>
      <point x="257" y="56" type="curve" smooth="yes"/>
      <point x="176" y="56"/>
      <point x="121" y="133"/>
      <point x="121" y="243" type="curve" smooth="yes"/>
      <point x="121" y="345"/>
      <point x="167" y="436"/>
      <point x="294" y="436" type="curve" smooth="yes"/>
      <point x="341" y="436"/>
      <point x="385" y="428"/>
      <point x="417" y="405" type="curve"/>
      <point x="417" y="273" type="line" smooth="yes"/>
      <point x="417" y="171"/>
      <point x="381" y="56"/>
    </contour>
  </outline>
</glyph>
<glyph name="h" format="2">
  <advance width="556"/>
  <unicode hex="0068"/>
  <note>
h
</note>
  <anchor x="269" y="0" name="bottom"/>
  <anchor x="109" y="710" name="top"/>
  <anchor x="109" y="618" name="center"/>
  <outline>
    <contour>
      <point x="77" y="716" type="line"/>
      <point x="77" y="0" type="line"/>
      <point x="148" y="0" type="line"/>
      <point x="148" y="194" type="line" smooth="yes"/>
      <point x="148" y="311"/>
      <point x="181" y="435"/>
      <point x="307" y="435" type="curve" smooth="yes"/>
      <point x="379" y="435"/>
      <point x="413" y="392"/>
      <point x="413" y="304" type="curve" smooth="yes"/>
      <point x="413" y="0" type="line"/>
      <point x="484" y="0" type="line"/>
      <point x="484" y="307" type="line" smooth="yes"/>
      <point x="484" y="436"/>
      <point x="429" y="499"/>
      <point x="312" y="499" type="curve" smooth="yes"/>
      <point x="212" y="499"/>
      <point x="148" y="449"/>
      <point x="137" y="360" type="curve"/>
      <point x="145" y="333" type="line"/>
      <point x="145" y="716" type="line"/>
    </contour>
  </outline>
</glyph>
<glyph name="i" format="2">
  <advance width="248"/>
  <unicode hex="0069"/>
  <note>
i
</note>
  <anchor x="179" y="0" name="bottom"/>
  <anchor x="235" y="4" name="ogonek"/>
  <anchor x="124" y="688" name="top"/>
  <outline>
    <contour>
      <point x="88" y="0" type="line"/>
      <point x="159" y="0" type="line"/>
      <point x="159" y="485" type="line"/>
      <point x="88" y="485" type="line"/>
    </contour>
    <contour>
      <point x="124" y="566" type="curve" smooth="yes"/>
      <point x="160" y="566"/>
      <point x="182" y="590"/>
      <point x="182" y="618" type="curve" smooth="yes"/>
      <point x="182" y="646"/>
      <point x="159" y="669"/>
      <point x="124" y="669" type="curve" smooth="yes"/>
      <point x="88" y="669"/>
      <point x="66" y="646"/>
      <point x="66" y="618" type="curve" smooth="yes"/>
      <point x="66" y="590"/>
      <point x="88" y="566"/>
    </contour>
  </outline>
</glyph>
<glyph name="j" format="2">
  <advance width="258"/>
  <unicode hex="006A"/>
  <note>
j
</note>
  <anchor x="136" y="688" name="top"/>
  <outline>
    <contour>
      <point x="-20" y="-162" type="curve"/>
      <point x="-20" y="-221" type="line"/>
      <point x="-5" y="-223"/>
      <point x="9" y="-225"/>
      <point x="23" y="-225" type="curve" smooth="yes"/>
      <point x="124" y="-225"/>
      <point x="172" y="-157"/>
      <point x="172" y="-40" type="curve" smooth="yes"/>
      <point x="172" y="485" type="line"/>
      <point x="101" y="485" type="line"/>
      <point x="101" y="-33" type="line" smooth="yes"/>
      <point x="101" y="-115"/>
      <point x="76" y="-163"/>
      <point x="-1" y="-163" type="curve" smooth="yes"/>
      <point x="-7" y="-163"/>
      <point x="-13" y="-163"/>
    </contour>
    <contour>
      <point x="134" y="566" type="curve" smooth="yes"/>
      <point x="170" y="566"/>
      <point x="192" y="590"/>
      <point x="192" y="618" type="curve" smooth="yes"/>
      <point x="192" y="646"/>
      <point x="169" y="669"/>
      <point x="134" y="669" type="curve" smooth="yes"/>
      <point x="98" y="669"/>
      <point x="76" y="646"/>
      <point x="76" y="618" type="curve" smooth="yes"/>
      <point x="76" y="590"/>
      <point x="98" y="566"/>
    </contour>
  </outline>
</glyph>
<glyph name="k" format="2">
  <advance width="486"/>
  <unicode hex="006B"/>
  <note>
k
</note>
  <anchor x="252" y="0" name="bottom"/>
  <anchor x="258" y="482" name="top"/>
  <outline>
    <contour>
      <point x="77" y="0" type="line"/>
      <point x="148" y="0" type="line"/>
      <point x="148" y="736" type="line"/>
      <point x="77" y="736" type="line"/>
    </contour>
    <contour>
      <point x="126" y="295" type="line"/>
      <point x="126" y="235" type="line"/>
      <point x="214" y="235" type="line"/>
      <point x="181" y="240" type="line"/>
      <point x="379" y="0" type="line"/>
      <point x="474" y="0" type="line"/>
      <point x="261" y="262" type="line"/>
      <point x="449" y="485" type="line"/>
      <point x="361" y="485" type="line"/>
      <point x="184" y="282" type="line"/>
      <point x="214" y="295" type="line"/>
    </contour>
  </outline>
</glyph>
<glyph name="l" format="2">
  <advance width="314"/>
  <unicode hex="006C"/>
  <note>
l
</note>
  <anchor x="180" y="0" name="bottom"/>
  <anchor x="113" y="710" name="top"/>
  <anchor x="113" y="412" name="center"/>
  <outline>
    <contour>
      <point x="182" y="-7" type="curve" smooth="yes"/>
      <point x="204" y="-7"/>
      <point x="222" y="-2"/>
      <point x="237" y="4" type="curve"/>
      <point x="237" y="56" type="line"/>
      <point x="198" y="56" type="line" smooth="yes"/>
      <point x="166" y="56"/>
      <point x="148" y="74"/>
      <point x="148" y="119" type="curve" smooth="yes"/>
      <point x="148" y="716" type="line"/>
      <point x="77" y="716" type="line"/>
      <point x="77" y="113" type="line" smooth="yes"/>
      <point x="77" y="31"/>
      <point x="117" y="-7"/>
    </contour>
  </outline>
</glyph>
<glyph name="m" format="2">
  <advance width="844"/>
  <unicode hex="006D"/>
  <note>
m
</note>
  <outline>
    <contour>
      <point x="73" y="488" type="line"/>
      <point x="73" y="0" type="line"/>
      <point x="145" y="0" type="line"/>
      <point x="145" y="194" type="line" smooth="yes"/>
      <point x="145" y="311"/>
      <point x="178" y="435"/>
      <point x="284" y="435" type="curve" smooth="yes"/>
      <point x="346" y="435"/>
      <point x="380" y="392"/>
      <point x="380" y="304" type="curve" smooth="yes"/>
      <point x="380" y="0" type="line"/>
      <point x="452" y="0" type="line"/>
      <point x="452" y="194" type="line" smooth="yes"/>
      <point x="452" y="311"/>
      <point x="489" y="435"/>
      <point x="605" y="435" type="curve" smooth="yes"/>
      <point x="667" y="435"/>
      <point x="701" y="392"/>
      <point x="701" y="304" type="curve" smooth="yes"/>
      <point x="701" y="0" type="line"/>
      <point x="772" y="0" type="line"/>
      <point x="772" y="307" type="line" smooth="yes"/>
      <point x="772" y="436"/>
      <point x="717" y="499"/>
      <point x="610" y="499" type="curve" smooth="yes"/>
      <point x="515" y="499"/>
      <point x="441" y="443"/>
      <point x="436" y="347" type="curve"/>
      <point x="446" y="345" type="line"/>
      <point x="434" y="449"/>
      <point x="384" y="499"/>
      <point x="289" y="499" type="curve" smooth="yes"/>
      <point x="223" y="499"/>
      <point x="164" y="462"/>
      <point x="142" y="396" type="curve"/>
      <point x="142" y="488" type="line"/>
    </contour>
  </outline>
</glyph>
<glyph name="n" format="2">
  <advance width="552"/>
  <unicode hex="006E"/>
  <note>
n
</note>
  <anchor x="266" y="0" name="bottom"/>
  <anchor x="276" y="482" name="top"/>
  <outline>
    <contour>
      <point x="73" y="488" type="line"/>
      <point x="73" y="0" type="line"/>
      <point x="144" y="0" type="line"/>
      <point x="144" y="194" type="line" smooth="yes"/>
      <point x="144" y="311"/>
      <point x="177" y="435"/>
      <point x="303" y="435" type="curve" smooth="yes"/>
      <point x="375" y="435"/>
      <point x="409" y="392"/>
      <point x="409" y="304" type="curve" smooth="yes"/>
      <point x="409" y="0" type="line"/>
      <point x="480" y="0" type="line"/>
      <point x="480" y="307" type="line" smooth="yes"/>
      <point x="480" y="436"/>
      <point x="425" y="499"/>
      <point x="308" y="499" type="curve" smooth="yes"/>
      <point x="208" y="499"/>
      <point x="144" y="449"/>
      <point x="133" y="360" type="curve"/>
      <point x="141" y="333" type="line"/>
      <point x="141" y="488" type="line"/>
    </contour>
  </outline>
</glyph>
<glyph name="o" format="2">
  <advance width="581"/>
  <unicode hex="006F"/>
  <note>
o
</note>
  <anchor x="281" y="0" name="bottom"/>
  <anchor x="281" y="482" name="top"/>
  <anchor x="281" y="241" name="center"/>
  <anchor x="352" y="0" name="ogonek"/>
  <outline>
    <contour>
      <point x="291" y="-9" type="curve" smooth="yes"/>
      <point x="438" y="-9"/>
      <point x="533" y="91"/>
      <point x="533" y="245" type="curve" smooth="yes"/>
      <point x="533" y="399"/>
      <point x="438" y="499"/>
      <point x="291" y="499" type="curve" smooth="yes"/>
      <point x="143" y="499"/>
      <point x="48" y="399"/>
      <point x="48" y="245" type="curve" smooth="yes"/>
      <point x="48" y="91"/>
      <point x="143" y="-9"/>
    </contour>
    <contour>
      <point x="291" y="53" type="curve" smooth="yes"/>
      <point x="188" y="53"/>
      <point x="122" y="128"/>
      <point x="122" y="245" type="curve" smooth="yes"/>
      <point x="122" y="362"/>
      <point x="188" y="437"/>
      <point x="291" y="437" type="curve" smooth="yes"/>
      <point x="394" y="437"/>
      <point x="460" y="362"/>
      <point x="460" y="245" type="curve" smooth="yes"/>
      <point x="460" y="128"/>
      <point x="394" y="53"/>
    </contour>
  </outline>
</glyph>
<glyph name="p" format="2">
  <advance width="560"/>
  <unicode hex="0070"/>
  <note>
p
</note>
  <anchor x="282" y="0" name="bottom"/>
  <anchor x="282" y="482" name="top"/>
  <outline>
    <contour>
      <point x="264" y="-10" type="curve" smooth="yes"/>
      <point x="429" y="-10"/>
      <point x="514" y="123"/>
      <point x="514" y="263" type="curve" smooth="yes"/>
      <point x="514" y="398"/>
      <point x="435" y="499"/>
      <point x="304" y="499" type="curve" smooth="yes"/>
      <point x="223" y="499"/>
      <point x="166" y="461"/>
      <point x="145" y="397" type="curve"/>
      <point x="148" y="498" type="line"/>
      <point x="77" y="498" type="line"/>
      <point x="77" y="-224" type="line"/>
      <point x="147" y="-224" type="line"/>
      <point x="147" y="10" type="line"/>
      <point x="183" y="-2"/>
      <point x="221" y="-10"/>
    </contour>
    <contour>
      <point x="147" y="79" type="curve"/>
      <point x="147" y="194" type="line" smooth="yes"/>
      <point x="147" y="311"/>
      <point x="181" y="435"/>
      <point x="304" y="435" type="curve" smooth="yes"/>
      <point x="386" y="435"/>
      <point x="441" y="363"/>
      <point x="441" y="257" type="curve" smooth="yes"/>
      <point x="441" y="149"/>
      <point x="383" y="52"/>
      <point x="265" y="52" type="curve" smooth="yes"/>
      <point x="220" y="52"/>
      <point x="181" y="66"/>
    </contour>
  </outline>
</glyph>
<glyph name="q" format="2">
  <advance width="591"/>
  <unicode hex="0071"/>
  <note>
q
</note>
  <outline>
    <contour>
      <point x="256" y="-7" type="curve" smooth="yes"/>
      <point x="342" y="-7"/>
      <point x="419" y="37"/>
      <point x="442" y="144" type="curve"/>
      <point x="490" y="151" type="line"/>
      <point x="490" y="447" type="line"/>
      <point x="436" y="475"/>
      <point x="370" y="498"/>
      <point x="294" y="498" type="curve" smooth="yes"/>
      <point x="108" y="498"/>
      <point x="47" y="376"/>
      <point x="47" y="238" type="curve" smooth="yes"/>
      <point x="47" y="97"/>
      <point x="124" y="-7"/>
    </contour>
    <contour>
      <point x="257" y="56" type="curve" smooth="yes"/>
      <point x="176" y="56"/>
      <point x="121" y="133"/>
      <point x="121" y="243" type="curve" smooth="yes"/>
      <point x="121" y="345"/>
      <point x="167" y="436"/>
      <point x="294" y="436" type="curve" smooth="yes"/>
      <point x="341" y="436"/>
      <point x="385" y="428"/>
      <point x="417" y="405" type="curve"/>
      <point x="417" y="273" type="line" smooth="yes"/>
      <point x="417" y="171"/>
      <point x="381" y="56"/>
    </contour>
    <contour>
      <point x="449" y="-224" type="curve"/>
      <point x="515" y="-224" type="line"/>
      <point x="497" y="-139"/>
      <point x="490" y="-53"/>
      <point x="490" y="32" type="curve"/>
      <point x="490" y="178" type="line"/>
      <point x="424" y="178" type="line"/>
      <point x="424" y="34" type="line"/>
      <point x="424" y="-52"/>
      <point x="422" y="-145"/>
    </contour>
  </outline>
</glyph>
<glyph name="r" format="2">
  <advance width="355"/>
  <unicode hex="0072"/>
  <note>
r
</note>
  <anchor x="105" y="0" name="bottom"/>
  <anchor x="211" y="482" name="top"/>
  <outline>
    <contour>
      <point x="294" y="430" type="curve" smooth="yes"/>
      <point x="348" y="430" type="line"/>
      <point x="348" y="494" type="line"/>
      <point x="331" y="496"/>
      <point x="315" y="498"/>
      <point x="300" y="498" type="curve" smooth="yes"/>
      <point x="213" y="498"/>
      <point x="154" y="455"/>
      <point x="139" y="360" type="curve"/>
      <point x="143" y="332" type="line"/>
      <point x="143" y="485" type="line"/>
      <point x="73" y="485" type="line"/>
      <point x="73" y="0" type="line"/>
      <point x="146" y="-1" type="line"/>
      <point x="146" y="193" type="line" smooth="yes"/>
      <point x="146" y="323"/>
      <point x="191" y="430"/>
    </contour>
  </outline>
</glyph>
<glyph name="s" format="2">
  <advance width="422"/>
  <unicode hex="0073"/>
  <note>
s
</note>
  <anchor x="207" y="0" name="bottom"/>
  <anchor x="212" y="482" name="top"/>
  <outline>
    <contour>
      <point x="207" y="-13" type="curve" smooth="yes"/>
      <point x="311" y="-13"/>
      <point x="384" y="33"/>
      <point x="384" y="133" type="curve" smooth="yes"/>
      <point x="384" y="213"/>
      <point x="324" y="249"/>
      <point x="253" y="266" type="curve" smooth="yes"/>
      <point x="212" y="276" type="line" smooth="yes"/>
      <point x="144" y="293"/>
      <point x="111" y="312"/>
      <point x="111" y="359" type="curve" smooth="yes"/>
      <point x="111" y="414"/>
      <point x="149" y="432"/>
      <point x="208" y="432" type="curve" smooth="yes"/>
      <point x="274" y="432"/>
      <point x="317" y="415"/>
      <point x="344" y="404" type="curve"/>
      <point x="344" y="469" type="line"/>
      <point x="311" y="482"/>
      <point x="265" y="495"/>
      <point x="208" y="495" type="curve" smooth="yes"/>
      <point x="116" y="495"/>
      <point x="38" y="452"/>
      <point x="38" y="355" type="curve" smooth="yes"/>
      <point x="38" y="276"/>
      <point x="101" y="237"/>
      <point x="178" y="218" type="curve" smooth="yes"/>
      <point x="215" y="209" type="line" smooth="yes"/>
      <point x="278" y="194"/>
      <point x="311" y="173"/>
      <point x="311" y="129" type="curve" smooth="yes"/>
      <point x="311" y="69"/>
      <point x="271" y="50"/>
      <point x="203" y="50" type="curve" smooth="yes"/>
      <point x="125" y="50"/>
      <point x="84" y="69"/>
      <point x="34" y="91" type="curve"/>
      <point x="34" y="21" type="line"/>
      <point x="86" y="0"/>
      <point x="134" y="-13"/>
    </contour>
  </outline>
</glyph>
<glyph name="t" format="2">
  <advance width="352"/>
  <unicode hex="0074"/>
  <note>
t
</note>
  <anchor x="205" y="0" name="bottom"/>
  <anchor x="151" y="603" name="top"/>
  <anchor x="151" y="241" name="center"/>
  <outline>
    <contour>
      <point x="96" y="555" type="line"/>
      <point x="96" y="472" type="line"/>
      <point x="7" y="472" type="line"/>
      <point x="7" y="412" type="line"/>
      <point x="96" y="412" type="line"/>
      <point x="96" y="167" type="line" smooth="yes"/>
      <point x="96" y="45"/>
      <point x="151" y="-16"/>
      <point x="259" y="-16" type="curve" smooth="yes"/>
      <point x="291" y="-16"/>
      <point x="318" y="-9"/>
      <point x="338" y="1" type="curve"/>
      <point x="338" y="55" type="line"/>
      <point x="315" y="48"/>
      <point x="295" y="47"/>
      <point x="269" y="46" type="curve" smooth="yes"/>
      <point x="201" y="46"/>
      <point x="167" y="87"/>
      <point x="167" y="169" type="curve" smooth="yes"/>
      <point x="167" y="412" type="line"/>
      <point x="325" y="412" type="line"/>
      <point x="325" y="472" type="line"/>
      <point x="167" y="472" type="line"/>
      <point x="167" y="555" type="line"/>
    </contour>
  </outline>
</glyph>
<glyph name="u" format="2">
  <advance width="569"/>
  <unicode hex="0075"/>
  <note>
u
</note>
  <anchor x="264" y="0" name="bottom"/>
  <anchor x="282" y="482" name="top"/>
  <anchor x="546" y="7" name="ogonek"/>
  <outline>
    <contour>
      <point x="145" y="213" type="curve" smooth="yes"/>
      <point x="145" y="485" type="line"/>
      <point x="71" y="485" type="line"/>
      <point x="71" y="208" type="line" smooth="yes"/>
      <point x="71" y="47"/>
      <point x="148" y="-7"/>
      <point x="260" y="-7" type="curve" smooth="yes"/>
      <point x="336" y="-7"/>
      <point x="413" y="37"/>
      <point x="436" y="144" type="curve"/>
      <point x="415" y="154" type="line"/>
      <point x="415" y="103"/>
      <point x="417" y="51"/>
      <point x="427" y="0" type="curve"/>
      <point x="496" y="0" type="line"/>
      <point x="486" y="50"/>
      <point x="484" y="181"/>
      <point x="484" y="231" type="curve" smooth="yes"/>
      <point x="484" y="485" type="line"/>
      <point x="411" y="485" type="line"/>
      <point x="411" y="273" type="line" smooth="yes"/>
      <point x="411" y="171"/>
      <point x="375" y="56"/>
      <point x="261" y="56" type="curve" smooth="yes"/>
      <point x="200" y="56"/>
      <point x="145" y="83"/>
    </contour>
  </outline>
</glyph>
<glyph name="v" format="2">
  <advance width="497"/>
  <unicode hex="0076"/>
  <note>
v
</note>
  <outline>
    <contour>
      <point x="14" y="485" type="line"/>
      <point x="208" y="0" type="line"/>
      <point x="288" y="0" type="line"/>
      <point x="482" y="485" type="line"/>
      <point x="408" y="485" type="line"/>
      <point x="282" y="163" type="line"/>
      <point x="266" y="125"/>
      <point x="250" y="87"/>
      <point x="244" y="50" type="curve"/>
      <point x="252" y="50" type="line"/>
      <point x="244" y="91"/>
      <point x="227" y="133"/>
      <point x="209" y="175" type="curve"/>
      <point x="88" y="485" type="line"/>
    </contour>
  </outline>
</glyph>
<glyph name="w" format="2">
  <advance width="735"/>
  <unicode hex="0077"/>
  <note>
w
</note>
  <anchor x="433" y="0" name="bottom"/>
  <anchor x="444" y="482" name="top"/>
  <outline>
    <contour>
      <point x="23" y="485" type="line"/>
      <point x="182" y="0" type="line"/>
      <point x="240" y="0" type="line"/>
      <point x="368" y="376" type="line"/>
      <point x="496" y="0" type="line"/>
      <point x="555" y="0" type="line"/>
      <point x="712" y="485" type="line"/>
      <point x="639" y="485" type="line"/>
      <point x="533" y="136" type="line" smooth="yes"/>
      <point x="525" y="110"/>
      <point x="517" y="55"/>
      <point x="509" y="29" type="curve"/>
      <point x="538" y="29" type="line"/>
      <point x="529" y="55"/>
      <point x="521" y="110"/>
      <point x="512" y="136" type="curve" smooth="yes"/>
      <point x="394" y="485" type="line"/>
      <point x="341" y="485" type="line"/>
      <point x="224" y="136" type="line" smooth="yes"/>
      <point x="215" y="110"/>
      <point x="207" y="55"/>
      <point x="198" y="29" type="curve"/>
      <point x="227" y="29" type="line"/>
      <point x="219" y="55"/>
      <point x="211" y="112"/>
      <point x="203" y="138" type="curve" smooth="yes"/>
      <point x="96" y="485" type="line"/>
    </contour>
  </outline>
</glyph>
<glyph name="x" format="2">
  <advance width="490"/>
  <unicode hex="0078"/>
  <note>
x
</note>
  <outline>
    <contour>
      <point x="204" y="252" type="line"/>
      <point x="16" y="-6" type="line"/>
      <point x="96" y="-6" type="line"/>
      <point x="244" y="203" type="line"/>
      <point x="389" y="-6" type="line"/>
      <point x="475" y="-6" type="line"/>
      <point x="284" y="254" type="line"/>
      <point x="456" y="491" type="line"/>
      <point x="375" y="491" type="line"/>
      <point x="245" y="302" type="line"/>
      <point x="115" y="491" type="line"/>
      <point x="30" y="491" type="line"/>
    </contour>
  </outline>
</glyph>
<glyph name="y" format="2">
  <advance width="496"/>
  <unicode hex="0079"/>
  <note>
y
</note>
  <anchor x="238" y="482" name="top"/>
  <outline>
    <contour>
      <point x="14" y="485" type="line"/>
      <point x="225" y="-42" type="line"/>
      <point x="217" y="0" type="line"/>
      <point x="197" y="-45"/>
      <point x="182" y="-89"/>
      <point x="156" y="-134" type="curve" smooth="yes"/>
      <point x="144" y="-155"/>
      <point x="115" y="-163"/>
      <point x="80" y="-163" type="curve" smooth="yes"/>
      <point x="74" y="-163"/>
      <point x="68" y="-163"/>
      <point x="61" y="-162" type="curve"/>
      <point x="61" y="-223" type="line"/>
      <point x="76" y="-225"/>
      <point x="90" y="-227"/>
      <point x="104" y="-227" type="curve" smooth="yes"/>
      <point x="209" y="-227"/>
      <point x="224" y="-158"/>
      <point x="268" y="-49" type="curve" smooth="yes"/>
      <point x="482" y="485" type="line"/>
      <point x="408" y="485" type="line"/>
      <point x="282" y="163" type="line" smooth="yes"/>
      <point x="269" y="132"/>
      <point x="255" y="99"/>
      <point x="248" y="69" type="curve"/>
      <point x="239" y="104"/>
      <point x="224" y="140"/>
      <point x="209" y="175" type="curve" smooth="yes"/>
      <point x="88" y="485" type="line"/>
    </contour>
  </outline>
</glyph>
<glyph name="z" format="2">
  <advance width="446"/>
  <unicode hex="007A"/>
  <note>
z
</note>
  <anchor x="215" y="0" name="bottom"/>
  <anchor x="223" y="482" name="top"/>
  <anchor x="215" y="241" name="center"/>
  <outline>
    <contour>
      <point x="29" y="46" type="line"/>
      <point x="31" y="0" type="line"/>
      <point x="416" y="0" type="line"/>
      <point x="416" y="62" type="line"/>
      <point x="65" y="62" type="line"/>
      <point x="96" y="25" type="line"/>
      <point x="406" y="439" type="line"/>
      <point x="404" y="485" type="line"/>
      <point x="39" y="485" type="line"/>
      <point x="39" y="423" type="line"/>
      <point x="370" y="423" type="line"/>
      <point x="339" y="460" type="line"/>
    </contour>
  </outline>
</glyph>
<glyph name="braceleft" format="2">
  <advance width="321"/>
  <unicode hex="007B"/>
  <note>
braceleft
</note>
  <outline>
    <contour>
      <point x="217" y="-220" type="curve" smooth="yes"/>
      <point x="288" y="-220" type="line"/>
      <point x="288" y="-154" type="line"/>
      <point x="233" y="-154" type="line" smooth="yes"/>
      <point x="171" y="-154"/>
      <point x="148" y="-115"/>
      <point x="166" y="-54" type="curve" smooth="yes"/>
      <point x="205" y="76" type="line" smooth="yes"/>
      <point x="230" y="160"/>
      <point x="222" y="232"/>
      <point x="159" y="263" type="curve"/>
      <point x="222" y="294"/>
      <point x="230" y="366"/>
      <point x="205" y="450" type="curve" smooth="yes"/>
      <point x="166" y="581" type="line" smooth="yes"/>
      <point x="148" y="641"/>
      <point x="171" y="681"/>
      <point x="233" y="681" type="curve" smooth="yes"/>
      <point x="288" y="681" type="line"/>
      <point x="288" y="746" type="line"/>
      <point x="217" y="746" type="line" smooth="yes"/>
      <point x="106" y="746"/>
      <point x="60" y="676"/>
      <point x="91" y="568" type="curve" smooth="yes"/>
      <point x="129" y="440" type="line" smooth="yes"/>
      <point x="152" y="362"/>
      <point x="148" y="296"/>
      <point x="60" y="296" type="curve" smooth="yes"/>
      <point x="31" y="296" type="line"/>
      <point x="31" y="230" type="line"/>
      <point x="60" y="230" type="line" smooth="yes"/>
      <point x="147" y="230"/>
      <point x="152" y="164"/>
      <point x="129" y="86" type="curve" smooth="yes"/>
      <point x="91" y="-42" type="line" smooth="yes"/>
      <point x="60" y="-148"/>
      <point x="106" y="-220"/>
    </contour>
  </outline>
</glyph>
<glyph name="braceright" format="2">
  <advance width="321"/>
  <unicode hex="007D"/>
  <note>
braceright
</note>
  <outline>
    <contour>
      <point x="104" y="746" type="curve" smooth="yes"/>
      <point x="33" y="746" type="line"/>
      <point x="33" y="680" type="line"/>
      <point x="88" y="680" type="line" smooth="yes"/>
      <point x="150" y="680"/>
      <point x="173" y="641"/>
      <point x="155" y="580" type="curve" smooth="yes"/>
      <point x="116" y="450" type="line" smooth="yes"/>
      <point x="91" y="366"/>
      <point x="99" y="294"/>
      <point x="162" y="263" type="curve"/>
      <point x="99" y="232"/>
      <point x="91" y="160"/>
      <point x="116" y="76" type="curve" smooth="yes"/>
      <point x="155" y="-55" type="line" smooth="yes"/>
      <point x="173" y="-115"/>
      <point x="150" y="-155"/>
      <point x="88" y="-155" type="curve" smooth="yes"/>
      <point x="33" y="-155" type="line"/>
      <point x="33" y="-220" type="line"/>
      <point x="104" y="-220" type="line" smooth="yes"/>
      <point x="215" y="-220"/>
      <point x="261" y="-150"/>
      <point x="230" y="-42" type="curve" smooth="yes"/>
      <point x="192" y="86" type="line" smooth="yes"/>
      <point x="169" y="164"/>
      <point x="173" y="230"/>
      <point x="261" y="230" type="curve" smooth="yes"/>
      <point x="290" y="230" type="line"/>
      <point x="290" y="296" type="line"/>
      <point x="261" y="296" type="line" smooth="yes"/>
      <point x="174" y="296"/>
      <point x="169" y="362"/>
      <point x="192" y="440" type="curve" smooth="yes"/>
      <point x="230" y="568" type="line" smooth="yes"/>
      <point x="261" y="674"/>
      <point x="215" y="746"/>
    </contour>
  </outline>
</glyph>
<glyph name="guillemotleft" format="2">
  <advance width="469"/>
  <unicode hex="00AB"/>
  <note>
guillemotleft
</note>
  <outline>
    <contour>
      <point x="433" y="435" type="line"/>
      <point x="374" y="473" type="line"/>
      <point x="232" y="279" type="line"/>
      <point x="374" y="84" type="line"/>
      <point x="433" y="122" type="line"/>
      <point x="318" y="279" type="line"/>
    </contour>
    <contour>
      <point x="235" y="435" type="line"/>
      <point x="176" y="473" type="line"/>
      <point x="34" y="279" type="line"/>
      <point x="176" y="84" type="line"/>
      <point x="235" y="122" type="line"/>
      <point x="120" y="279" type="line"/>
    </contour>
  </outline>
</glyph>
<glyph name="periodcentered" format="2">
  <advance width="207"/>
  <unicode hex="00B7"/>
  <outline>
    <contour>
      <point x="103" y="223" type="curve" smooth="yes"/>
      <point x="124" y="223"/>
      <point x="177" y="272"/>
      <point x="177" y="295" type="curve" smooth="yes"/>
      <point x="177" y="317"/>
      <point x="128" y="370"/>
      <point x="105" y="370" type="curve" smooth="yes"/>
      <point x="83" y="370"/>
      <point x="30" y="320"/>
      <point x="30" y="297" type="curve" smooth="yes"/>
      <point x="30" y="275"/>
      <point x="80" y="223"/>
    </contour>
  </outline>
</glyph>
<glyph name="guillemotright" format="2">
  <advance width="469"/>
  <unicode hex="00BB"/>
  <note>
guillemotright
</note>
  <outline>
    <contour>
      <point x="36" y="125" type="line"/>
      <point x="95" y="87" type="line"/>
      <point x="237" y="281" type="line"/>
      <point x="95" y="476" type="line"/>
      <point x="36" y="438" type="line"/>
      <point x="151" y="282" type="line"/>
    </contour>
    <contour>
      <point x="233" y="125" type="line"/>
      <point x="292" y="87" type="line"/>
      <point x="434" y="281" type="line"/>
      <point x="292" y="476" type="line"/>
      <point x="233" y="438" type="line"/>
      <point x="348" y="282" type="line"/>
    </contour>
  </outline>
</glyph>
<glyph name="dotaccent" format="2">
  <advance width="251"/>
  <unicode hex="02D9"/>
  <outline>
    <contour>
      <point x="118" y="533" type="curve" smooth="yes"/>
      <point x="151" y="533"/>
      <point x="178" y="560"/>
      <point x="178" y="594" type="curve" smooth="yes"/>
      <point x="178" y="627"/>
      <point x="151" y="653"/>
      <point x="118" y="653" type="curve" smooth="yes"/>
      <point x="84" y="653"/>
      <point x="58" y="627"/>
      <point x="58" y="594" type="curve" smooth="yes"/>
      <point x="58" y="560"/>
      <point x="84" y="533"/>
    </contour>
  </outline>
</glyph>
<glyph name="zerowidthspace" format="2">
  <advance width="421"/>
  <unicode hex="200B"/>
  <outline>
    <contour>
      <point x="211" y="389" type="curve" smooth="yes"/>
      <point x="302" y="389"/>
      <point x="377" y="459"/>
      <point x="377" y="551" type="curve" smooth="yes"/>
      <point x="377" y="642"/>
      <point x="302" y="712"/>
      <point x="211" y="712" type="curve" smooth="yes"/>
      <point x="119" y="712"/>
      <point x="44" y="642"/>
      <point x="44" y="551" type="curve" smooth="yes"/>
      <point x="44" y="459"/>
      <point x="119" y="389"/>
    </contour>
    <contour>
      <point x="173" y="-50" type="line"/>
      <point x="248" y="-50" type="line"/>
      <point x="248" y="394" type="line"/>
      <point x="173" y="394" type="line"/>
    </contour>
    <contour>
      <point x="211" y="455" type="curve" smooth="yes"/>
      <point x="162" y="455"/>
      <point x="119" y="493"/>
      <point x="119" y="551" type="curve" smooth="yes"/>
      <point x="119" y="608"/>
      <point x="162" y="646"/>
      <point x="211" y="646" type="curve" smooth="yes"/>
      <point x="259" y="646"/>
      <point x="302" y="608"/>
      <point x="302" y="551" type="curve" smooth="yes"/>
      <point x="302" y="493"/>
      <point x="259" y="455"/>
    </contour>
    <contour>
      <point x="211" y="-346" type="curve" smooth="yes"/>
      <point x="302" y="-346"/>
      <point x="377" y="-276"/>
      <point x="377" y="-184" type="curve" smooth="yes"/>
      <point x="377" y="-93"/>
      <point x="302" y="-23"/>
      <point x="211" y="-23" type="curve" smooth="yes"/>
      <point x="119" y="-23"/>
      <point x="44" y="-93"/>
      <point x="44" y="-184" type="curve" smooth="yes"/>
      <point x="44" y="-276"/>
      <point x="119" y="-346"/>
    </contour>
    <contour>
      <point x="211" y="-280" type="curve" smooth="yes"/>
      <point x="162" y="-280"/>
      <point x="119" y="-242"/>
      <point x="119" y="-184" type="curve" smooth="yes"/>
      <point x="119" y="-127"/>
      <point x="162" y="-89"/>
      <point x="211" y="-89" type="curve" smooth="yes"/>
      <point x="259" y="-89"/>
      <point x="302" y="-127"/>
      <point x="302" y="-184" type="curve" smooth="yes"/>
      <point x="302" y="-242"/>
      <point x="259" y="-280"/>
    </contour>
  </outline>
</glyph>
<glyph name="zerowidthnonjoiner" format="2">
  <unicode hex="200C"/>
  <guideline x="529" y="712" angle="0"/>
  <outline>
    <contour>
      <point x="105" y="246" type="line"/>
      <point x="344" y="423" type="line"/>
      <point x="272" y="423" type="line"/>
      <point x="511" y="246" type="line"/>
      <point x="554" y="309" type="line"/>
      <point x="332" y="459" type="line"/>
      <point x="332" y="425" type="line"/>
      <point x="554" y="574" type="line"/>
      <point x="511" y="637" type="line"/>
      <point x="272" y="460" type="line"/>
      <point x="344" y="460" type="line"/>
      <point x="105" y="637" type="line"/>
      <point x="62" y="574" type="line"/>
      <point x="284" y="425" type="line"/>
      <point x="284" y="459" type="line"/>
      <point x="60" y="308" type="line"/>
    </contour>
    <contour>
      <point x="271" y="-339" type="line"/>
      <point x="346" y="-339" type="line"/>
      <point x="346" y="702" type="line"/>
      <point x="271" y="702" type="line"/>
    </contour>
  </outline>
</glyph>
<glyph name="endash" format="2">
  <advance width="600"/>
  <unicode hex="2013"/>
  <note>
endash
</note>
  <outline>
    <contour>
      <point x="76" y="313" type="line"/>
      <point x="76" y="247" type="line"/>
      <point x="524" y="247" type="line"/>
      <point x="524" y="313" type="line"/>
    </contour>
  </outline>
</glyph>
<glyph name="emdash" format="2">
  <advance width="841"/>
  <unicode hex="2014"/>
  <note>
emdash
</note>
  <outline>
    <contour>
      <point x="76" y="313" type="line"/>
      <point x="76" y="247" type="line"/>
      <point x="765" y="247" type="line"/>
      <point x="765" y="313" type="line"/>
    </contour>
  </outline>
</glyph>
<glyph name="quoteleft" format="2">
  <advance width="230"/>
  <unicode hex="2018"/>
  <note>
quoteleft
</note>
  <outline>
    <contour>
      <point x="81" y="446" type="curve"/>
      <point x="156" y="446" type="line"/>
      <point x="128" y="547"/>
      <point x="143" y="620"/>
      <point x="181" y="688" type="curve"/>
      <point x="116" y="718" type="line"/>
      <point x="71" y="643"/>
      <point x="50" y="557"/>
    </contour>
  </outline>
</glyph>
<glyph name="quoteright" format="2">
  <advance width="230"/>
  <unicode hex="2019"/>
  <note>
quoteright
</note>
  <outline>
    <contour>
      <point x="151" y="716" type="curve"/>
      <point x="76" y="716" type="line"/>
      <point x="102" y="622"/>
      <point x="86" y="552"/>
      <point x="49" y="486" type="curve"/>
      <point x="114" y="456" type="line"/>
      <point x="158" y="528"/>
      <point x="179" y="610"/>
    </contour>
  </outline>
</glyph>
<glyph name="quotesinglbase" format="2">
  <advance width="230"/>
  <unicode hex="201A"/>
  <note>
quotesinglbase
</note>
  <outline>
    <contour>
      <point x="151" y="56" type="curve"/>
      <point x="79" y="43" type="line"/>
      <point x="100" y="-41"/>
      <point x="84" y="-103"/>
      <point x="49" y="-163" type="curve"/>
      <point x="114" y="-191" type="line"/>
      <point x="158" y="-123"/>
      <point x="179" y="-44"/>
    </contour>
  </outline>
</glyph>
<glyph name="quotedblleft" format="2">
  <advance width="367"/>
  <unicode hex="201C"/>
  <note>
quotedblleft
</note>
  <outline>
    <contour>
      <point x="82" y="437" type="curve"/>
      <point x="157" y="437" type="line"/>
      <point x="127" y="542"/>
      <point x="144" y="616"/>
      <point x="181" y="687" type="curve"/>
      <point x="116" y="718" type="line"/>
      <point x="71" y="641"/>
      <point x="50" y="551"/>
    </contour>
    <contour>
      <point x="219" y="437" type="curve"/>
      <point x="294" y="437" type="line"/>
      <point x="264" y="542"/>
      <point x="281" y="616"/>
      <point x="318" y="687" type="curve"/>
      <point x="253" y="718" type="line"/>
      <point x="208" y="641"/>
      <point x="187" y="551"/>
    </contour>
  </outline>
</glyph>
<glyph name="quotedblright" format="2">
  <advance width="367"/>
  <unicode hex="201D"/>
  <note>
quotedblright
</note>
  <outline>
    <contour>
      <point x="151" y="716" type="curve"/>
      <point x="76" y="716" type="line"/>
      <point x="102" y="621"/>
      <point x="86" y="551"/>
      <point x="49" y="484" type="curve"/>
      <point x="114" y="454" type="line"/>
      <point x="158" y="526"/>
      <point x="179" y="610"/>
    </contour>
    <contour>
      <point x="288" y="716" type="curve"/>
      <point x="213" y="716" type="line"/>
      <point x="239" y="621"/>
      <point x="223" y="551"/>
      <point x="186" y="484" type="curve"/>
      <point x="251" y="454" type="line"/>
      <point x="295" y="526"/>
      <point x="316" y="610"/>
    </contour>
  </outline>
</glyph>
<glyph name="quotedblbase" format="2">
  <advance width="367"/>
  <unicode hex="201E"/>
  <note>
quotedblbase
</note>
  <outline>
    <contour>
      <point x="151" y="56" type="curve"/>
      <point x="79" y="43" type="line"/>
      <point x="100" y="-41"/>
      <point x="84" y="-103"/>
      <point x="49" y="-163" type="curve"/>
      <point x="114" y="-191" type="line"/>
      <point x="158" y="-123"/>
      <point x="179" y="-44"/>
    </contour>
    <contour>
      <point x="288" y="56" type="curve"/>
      <point x="216" y="43" type="line"/>
      <point x="237" y="-41"/>
      <point x="221" y="-103"/>
      <point x="186" y="-163" type="curve"/>
      <point x="251" y="-191" type="line"/>
      <point x="295" y="-123"/>
      <point x="316" y="-44"/>
    </contour>
  </outline>
</glyph>
<glyph name="ellipsis" format="2">
  <advance width="800"/>
  <unicode hex="2026"/>
  <outline>
    <contour>
      <point x="660" y="-20" type="curve" smooth="yes"/>
      <point x="681" y="-20"/>
      <point x="734" y="29"/>
      <point x="734" y="52" type="curve" smooth="yes"/>
      <point x="734" y="74"/>
      <point x="685" y="127"/>
      <point x="662" y="127" type="curve" smooth="yes"/>
      <point x="640" y="127"/>
      <point x="587" y="77"/>
      <point x="587" y="54" type="curve" smooth="yes"/>
      <point x="587" y="32"/>
      <point x="637" y="-20"/>
    </contour>
    <contour>
      <point x="115" y="-20" type="curve" smooth="yes"/>
      <point x="136" y="-20"/>
      <point x="189" y="29"/>
      <point x="189" y="52" type="curve" smooth="yes"/>
      <point x="189" y="74"/>
      <point x="140" y="127"/>
      <point x="117" y="127" type="curve" smooth="yes"/>
      <point x="95" y="127"/>
      <point x="42" y="77"/>
      <point x="42" y="54" type="curve" smooth="yes"/>
      <point x="42" y="32"/>
      <point x="92" y="-20"/>
    </contour>
    <contour>
      <point x="387" y="-20" type="curve" smooth="yes"/>
      <point x="408" y="-20"/>
      <point x="461" y="29"/>
      <point x="461" y="52" type="curve" smooth="yes"/>
      <point x="461" y="74"/>
      <point x="412" y="127"/>
      <point x="389" y="127" type="curve" smooth="yes"/>
      <point x="367" y="127"/>
      <point x="314" y="77"/>
      <point x="314" y="54" type="curve" smooth="yes"/>
      <point x="314" y="32"/>
      <point x="364" y="-20"/>
    </contour>
  </outline>
</glyph>
<glyph name="guilsinglleft" format="2">
  <advance width="272"/>
  <unicode hex="2039"/>
  <note>
guilsinglleft
</note>
  <outline>
    <contour>
      <point x="236" y="438" type="line"/>
      <point x="177" y="476" type="line"/>
      <point x="35" y="282" type="line"/>
      <point x="177" y="87" type="line"/>
      <point x="236" y="125" type="line"/>
      <point x="121" y="282" type="line"/>
    </contour>
  </outline>
</glyph>
<glyph name="guilsinglright" format="2">
  <advance width="272"/>
  <unicode hex="203A"/>
  <note>
guilsinglright
</note>
  <outline>
    <contour>
      <point x="36" y="125" type="line"/>
      <point x="95" y="87" type="line"/>
      <point x="237" y="281" type="line"/>
      <point x="95" y="476" type="line"/>
      <point x="36" y="438" type="line"/>
      <point x="151" y="282" type="line"/>
    </contour>
  </outline>
</glyph>
<glyph name="flowerpunctuationmark" format="2">
  <advance width="1533"/>
  <unicode hex="2055"/>
  <outline>
    <contour>
      <point x="710" y="436" type="curve" smooth="yes"/>
      <point x="777" y="436"/>
      <point x="827" y="483"/>
      <point x="827" y="546" type="curve" smooth="yes"/>
      <point x="827" y="611"/>
      <point x="777" y="677"/>
      <point x="710" y="717" type="curve"/>
      <point x="647" y="677"/>
      <point x="595" y="609"/>
      <point x="595" y="545" type="curve" smooth="yes"/>
      <point x="595" y="482"/>
      <point x="647" y="436"/>
    </contour>
    <contour>
      <point x="228" y="-261" type="curve"/>
      <point x="407" y="-82" type="line"/>
      <point x="407" y="-68"/>
      <point x="379" y="-39"/>
      <point x="365" y="-39" type="curve"/>
      <point x="186" y="-218" type="line"/>
      <point x="186" y="-232"/>
      <point x="214" y="-261"/>
    </contour>
    <contour>
      <point x="678" y="-450" type="line"/>
      <point x="688" y="-460"/>
      <point x="728" y="-460"/>
      <point x="738" y="-450" type="curve"/>
      <point x="738" y="-135" type="line"/>
      <point x="678" y="-135" type="line"/>
    </contour>
    <contour>
      <point x="7" y="230" type="curve"/>
      <point x="322" y="230" type="line"/>
      <point x="322" y="290" type="line"/>
      <point x="7" y="290" type="line"/>
      <point x="-3" y="280"/>
      <point x="-3" y="240"/>
    </contour>
    <contour>
      <point x="498" y="-39" type="curve" smooth="yes"/>
      <point x="542" y="-39"/>
      <point x="578" y="-3"/>
      <point x="578" y="41" type="curve" smooth="yes"/>
      <point x="578" y="85"/>
      <point x="542" y="121"/>
      <point x="498" y="121" type="curve" smooth="yes"/>
      <point x="454" y="121"/>
      <point x="418" y="85"/>
      <point x="418" y="41" type="curve" smooth="yes"/>
      <point x="418" y="-3"/>
      <point x="454" y="-39"/>
    </contour>
    <contour>
      <point x="498" y="10" type="curve" smooth="yes"/>
      <point x="481" y="10"/>
      <point x="467" y="24"/>
      <point x="467" y="41" type="curve" smooth="yes"/>
      <point x="467" y="58"/>
      <point x="481" y="72"/>
      <point x="498" y="72" type="curve" smooth="yes"/>
      <point x="515" y="72"/>
      <point x="529" y="58"/>
      <point x="529" y="41" type="curve" smooth="yes"/>
      <point x="529" y="24"/>
      <point x="515" y="10"/>
    </contour>
    <contour>
      <point x="712" y="-197" type="curve"/>
      <point x="775" y="-157"/>
      <point x="827" y="-89"/>
      <point x="827" y="-25" type="curve" smooth="yes"/>
      <point x="827" y="38"/>
      <point x="775" y="84"/>
      <point x="712" y="84" type="curve" smooth="yes"/>
      <point x="645" y="84"/>
      <point x="595" y="37"/>
      <point x="595" y="-26" type="curve" smooth="yes"/>
      <point x="595" y="-91"/>
      <point x="645" y="-157"/>
    </contour>
    <contour>
      <point x="710" y="-134" type="curve"/>
      <point x="675" y="-104"/>
      <point x="647" y="-57"/>
      <point x="647" y="-26" type="curve" smooth="yes"/>
      <point x="647" y="6"/>
      <point x="675" y="31"/>
      <point x="710" y="31" type="curve" smooth="yes"/>
      <point x="743" y="31"/>
      <point x="775" y="6"/>
      <point x="775" y="-26" type="curve" smooth="yes"/>
      <point x="775" y="-58"/>
      <point x="744" y="-104"/>
    </contour>
    <contour>
      <point x="432" y="144" type="curve" smooth="yes"/>
      <point x="495" y="144"/>
      <point x="541" y="196"/>
      <point x="541" y="259" type="curve" smooth="yes"/>
      <point x="541" y="326"/>
      <point x="494" y="376"/>
      <point x="431" y="376" type="curve" smooth="yes"/>
      <point x="366" y="376"/>
      <point x="300" y="326"/>
      <point x="260" y="259" type="curve"/>
      <point x="300" y="196"/>
      <point x="368" y="144"/>
    </contour>
    <contour>
      <point x="431" y="196" type="curve" smooth="yes"/>
      <point x="399" y="196"/>
      <point x="353" y="227"/>
      <point x="323" y="261" type="curve"/>
      <point x="353" y="296"/>
      <point x="400" y="324"/>
      <point x="431" y="324" type="curve" smooth="yes"/>
      <point x="463" y="324"/>
      <point x="488" y="296"/>
      <point x="488" y="261" type="curve" smooth="yes"/>
      <point x="488" y="228"/>
      <point x="463" y="196"/>
    </contour>
    <contour>
      <point x="925" y="-39" type="curve" smooth="yes"/>
      <point x="969" y="-39"/>
      <point x="1005" y="-3"/>
      <point x="1005" y="41" type="curve" smooth="yes"/>
      <point x="1005" y="85"/>
      <point x="969" y="121"/>
      <point x="925" y="121" type="curve" smooth="yes"/>
      <point x="881" y="121"/>
      <point x="845" y="85"/>
      <point x="845" y="41" type="curve" smooth="yes"/>
      <point x="845" y="-3"/>
      <point x="881" y="-39"/>
    </contour>
    <contour>
      <point x="925" y="10" type="curve" smooth="yes"/>
      <point x="908" y="10"/>
      <point x="894" y="24"/>
      <point x="894" y="41" type="curve" smooth="yes"/>
      <point x="894" y="58"/>
      <point x="908" y="72"/>
      <point x="925" y="72" type="curve" smooth="yes"/>
      <point x="942" y="72"/>
      <point x="956" y="58"/>
      <point x="956" y="41" type="curve" smooth="yes"/>
      <point x="956" y="24"/>
      <point x="942" y="10"/>
    </contour>
    <contour>
      <point x="192" y="737" type="curve"/>
      <point x="371" y="558" type="line"/>
      <point x="385" y="558"/>
      <point x="413" y="586"/>
      <point x="413" y="600" type="curve"/>
      <point x="235" y="779" type="line"/>
      <point x="220" y="779"/>
      <point x="192" y="751"/>
    </contour>
    <contour>
      <point x="711" y="144" type="curve" smooth="yes"/>
      <point x="776" y="144"/>
      <point x="822" y="194"/>
      <point x="822" y="261" type="curve" smooth="yes"/>
      <point x="822" y="324"/>
      <point x="774" y="376"/>
      <point x="710" y="376" type="curve" smooth="yes"/>
      <point x="647" y="376"/>
      <point x="601" y="324"/>
      <point x="601" y="261" type="curve" smooth="yes"/>
      <point x="601" y="194"/>
      <point x="648" y="144"/>
    </contour>
    <contour>
      <point x="711" y="196" type="curve" smooth="yes"/>
      <point x="679" y="196"/>
      <point x="654" y="224"/>
      <point x="654" y="259" type="curve" smooth="yes"/>
      <point x="654" y="292"/>
      <point x="679" y="324"/>
      <point x="711" y="324" type="curve" smooth="yes"/>
      <point x="743" y="324"/>
      <point x="769" y="293"/>
      <point x="769" y="259" type="curve" smooth="yes"/>
      <point x="769" y="224"/>
      <point x="742" y="196"/>
    </contour>
    <contour>
      <point x="1010" y="-80" type="curve"/>
      <point x="1188" y="-259" type="line"/>
      <point x="1203" y="-259"/>
      <point x="1231" y="-231"/>
      <point x="1231" y="-217" type="curve"/>
      <point x="1052" y="-38" type="line"/>
      <point x="1038" y="-38"/>
      <point x="1010" y="-66"/>
    </contour>
    <contour>
      <point x="498" y="399" type="curve" smooth="yes"/>
      <point x="542" y="399"/>
      <point x="578" y="435"/>
      <point x="578" y="479" type="curve" smooth="yes"/>
      <point x="578" y="523"/>
      <point x="542" y="559"/>
      <point x="498" y="559" type="curve" smooth="yes"/>
      <point x="454" y="559"/>
      <point x="418" y="523"/>
      <point x="418" y="479" type="curve" smooth="yes"/>
      <point x="418" y="435"/>
      <point x="454" y="399"/>
    </contour>
    <contour>
      <point x="498" y="448" type="curve" smooth="yes"/>
      <point x="481" y="448"/>
      <point x="467" y="462"/>
      <point x="467" y="479" type="curve" smooth="yes"/>
      <point x="467" y="496"/>
      <point x="481" y="510"/>
      <point x="498" y="510" type="curve" smooth="yes"/>
      <point x="515" y="510"/>
      <point x="529" y="496"/>
      <point x="529" y="479" type="curve" smooth="yes"/>
      <point x="529" y="462"/>
      <point x="515" y="448"/>
    </contour>
    <contour>
      <point x="992" y="196" type="curve" smooth="yes"/>
      <point x="960" y="196"/>
      <point x="935" y="224"/>
      <point x="935" y="259" type="curve" smooth="yes"/>
      <point x="935" y="292"/>
      <point x="960" y="324"/>
      <point x="992" y="324" type="curve" smooth="yes"/>
      <point x="1024" y="324"/>
      <point x="1070" y="293"/>
      <point x="1100" y="259" type="curve"/>
      <point x="1070" y="224"/>
      <point x="1023" y="196"/>
    </contour>
    <contour>
      <point x="992" y="144" type="curve" smooth="yes"/>
      <point x="1057" y="144"/>
      <point x="1123" y="194"/>
      <point x="1163" y="261" type="curve"/>
      <point x="1123" y="324"/>
      <point x="1055" y="376"/>
      <point x="991" y="376" type="curve" smooth="yes"/>
      <point x="928" y="376"/>
      <point x="882" y="324"/>
      <point x="882" y="261" type="curve" smooth="yes"/>
      <point x="882" y="194"/>
      <point x="929" y="144"/>
    </contour>
    <contour>
      <point x="712" y="489" type="curve" smooth="yes"/>
      <point x="679" y="489"/>
      <point x="647" y="514"/>
      <point x="647" y="546" type="curve" smooth="yes"/>
      <point x="647" y="578"/>
      <point x="678" y="624"/>
      <point x="712" y="654" type="curve"/>
      <point x="747" y="624"/>
      <point x="775" y="577"/>
      <point x="775" y="546" type="curve" smooth="yes"/>
      <point x="775" y="514"/>
      <point x="747" y="489"/>
    </contour>
    <contour>
      <point x="925" y="399" type="curve" smooth="yes"/>
      <point x="969" y="399"/>
      <point x="1005" y="435"/>
      <point x="1005" y="479" type="curve" smooth="yes"/>
      <point x="1005" y="523"/>
      <point x="969" y="559"/>
      <point x="925" y="559" type="curve" smooth="yes"/>
      <point x="881" y="559"/>
      <point x="845" y="523"/>
      <point x="845" y="479" type="curve" smooth="yes"/>
      <point x="845" y="435"/>
      <point x="881" y="399"/>
    </contour>
    <contour>
      <point x="925" y="448" type="curve" smooth="yes"/>
      <point x="908" y="448"/>
      <point x="894" y="462"/>
      <point x="894" y="479" type="curve" smooth="yes"/>
      <point x="894" y="496"/>
      <point x="908" y="510"/>
      <point x="925" y="510" type="curve" smooth="yes"/>
      <point x="942" y="510"/>
      <point x="956" y="496"/>
      <point x="956" y="479" type="curve" smooth="yes"/>
      <point x="956" y="462"/>
      <point x="942" y="448"/>
    </contour>
    <contour>
      <point x="1101" y="230" type="line"/>
      <point x="1416" y="230" type="line"/>
      <point x="1426" y="240"/>
      <point x="1426" y="280"/>
      <point x="1416" y="290" type="curve"/>
      <point x="1101" y="290" type="line"/>
    </contour>
    <contour>
      <point x="684" y="970" type="curve"/>
      <point x="684" y="655" type="line"/>
      <point x="744" y="655" type="line"/>
      <point x="744" y="970" type="line"/>
      <point x="734" y="980"/>
      <point x="694" y="980"/>
    </contour>
    <contour>
      <point x="1056" y="562" type="curve"/>
      <point x="1234" y="741" type="line"/>
      <point x="1234" y="755"/>
      <point x="1206" y="784"/>
      <point x="1192" y="784" type="curve"/>
      <point x="1013" y="605" type="line"/>
      <point x="1013" y="591"/>
      <point x="1041" y="562"/>
    </contour>
  </outline>
</glyph>
<glyph name="numero" format="2">
  <advance width="929"/>
  <unicode hex="2116"/>
  <outline>
    <contour>
      <point x="404" y="5" type="curve"/>
      <point x="426" y="3"/>
      <point x="480" y="18"/>
      <point x="493" y="34" type="curve"/>
      <point x="496" y="169"/>
      <point x="493" y="532"/>
      <point x="496" y="590" type="curve" smooth="yes"/>
      <point x="498" y="630"/>
      <point x="516" y="631"/>
      <point x="555" y="631" type="curve" smooth="yes"/>
      <point x="572" y="631" type="line"/>
      <point x="574" y="643"/>
      <point x="574" y="655"/>
      <point x="572" y="667" type="curve"/>
      <point x="496" y="664"/>
      <point x="432" y="664"/>
      <point x="356" y="667" type="curve"/>
      <point x="354" y="655"/>
      <point x="354" y="643"/>
      <point x="356" y="631" type="curve"/>
      <point x="374" y="631" type="line" smooth="yes"/>
      <point x="411" y="631"/>
      <point x="430" y="630"/>
      <point x="432" y="590" type="curve" smooth="yes"/>
      <point x="434" y="547"/>
      <point x="436" y="308"/>
      <point x="436" y="140" type="curve"/>
      <point x="361" y="271"/>
      <point x="249" y="555"/>
      <point x="194" y="667" type="curve"/>
      <point x="152" y="664"/>
      <point x="76" y="664"/>
      <point x="22" y="666" type="curve"/>
      <point x="19" y="654"/>
      <point x="19" y="641"/>
      <point x="22" y="629" type="curve"/>
      <point x="37" y="629" type="line" smooth="yes"/>
      <point x="83" y="629"/>
      <point x="119" y="604"/>
      <point x="119" y="572" type="curve" smooth="yes"/>
      <point x="120" y="419"/>
      <point x="118" y="155"/>
      <point x="115" y="90" type="curve" smooth="yes"/>
      <point x="113" y="50"/>
      <point x="94" y="49"/>
      <point x="57" y="49" type="curve" smooth="yes"/>
      <point x="39" y="49" type="line"/>
      <point x="37" y="37"/>
      <point x="37" y="25"/>
      <point x="39" y="13" type="curve"/>
      <point x="115" y="16"/>
      <point x="180" y="16"/>
      <point x="256" y="13" type="curve"/>
      <point x="258" y="25"/>
      <point x="258" y="37"/>
      <point x="256" y="49" type="curve"/>
      <point x="239" y="49" type="line" smooth="yes"/>
      <point x="200" y="49"/>
      <point x="182" y="50"/>
      <point x="180" y="90" type="curve" smooth="yes"/>
      <point x="177" y="157"/>
      <point x="176" y="299"/>
      <point x="174" y="508" type="curve"/>
      <point x="214" y="404"/>
      <point x="337" y="105"/>
    </contour>
    <contour>
      <point x="580" y="0" type="curve"/>
      <point x="859" y="0" type="line"/>
      <point x="869" y="15"/>
      <point x="874" y="33"/>
      <point x="876" y="56" type="curve"/>
      <point x="597" y="56" type="line"/>
      <point x="587" y="40"/>
      <point x="582" y="22"/>
    </contour>
    <contour>
      <point x="715" y="121" type="curve" smooth="yes"/>
      <point x="800" y="121"/>
      <point x="896" y="177"/>
      <point x="896" y="321" type="curve" smooth="yes"/>
      <point x="896" y="413"/>
      <point x="837" y="500"/>
      <point x="746" y="500" type="curve" smooth="yes"/>
      <point x="661" y="500"/>
      <point x="567" y="429"/>
      <point x="567" y="293" type="curve" smooth="yes"/>
      <point x="567" y="200"/>
      <point x="625" y="121"/>
    </contour>
    <contour>
      <point x="734" y="159" type="curve" smooth="yes"/>
      <point x="688" y="164"/>
      <point x="654" y="234"/>
      <point x="657" y="342" type="curve" smooth="yes"/>
      <point x="659" y="420"/>
      <point x="692" y="460"/>
      <point x="731" y="458" type="curve"/>
      <point x="779" y="453"/>
      <point x="807" y="383"/>
      <point x="804" y="284" type="curve" smooth="yes"/>
      <point x="801" y="185"/>
      <point x="768" y="156"/>
    </contour>
  </outline>
</glyph>
<glyph name="arrowleft" format="2">
  <advance width="900"/>
  <unicode hex="2190"/>
  <note>
arrowleft
</note>
  <outline>
    <contour>
      <point x="18" y="354" type="line"/>
      <point x="400" y="-30" type="line"/>
      <point x="448" y="21" type="line"/>
      <point x="152" y="318" type="line"/>
      <point x="878" y="318" type="line"/>
      <point x="878" y="390" type="line"/>
      <point x="152" y="390" type="line"/>
      <point x="448" y="687" type="line"/>
      <point x="400" y="735" type="line"/>
    </contour>
  </outline>
</glyph>
<glyph name="arrowright" format="2">
  <advance width="900"/>
  <unicode hex="2192"/>
  <note>
arrowright
</note>
  <outline>
    <contour>
      <point x="454" y="21" type="line"/>
      <point x="502" y="-30" type="line"/>
      <point x="884" y="354" type="line"/>
      <point x="502" y="735" type="line"/>
      <point x="454" y="687" type="line"/>
      <point x="750" y="390" type="line"/>
      <point x="24" y="390" type="line"/>
      <point x="24" y="318" type="line"/>
      <point x="750" y="318" type="line"/>
    </contour>
  </outline>
</glyph>
<glyph name="dottedCircle" format="2">
  <advance width="661"/>
  <unicode hex="25CC"/>
  <outline>
    <contour>
      <point x="331" y="0" type="curve" smooth="yes"/>
      <point x="345" y="0"/>
      <point x="356" y="11"/>
      <point x="356" y="26" type="curve" smooth="yes"/>
      <point x="356" y="40"/>
      <point x="345" y="51"/>
      <point x="331" y="51" type="curve" smooth="yes"/>
      <point x="316" y="51"/>
      <point x="305" y="40"/>
      <point x="305" y="26" type="curve" smooth="yes"/>
      <point x="305" y="11"/>
      <point x="316" y="0"/>
    </contour>
    <contour>
      <point x="430" y="20" type="curve" smooth="yes"/>
      <point x="444" y="20"/>
      <point x="455" y="31"/>
      <point x="455" y="46" type="curve" smooth="yes"/>
      <point x="455" y="60"/>
      <point x="444" y="71"/>
      <point x="430" y="71" type="curve" smooth="yes"/>
      <point x="415" y="71"/>
      <point x="404" y="60"/>
      <point x="404" y="46" type="curve" smooth="yes"/>
      <point x="404" y="31"/>
      <point x="415" y="20"/>
    </contour>
    <contour>
      <point x="232" y="20" type="curve" smooth="yes"/>
      <point x="246" y="20"/>
      <point x="257" y="31"/>
      <point x="257" y="46" type="curve" smooth="yes"/>
      <point x="257" y="60"/>
      <point x="246" y="71"/>
      <point x="232" y="71" type="curve" smooth="yes"/>
      <point x="217" y="71"/>
      <point x="206" y="60"/>
      <point x="206" y="46" type="curve" smooth="yes"/>
      <point x="206" y="31"/>
      <point x="217" y="20"/>
    </contour>
    <contour>
      <point x="147" y="77" type="curve" smooth="yes"/>
      <point x="161" y="77"/>
      <point x="172" y="88"/>
      <point x="172" y="103" type="curve" smooth="yes"/>
      <point x="172" y="117"/>
      <point x="161" y="128"/>
      <point x="147" y="128" type="curve" smooth="yes"/>
      <point x="132" y="128"/>
      <point x="121" y="117"/>
      <point x="121" y="103" type="curve" smooth="yes"/>
      <point x="121" y="88"/>
      <point x="132" y="77"/>
    </contour>
    <contour>
      <point x="515" y="77" type="curve" smooth="yes"/>
      <point x="529" y="77"/>
      <point x="540" y="88"/>
      <point x="540" y="103" type="curve" smooth="yes"/>
      <point x="540" y="117"/>
      <point x="529" y="128"/>
      <point x="515" y="128" type="curve" smooth="yes"/>
      <point x="500" y="128"/>
      <point x="489" y="117"/>
      <point x="489" y="103" type="curve" smooth="yes"/>
      <point x="489" y="88"/>
      <point x="500" y="77"/>
    </contour>
    <contour>
      <point x="571" y="161" type="curve" smooth="yes"/>
      <point x="585" y="161"/>
      <point x="596" y="172"/>
      <point x="596" y="187" type="curve" smooth="yes"/>
      <point x="596" y="201"/>
      <point x="585" y="212"/>
      <point x="571" y="212" type="curve" smooth="yes"/>
      <point x="556" y="212"/>
      <point x="545" y="201"/>
      <point x="545" y="187" type="curve" smooth="yes"/>
      <point x="545" y="172"/>
      <point x="556" y="161"/>
    </contour>
    <contour>
      <point x="91" y="161" type="curve" smooth="yes"/>
      <point x="105" y="161"/>
      <point x="116" y="172"/>
      <point x="116" y="187" type="curve" smooth="yes"/>
      <point x="116" y="201"/>
      <point x="105" y="212"/>
      <point x="91" y="212" type="curve" smooth="yes"/>
      <point x="76" y="212"/>
      <point x="65" y="201"/>
      <point x="65" y="187" type="curve" smooth="yes"/>
      <point x="65" y="172"/>
      <point x="76" y="161"/>
    </contour>
    <contour>
      <point x="70" y="261" type="curve" smooth="yes"/>
      <point x="84" y="261"/>
      <point x="95" y="272"/>
      <point x="95" y="287" type="curve" smooth="yes"/>
      <point x="95" y="301"/>
      <point x="84" y="312"/>
      <point x="70" y="312" type="curve" smooth="yes"/>
      <point x="55" y="312"/>
      <point x="44" y="301"/>
      <point x="44" y="287" type="curve" smooth="yes"/>
      <point x="44" y="272"/>
      <point x="55" y="261"/>
    </contour>
    <contour>
      <point x="331" y="573" type="curve" smooth="yes"/>
      <point x="316" y="573"/>
      <point x="305" y="562"/>
      <point x="305" y="547" type="curve" smooth="yes"/>
      <point x="305" y="533"/>
      <point x="316" y="522"/>
      <point x="331" y="522" type="curve" smooth="yes"/>
      <point x="345" y="522"/>
      <point x="356" y="533"/>
      <point x="356" y="547" type="curve" smooth="yes"/>
      <point x="356" y="562"/>
      <point x="345" y="573"/>
    </contour>
    <contour>
      <point x="430" y="553" type="curve" smooth="yes"/>
      <point x="415" y="553"/>
      <point x="404" y="542"/>
      <point x="404" y="527" type="curve" smooth="yes"/>
      <point x="404" y="513"/>
      <point x="415" y="502"/>
      <point x="430" y="502" type="curve" smooth="yes"/>
      <point x="444" y="502"/>
      <point x="455" y="513"/>
      <point x="455" y="527" type="curve" smooth="yes"/>
      <point x="455" y="542"/>
      <point x="444" y="553"/>
    </contour>
    <contour>
      <point x="232" y="553" type="curve" smooth="yes"/>
      <point x="217" y="553"/>
      <point x="206" y="542"/>
      <point x="206" y="527" type="curve" smooth="yes"/>
      <point x="206" y="513"/>
      <point x="217" y="502"/>
      <point x="232" y="502" type="curve" smooth="yes"/>
      <point x="246" y="502"/>
      <point x="257" y="513"/>
      <point x="257" y="527" type="curve" smooth="yes"/>
      <point x="257" y="542"/>
      <point x="246" y="553"/>
    </contour>
    <contour>
      <point x="147" y="496" type="curve" smooth="yes"/>
      <point x="132" y="496"/>
      <point x="121" y="485"/>
      <point x="121" y="470" type="curve" smooth="yes"/>
      <point x="121" y="456"/>
      <point x="132" y="445"/>
      <point x="147" y="445" type="curve" smooth="yes"/>
      <point x="161" y="445"/>
      <point x="172" y="456"/>
      <point x="172" y="470" type="curve" smooth="yes"/>
      <point x="172" y="485"/>
      <point x="161" y="496"/>
    </contour>
    <contour>
      <point x="515" y="496" type="curve" smooth="yes"/>
      <point x="500" y="496"/>
      <point x="489" y="485"/>
      <point x="489" y="470" type="curve" smooth="yes"/>
      <point x="489" y="456"/>
      <point x="500" y="445"/>
      <point x="515" y="445" type="curve" smooth="yes"/>
      <point x="529" y="445"/>
      <point x="540" y="456"/>
      <point x="540" y="470" type="curve" smooth="yes"/>
      <point x="540" y="485"/>
      <point x="529" y="496"/>
    </contour>
    <contour>
      <point x="571" y="412" type="curve" smooth="yes"/>
      <point x="556" y="412"/>
      <point x="545" y="401"/>
      <point x="545" y="386" type="curve" smooth="yes"/>
      <point x="545" y="372"/>
      <point x="556" y="361"/>
      <point x="571" y="361" type="curve" smooth="yes"/>
      <point x="585" y="361"/>
      <point x="596" y="372"/>
      <point x="596" y="386" type="curve" smooth="yes"/>
      <point x="596" y="401"/>
      <point x="585" y="412"/>
    </contour>
    <contour>
      <point x="91" y="412" type="curve" smooth="yes"/>
      <point x="76" y="412"/>
      <point x="65" y="401"/>
      <point x="65" y="386" type="curve" smooth="yes"/>
      <point x="65" y="372"/>
      <point x="76" y="361"/>
      <point x="91" y="361" type="curve" smooth="yes"/>
      <point x="105" y="361"/>
      <point x="116" y="372"/>
      <point x="116" y="386" type="curve" smooth="yes"/>
      <point x="116" y="401"/>
      <point x="105" y="412"/>
    </contour>
    <contour>
      <point x="592" y="312" type="curve" smooth="yes"/>
      <point x="577" y="312"/>
      <point x="566" y="301"/>
      <point x="566" y="286" type="curve" smooth="yes"/>
      <point x="566" y="272"/>
      <point x="577" y="261"/>
      <point x="592" y="261" type="curve" smooth="yes"/>
      <point x="606" y="261"/>
      <point x="617" y="272"/>
      <point x="617" y="286" type="curve" smooth="yes"/>
      <point x="617" y="301"/>
      <point x="606" y="312"/>
    </contour>
  </outline>
</glyph>
<glyph name="dottedSquare" format="2">
  <advance width="1235"/>
  <unicode hex="2B1A"/>
  <outline>
    <contour>
      <point x="144" y="131" type="line"/>
      <point x="110" y="131" type="line"/>
      <point x="110" y="230" type="line"/>
      <point x="144" y="230" type="line"/>
    </contour>
    <contour>
      <point x="144" y="294" type="line"/>
      <point x="110" y="294" type="line"/>
      <point x="110" y="393" type="line"/>
      <point x="144" y="393" type="line"/>
    </contour>
    <contour>
      <point x="144" y="458" type="line"/>
      <point x="110" y="458" type="line"/>
      <point x="110" y="557" type="line"/>
      <point x="144" y="557" type="line"/>
    </contour>
    <contour>
      <point x="144" y="621" type="line"/>
      <point x="110" y="621" type="line"/>
      <point x="110" y="720" type="line"/>
      <point x="144" y="720" type="line"/>
    </contour>
    <contour>
      <point x="144" y="785" type="line"/>
      <point x="110" y="785" type="line"/>
      <point x="110" y="884" type="line"/>
      <point x="144" y="884" type="line"/>
    </contour>
    <contour>
      <point x="994" y="0" type="line"/>
      <point x="895" y="0" type="line"/>
      <point x="895" y="34" type="line"/>
      <point x="994" y="34" type="line"/>
    </contour>
    <contour>
      <point x="830" y="0" type="line"/>
      <point x="731" y="0" type="line"/>
      <point x="731" y="34" type="line"/>
      <point x="830" y="34" type="line"/>
    </contour>
    <contour>
      <point x="667" y="0" type="line"/>
      <point x="568" y="0" type="line"/>
      <point x="568" y="34" type="line"/>
      <point x="667" y="34" type="line"/>
    </contour>
    <contour>
      <point x="503" y="0" type="line"/>
      <point x="404" y="0" type="line"/>
      <point x="404" y="34" type="line"/>
      <point x="503" y="34" type="line"/>
    </contour>
    <contour>
      <point x="340" y="0" type="line"/>
      <point x="241" y="0" type="line"/>
      <point x="241" y="34" type="line"/>
      <point x="340" y="34" type="line"/>
    </contour>
    <contour>
      <point x="1125" y="131" type="line"/>
      <point x="1091" y="131" type="line"/>
      <point x="1091" y="230" type="line"/>
      <point x="1125" y="230" type="line"/>
    </contour>
    <contour>
      <point x="1125" y="294" type="line"/>
      <point x="1091" y="294" type="line"/>
      <point x="1091" y="393" type="line"/>
      <point x="1125" y="393" type="line"/>
    </contour>
    <contour>
      <point x="1125" y="458" type="line"/>
      <point x="1091" y="458" type="line"/>
      <point x="1091" y="557" type="line"/>
      <point x="1125" y="557" type="line"/>
    </contour>
    <contour>
      <point x="1125" y="621" type="line"/>
      <point x="1091" y="621" type="line"/>
      <point x="1091" y="720" type="line"/>
      <point x="1125" y="720" type="line"/>
    </contour>
    <contour>
      <point x="1125" y="785" type="line"/>
      <point x="1091" y="785" type="line"/>
      <point x="1091" y="884" type="line"/>
      <point x="1125" y="884" type="line"/>
    </contour>
    <contour>
      <point x="994" y="981" type="line"/>
      <point x="895" y="981" type="line"/>
      <point x="895" y="1015" type="line"/>
      <point x="994" y="1015" type="line"/>
    </contour>
    <contour>
      <point x="830" y="981" type="line"/>
      <point x="731" y="981" type="line"/>
      <point x="731" y="1015" type="line"/>
      <point x="830" y="1015" type="line"/>
    </contour>
    <contour>
      <point x="667" y="981" type="line"/>
      <point x="568" y="981" type="line"/>
      <point x="568" y="1015" type="line"/>
      <point x="667" y="1015" type="line"/>
    </contour>
    <contour>
      <point x="503" y="981" type="line"/>
      <point x="404" y="981" type="line"/>
      <point x="404" y="1015" type="line"/>
      <point x="503" y="1015" type="line"/>
    </contour>
    <contour>
      <point x="340" y="981" type="line"/>
      <point x="241" y="981" type="line"/>
      <point x="241" y="1015" type="line"/>
      <point x="340" y="1015" type="line"/>
    </contour>
    <contour>
      <point x="1125" y="0" type="line"/>
      <point x="1058" y="0" type="line"/>
      <point x="1058" y="34" type="line"/>
      <point x="1091" y="34" type="line"/>
      <point x="1091" y="66" type="line"/>
      <point x="1125" y="66" type="line"/>
    </contour>
    <contour>
      <point x="176" y="0" type="line"/>
      <point x="110" y="0" type="line"/>
      <point x="110" y="66" type="line"/>
      <point x="144" y="66" type="line"/>
      <point x="144" y="34" type="line"/>
      <point x="176" y="34" type="line"/>
    </contour>
    <contour>
      <point x="1125" y="948" type="line"/>
      <point x="1091" y="948" type="line"/>
      <point x="1091" y="981" type="line"/>
      <point x="1058" y="981" type="line"/>
      <point x="1058" y="1015" type="line"/>
      <point x="1125" y="1015" type="line"/>
    </contour>
    <contour>
      <point x="144" y="948" type="line"/>
      <point x="110" y="948" type="line"/>
      <point x="110" y="1015" type="line"/>
      <point x="176" y="1015" type="line"/>
      <point x="176" y="981" type="line"/>
      <point x="144" y="981" type="line"/>
    </contour>
  </outline>
</glyph>
<glyph name="Tappu" format="2">
  <advance width="243"/>
  <unicode hex="E000"/>
  <outline>
    <contour>
      <point x="65" y="-341" type="line"/>
      <point x="130" y="-341" type="line"/>
      <point x="130" y="-64" type="line"/>
      <point x="65" y="-64" type="line"/>
    </contour>
    <contour>
      <point x="-42" y="-234" type="line"/>
      <point x="235" y="-234" type="line"/>
      <point x="235" y="-171" type="line"/>
      <point x="-42" y="-171" type="line"/>
    </contour>
  </outline>
</glyph>
<glyph name="a-tutg" format="2">
  <advance width="1504"/>
  <unicode hex="11380"/>
  <outline>
    <contour>
      <point x="922" y="329" type="curve"/>
      <point x="971" y="329" type="line"/>
      <point x="971" y="415" type="line"/>
      <point x="933" y="514"/>
      <point x="856" y="570"/>
      <point x="759" y="570" type="curve" smooth="yes"/>
      <point x="620" y="570"/>
      <point x="521" y="455"/>
      <point x="521" y="293" type="curve" smooth="yes"/>
      <point x="521" y="121"/>
      <point x="628" y="-15"/>
      <point x="764" y="-15" type="curve" smooth="yes"/>
      <point x="855" y="-15"/>
      <point x="916" y="42"/>
      <point x="916" y="129" type="curve" smooth="yes"/>
      <point x="916" y="211"/>
      <point x="854" y="266"/>
      <point x="760" y="266" type="curve" smooth="yes"/>
      <point x="560" y="266" type="line"/>
      <point x="558" y="202" type="line"/>
      <point x="587" y="201"/>
      <point x="622" y="202"/>
      <point x="739" y="202" type="curve" smooth="yes"/>
      <point x="808" y="202"/>
      <point x="843" y="173"/>
      <point x="843" y="128" type="curve" smooth="yes"/>
      <point x="843" y="81"/>
      <point x="811" y="50"/>
      <point x="763" y="50" type="curve" smooth="yes"/>
      <point x="668" y="50"/>
      <point x="589" y="160"/>
      <point x="594" y="286" type="curve"/>
      <point x="593" y="302" type="line"/>
      <point x="598" y="427"/>
      <point x="664" y="505"/>
      <point x="763" y="505" type="curve" smooth="yes"/>
      <point x="856" y="505"/>
      <point x="922" y="432"/>
    </contour>
    <contour>
      <point x="1203" y="47" type="curve" smooth="yes"/>
      <point x="1153" y="47"/>
      <point x="1120" y="80"/>
      <point x="1120" y="130" type="curve" smooth="yes"/>
      <point x="1120" y="186"/>
      <point x="1166" y="231"/>
      <point x="1223" y="231" type="curve" smooth="yes"/>
      <point x="1260" y="231"/>
      <point x="1300" y="210"/>
      <point x="1324" y="178" type="curve"/>
      <point x="1313" y="103"/>
      <point x="1262" y="47"/>
    </contour>
    <contour>
      <point x="922" y="350" type="curve"/>
      <point x="922" y="300" type="line"/>
      <point x="934" y="290"/>
      <point x="981" y="290"/>
      <point x="993" y="300" type="curve"/>
      <point x="993" y="329" type="line" smooth="yes"/>
      <point x="993" y="437"/>
      <point x="1050" y="506"/>
      <point x="1138" y="506" type="curve" smooth="yes"/>
      <point x="1246" y="506"/>
      <point x="1319" y="406"/>
      <point x="1324" y="251" type="curve"/>
      <point x="1292" y="277"/>
      <point x="1252" y="291"/>
      <point x="1211" y="291" type="curve" smooth="yes"/>
      <point x="1122" y="291"/>
      <point x="1057" y="217"/>
      <point x="1057" y="124" type="curve" smooth="yes"/>
      <point x="1057" y="40"/>
      <point x="1114" y="-15"/>
      <point x="1202" y="-15" type="curve" smooth="yes"/>
      <point x="1321" y="-15"/>
      <point x="1394" y="87"/>
      <point x="1394" y="253" type="curve" smooth="yes"/>
      <point x="1394" y="441"/>
      <point x="1287" y="571"/>
      <point x="1133" y="571" type="curve" smooth="yes"/>
      <point x="1018" y="571"/>
      <point x="951" y="489"/>
    </contour>
    <component base="_pabeak" yOffset="202"/>
  </outline>
</glyph>
<glyph name="aa-tutg" format="2">
  <advance width="1618"/>
  <unicode hex="11381"/>
  <guideline x="1691" y="-196" angle="0"/>
  <outline>
    <contour>
      <point x="521" y="293" type="curve" smooth="yes"/>
      <point x="521" y="121"/>
      <point x="628" y="-15"/>
      <point x="764" y="-15" type="curve" smooth="yes"/>
      <point x="855" y="-15"/>
      <point x="916" y="42"/>
      <point x="916" y="129" type="curve" smooth="yes"/>
      <point x="916" y="211"/>
      <point x="854" y="266"/>
      <point x="760" y="266" type="curve" smooth="yes"/>
      <point x="560" y="266" type="line"/>
      <point x="558" y="202" type="line"/>
      <point x="587" y="201"/>
      <point x="622" y="202"/>
      <point x="739" y="202" type="curve" smooth="yes"/>
      <point x="808" y="202"/>
      <point x="843" y="173"/>
      <point x="843" y="128" type="curve" smooth="yes"/>
      <point x="843" y="81"/>
      <point x="811" y="50"/>
      <point x="763" y="50" type="curve" smooth="yes"/>
      <point x="668" y="50"/>
      <point x="589" y="160"/>
      <point x="594" y="286" type="curve"/>
      <point x="593" y="302" type="line"/>
      <point x="598" y="427"/>
      <point x="664" y="505"/>
      <point x="763" y="505" type="curve" smooth="yes"/>
      <point x="856" y="505"/>
      <point x="922" y="432"/>
      <point x="922" y="329" type="curve" smooth="yes"/>
      <point x="922" y="300" type="line"/>
      <point x="926" y="293"/>
      <point x="988" y="293"/>
      <point x="992" y="300" type="curve"/>
      <point x="992" y="331" type="line"/>
      <point x="964" y="432" type="line"/>
      <point x="924" y="520"/>
      <point x="850" y="570"/>
      <point x="759" y="570" type="curve" smooth="yes"/>
      <point x="620" y="570"/>
      <point x="521" y="455"/>
    </contour>
    <component base="_rightrachloop" xOffset="-99"/>
    <component base="_pabeak" yOffset="202"/>
  </outline>
</glyph>
<glyph name="i-tutg" format="2">
  <advance width="1627"/>
  <unicode hex="11382"/>
  <guideline x="337" y="-329" angle="90"/>
  <guideline x="1103" y="-291" angle="45"/>
  <guideline x="877" y="-330" angle="0"/>
  <guideline x="1363" y="-281" angle="90"/>
  <outline>
    <contour>
      <point x="431" y="447" type="curve"/>
      <point x="472" y="320" type="line"/>
      <point x="478" y="439"/>
      <point x="530" y="505"/>
      <point x="616" y="505" type="curve" smooth="yes"/>
      <point x="700" y="505"/>
      <point x="750" y="425"/>
      <point x="750" y="292" type="curve" smooth="yes"/>
      <point x="750" y="145" type="line" smooth="yes"/>
      <point x="750" y="-89"/>
      <point x="837" y="-184"/>
      <point x="1052" y="-184" type="curve" smooth="yes"/>
      <point x="1617" y="-184" type="line"/>
      <point x="1631" y="-180"/>
      <point x="1631" y="-123"/>
      <point x="1617" y="-119" type="curve"/>
      <point x="1107" y="-121" type="line" smooth="yes"/>
      <point x="879" y="-121"/>
      <point x="825" y="-66"/>
      <point x="825" y="155" type="curve" smooth="yes"/>
      <point x="825" y="273" type="line" smooth="yes"/>
      <point x="825" y="341"/>
      <point x="832" y="571"/>
      <point x="616" y="571" type="curve" smooth="yes"/>
      <point x="534" y="571"/>
      <point x="469" y="528"/>
    </contour>
    <component base="_initA"/>
  </outline>
</glyph>
<glyph name="u-tutg" format="2">
  <advance width="1292"/>
  <unicode hex="11384"/>
  <outline>
    <contour>
      <point x="715" y="-184" type="curve" smooth="yes"/>
      <point x="1282" y="-184" type="line"/>
      <point x="1296" y="-180"/>
      <point x="1296" y="-123"/>
      <point x="1282" y="-119" type="curve"/>
      <point x="1167" y="-119"/>
      <point x="846" y="-121"/>
      <point x="736" y="-121" type="curve" smooth="yes"/>
      <point x="572" y="-121"/>
      <point x="505" y="-65"/>
      <point x="493" y="78" type="curve" smooth="yes"/>
      <point x="487" y="145"/>
      <point x="493" y="221"/>
      <point x="493" y="291" type="curve" smooth="yes"/>
      <point x="493" y="477"/>
      <point x="413" y="570"/>
      <point x="252" y="570" type="curve" smooth="yes"/>
      <point x="112" y="570"/>
      <point x="10" y="466"/>
      <point x="10" y="325" type="curve" smooth="yes"/>
      <point x="10" y="203"/>
      <point x="84" y="111"/>
      <point x="183" y="111" type="curve" smooth="yes"/>
      <point x="258" y="111"/>
      <point x="312" y="165"/>
      <point x="312" y="241" type="curve" smooth="yes"/>
      <point x="312" y="324"/>
      <point x="248" y="389"/>
      <point x="166" y="389" type="curve" smooth="yes"/>
      <point x="132" y="389"/>
      <point x="107" y="378"/>
      <point x="81" y="352" type="curve"/>
      <point x="91" y="440"/>
      <point x="164" y="503"/>
      <point x="253" y="503" type="curve" smooth="yes"/>
      <point x="365" y="503"/>
      <point x="417" y="436"/>
      <point x="417" y="289" type="curve" smooth="yes"/>
      <point x="417" y="219"/>
      <point x="413" y="135"/>
      <point x="420" y="66" type="curve" smooth="yes"/>
      <point x="437" y="-104"/>
      <point x="532" y="-184"/>
    </contour>
    <contour>
      <point x="179" y="174" type="curve" smooth="yes"/>
      <point x="114" y="174"/>
      <point x="70" y="253"/>
      <point x="85" y="343" type="curve"/>
      <point x="68" y="269" type="line"/>
      <point x="85" y="309"/>
      <point x="118" y="332"/>
      <point x="155" y="332" type="curve" smooth="yes"/>
      <point x="206" y="332"/>
      <point x="242" y="295"/>
      <point x="242" y="244" type="curve" smooth="yes"/>
      <point x="242" y="202"/>
      <point x="217" y="174"/>
    </contour>
  </outline>
</glyph>
<glyph name="uu-tutg" format="2">
  <advance width="1291"/>
  <unicode hex="11385"/>
  <outline>
    <contour>
      <point x="862" y="-475" type="curve" smooth="yes"/>
      <point x="994" y="-475"/>
      <point x="1063" y="-371"/>
      <point x="1063" y="-272" type="curve" smooth="yes"/>
      <point x="1063" y="-200"/>
      <point x="1029" y="-137"/>
      <point x="928" y="-137" type="curve" smooth="yes"/>
      <point x="839" y="-137"/>
      <point x="798" y="-189"/>
      <point x="798" y="-251" type="curve" smooth="yes"/>
      <point x="798" y="-326"/>
      <point x="860" y="-373"/>
      <point x="925" y="-373" type="curve" smooth="yes"/>
      <point x="955" y="-373"/>
      <point x="983" y="-365"/>
      <point x="1006" y="-343" type="curve"/>
      <point x="989" y="-334" type="line"/>
      <point x="971" y="-389"/>
      <point x="921" y="-416"/>
      <point x="869" y="-416" type="curve" smooth="yes"/>
      <point x="794" y="-416"/>
      <point x="717" y="-366"/>
      <point x="717" y="-269" type="curve" smooth="yes"/>
      <point x="717" y="-201"/>
      <point x="752" y="-105"/>
      <point x="852" y="18" type="curve"/>
      <point x="840" y="25"/>
      <point x="795" y="25"/>
      <point x="785" y="18" type="curve"/>
      <point x="685" y="-97"/>
      <point x="653" y="-192"/>
      <point x="653" y="-266" type="curve" smooth="yes"/>
      <point x="653" y="-405"/>
      <point x="760" y="-475"/>
    </contour>
    <contour>
      <point x="1000" y="-309" type="curve"/>
      <point x="982" y="-321"/>
      <point x="963" y="-326"/>
      <point x="944" y="-326" type="curve" smooth="yes"/>
      <point x="886" y="-326"/>
      <point x="860" y="-287"/>
      <point x="860" y="-252" type="curve" smooth="yes"/>
      <point x="860" y="-216"/>
      <point x="884" y="-184"/>
      <point x="929" y="-184" type="curve" smooth="yes"/>
      <point x="981" y="-184"/>
      <point x="1006" y="-227"/>
      <point x="1006" y="-267" type="curve" smooth="yes"/>
      <point x="1006" y="-283"/>
      <point x="1004" y="-297"/>
    </contour>
    <component base="u-tutg"/>
  </outline>
</glyph>
<glyph name="rVocalic-tutg" format="2">
  <advance width="844"/>
  <unicode hex="11386"/>
  <outline>
    <contour>
      <point x="372" y="-207" type="curve" smooth="yes"/>
      <point x="517" y="-207"/>
      <point x="592" y="-117"/>
      <point x="592" y="-32" type="curve" smooth="yes"/>
      <point x="592" y="35"/>
      <point x="544" y="108"/>
      <point x="446" y="138" type="curve"/>
      <point x="453" y="126" type="line"/>
      <point x="618" y="153"/>
      <point x="734" y="225"/>
      <point x="734" y="370" type="curve" smooth="yes"/>
      <point x="734" y="489"/>
      <point x="657" y="571"/>
      <point x="551" y="571" type="curve" smooth="yes"/>
      <point x="454" y="571"/>
      <point x="408" y="501"/>
      <point x="408" y="429" type="curve" smooth="yes"/>
      <point x="408" y="351"/>
      <point x="461" y="270"/>
      <point x="562" y="270" type="curve" smooth="yes"/>
      <point x="612" y="270"/>
      <point x="663" y="292"/>
      <point x="693" y="343" type="curve"/>
      <point x="694" y="401" type="line"/>
      <point x="670" y="352"/>
      <point x="617" y="325"/>
      <point x="573" y="325" type="curve" smooth="yes"/>
      <point x="510" y="325"/>
      <point x="474" y="378"/>
      <point x="474" y="427" type="curve" smooth="yes"/>
      <point x="474" y="470"/>
      <point x="501" y="509"/>
      <point x="559" y="509" type="curve" smooth="yes"/>
      <point x="630" y="509"/>
      <point x="671" y="443"/>
      <point x="671" y="371" type="curve" smooth="yes"/>
      <point x="671" y="231"/>
      <point x="519" y="194"/>
      <point x="366" y="168" type="curve"/>
      <point x="396" y="165" type="line"/>
      <point x="225" y="194"/>
      <point x="73" y="231"/>
      <point x="73" y="371" type="curve" smooth="yes"/>
      <point x="73" y="443"/>
      <point x="114" y="509"/>
      <point x="185" y="509" type="curve" smooth="yes"/>
      <point x="243" y="509"/>
      <point x="270" y="470"/>
      <point x="270" y="427" type="curve" smooth="yes"/>
      <point x="270" y="378"/>
      <point x="234" y="325"/>
      <point x="171" y="325" type="curve" smooth="yes"/>
      <point x="127" y="325"/>
      <point x="74" y="352"/>
      <point x="50" y="401" type="curve"/>
      <point x="51" y="343" type="line"/>
      <point x="81" y="292"/>
      <point x="132" y="270"/>
      <point x="182" y="270" type="curve" smooth="yes"/>
      <point x="283" y="270"/>
      <point x="336" y="351"/>
      <point x="336" y="429" type="curve" smooth="yes"/>
      <point x="336" y="501"/>
      <point x="290" y="571"/>
      <point x="193" y="571" type="curve" smooth="yes"/>
      <point x="87" y="571"/>
      <point x="10" y="489"/>
      <point x="10" y="370" type="curve" smooth="yes"/>
      <point x="10" y="225"/>
      <point x="126" y="153"/>
      <point x="291" y="130" type="curve"/>
      <point x="298" y="138" type="line"/>
      <point x="198" y="108"/>
      <point x="152" y="35"/>
      <point x="152" y="-32" type="curve" smooth="yes"/>
      <point x="152" y="-117"/>
      <point x="227" y="-207"/>
    </contour>
    <contour>
      <point x="372" y="-142" type="curve" smooth="yes"/>
      <point x="279" y="-141"/>
      <point x="225" y="-85"/>
      <point x="225" y="-28" type="curve" smooth="yes"/>
      <point x="225" y="28"/>
      <point x="276" y="91"/>
      <point x="372" y="109" type="curve"/>
      <point x="473" y="89"/>
      <point x="519" y="26"/>
      <point x="519" y="-27" type="curve" smooth="yes"/>
      <point x="519" y="-85"/>
      <point x="465" y="-143"/>
    </contour>
  </outline>
</glyph>
<glyph name="rrVocalic-tutg" format="2">
  <advance width="1100"/>
  <unicode hex="11387"/>
  <guideline x="871" y="-100" angle="90"/>
  <outline>
    <contour>
      <point x="428" y="143" type="curve"/>
      <point x="413" y="162" type="line"/>
      <point x="235" y="192"/>
      <point x="73" y="226"/>
      <point x="73" y="371" type="curve" smooth="yes"/>
      <point x="73" y="443"/>
      <point x="114" y="509"/>
      <point x="185" y="509" type="curve" smooth="yes"/>
      <point x="243" y="509"/>
      <point x="270" y="470"/>
      <point x="270" y="427" type="curve" smooth="yes"/>
      <point x="270" y="378"/>
      <point x="234" y="325"/>
      <point x="171" y="325" type="curve" smooth="yes"/>
      <point x="127" y="325"/>
      <point x="74" y="352"/>
      <point x="50" y="401" type="curve"/>
      <point x="51" y="343" type="line"/>
      <point x="81" y="292"/>
      <point x="132" y="270"/>
      <point x="182" y="270" type="curve" smooth="yes"/>
      <point x="283" y="270"/>
      <point x="336" y="351"/>
      <point x="336" y="429" type="curve" smooth="yes"/>
      <point x="336" y="501"/>
      <point x="290" y="571"/>
      <point x="193" y="571" type="curve" smooth="yes"/>
      <point x="87" y="571"/>
      <point x="10" y="489"/>
      <point x="10" y="370" type="curve" smooth="yes"/>
      <point x="10" y="225"/>
      <point x="126" y="153"/>
      <point x="291" y="130" type="curve"/>
      <point x="298" y="138" type="line"/>
      <point x="198" y="108"/>
      <point x="152" y="35"/>
      <point x="152" y="-32" type="curve" smooth="yes"/>
      <point x="152" y="-117"/>
      <point x="227" y="-207"/>
      <point x="372" y="-207" type="curve" smooth="yes"/>
      <point x="517" y="-207"/>
      <point x="592" y="-117"/>
      <point x="592" y="-32" type="curve" smooth="yes"/>
      <point x="592" y="39"/>
      <point x="538" y="117"/>
    </contour>
    <contour>
      <point x="372" y="-142" type="curve" smooth="yes"/>
      <point x="279" y="-141"/>
      <point x="225" y="-85"/>
      <point x="225" y="-28" type="curve" smooth="yes"/>
      <point x="225" y="28"/>
      <point x="276" y="91"/>
      <point x="372" y="109" type="curve"/>
      <point x="473" y="89"/>
      <point x="519" y="26"/>
      <point x="519" y="-27" type="curve" smooth="yes"/>
      <point x="519" y="-85"/>
      <point x="465" y="-143"/>
    </contour>
    <contour>
      <point x="572" y="221" type="curve"/>
      <point x="587" y="202" type="line"/>
      <point x="765" y="172"/>
      <point x="927" y="138"/>
      <point x="927" y="-7" type="curve" smooth="yes"/>
      <point x="927" y="-79"/>
      <point x="886" y="-145"/>
      <point x="815" y="-145" type="curve" smooth="yes"/>
      <point x="757" y="-145"/>
      <point x="730" y="-106"/>
      <point x="730" y="-63" type="curve" smooth="yes"/>
      <point x="730" y="-14"/>
      <point x="766" y="39"/>
      <point x="829" y="39" type="curve" smooth="yes"/>
      <point x="873" y="39"/>
      <point x="926" y="12"/>
      <point x="950" y="-37" type="curve"/>
      <point x="949" y="21" type="line"/>
      <point x="919" y="72"/>
      <point x="868" y="94"/>
      <point x="818" y="94" type="curve" smooth="yes"/>
      <point x="717" y="94"/>
      <point x="664" y="13"/>
      <point x="664" y="-65" type="curve" smooth="yes"/>
      <point x="664" y="-137"/>
      <point x="710" y="-207"/>
      <point x="807" y="-207" type="curve" smooth="yes"/>
      <point x="913" y="-207"/>
      <point x="990" y="-125"/>
      <point x="990" y="-6" type="curve" smooth="yes"/>
      <point x="990" y="139"/>
      <point x="874" y="211"/>
      <point x="709" y="234" type="curve"/>
      <point x="702" y="226" type="line"/>
      <point x="802" y="256"/>
      <point x="848" y="329"/>
      <point x="848" y="396" type="curve" smooth="yes"/>
      <point x="848" y="481"/>
      <point x="773" y="571"/>
      <point x="628" y="571" type="curve" smooth="yes"/>
      <point x="483" y="571"/>
      <point x="408" y="481"/>
      <point x="408" y="396" type="curve" smooth="yes"/>
      <point x="408" y="325"/>
      <point x="462" y="247"/>
    </contour>
    <contour>
      <point x="628" y="506" type="curve" smooth="yes"/>
      <point x="721" y="505"/>
      <point x="775" y="449"/>
      <point x="775" y="392" type="curve" smooth="yes"/>
      <point x="775" y="336"/>
      <point x="724" y="273"/>
      <point x="628" y="255" type="curve"/>
      <point x="527" y="275"/>
      <point x="481" y="338"/>
      <point x="481" y="391" type="curve" smooth="yes"/>
      <point x="481" y="449"/>
      <point x="535" y="507"/>
    </contour>
    <contour>
      <point x="681" y="210" type="curve"/>
      <point x="601" y="235" type="line"/>
      <point x="539" y="223"/>
      <point x="464" y="181"/>
      <point x="347" y="165" type="curve"/>
      <point x="432" y="123" type="line"/>
      <point x="533" y="137"/>
      <point x="618" y="191"/>
    </contour>
  </outline>
</glyph>
<glyph name="lVocalic-tutg" format="2">
  <advance width="994"/>
  <unicode hex="11388"/>
  <outline>
    <contour>
      <point x="201" y="47" type="curve" smooth="yes"/>
      <point x="142" y="47"/>
      <point x="91" y="103"/>
      <point x="80" y="178" type="curve"/>
      <point x="104" y="210"/>
      <point x="144" y="231"/>
      <point x="181" y="231" type="curve" smooth="yes"/>
      <point x="238" y="231"/>
      <point x="284" y="186"/>
      <point x="284" y="130" type="curve" smooth="yes"/>
      <point x="284" y="80"/>
      <point x="251" y="47"/>
    </contour>
    <contour>
      <point x="482" y="237" type="curve"/>
      <point x="482" y="349" type="line"/>
      <point x="453" y="489"/>
      <point x="386" y="571"/>
      <point x="271" y="571" type="curve" smooth="yes"/>
      <point x="117" y="571"/>
      <point x="10" y="441"/>
      <point x="10" y="253" type="curve" smooth="yes"/>
      <point x="10" y="87"/>
      <point x="83" y="-15"/>
      <point x="202" y="-15" type="curve" smooth="yes"/>
      <point x="290" y="-15"/>
      <point x="347" y="40"/>
      <point x="347" y="124" type="curve" smooth="yes"/>
      <point x="347" y="217"/>
      <point x="282" y="291"/>
      <point x="193" y="291" type="curve" smooth="yes"/>
      <point x="152" y="291"/>
      <point x="112" y="277"/>
      <point x="80" y="251" type="curve"/>
      <point x="85" y="406"/>
      <point x="158" y="506"/>
      <point x="266" y="506" type="curve" smooth="yes"/>
      <point x="354" y="506"/>
      <point x="411" y="437"/>
      <point x="411" y="329" type="curve" smooth="yes"/>
      <point x="411" y="237" type="line"/>
      <point x="423" y="227"/>
      <point x="470" y="227"/>
    </contour>
    <contour>
      <point x="693" y="47" type="curve" smooth="yes"/>
      <point x="643" y="47"/>
      <point x="610" y="80"/>
      <point x="610" y="130" type="curve" smooth="yes"/>
      <point x="610" y="186"/>
      <point x="656" y="231"/>
      <point x="713" y="231" type="curve" smooth="yes"/>
      <point x="750" y="231"/>
      <point x="790" y="210"/>
      <point x="814" y="178" type="curve"/>
      <point x="803" y="103"/>
      <point x="752" y="47"/>
    </contour>
    <contour>
      <point x="412" y="349" type="curve"/>
      <point x="412" y="237" type="line"/>
      <point x="424" y="227"/>
      <point x="471" y="227"/>
      <point x="483" y="237" type="curve"/>
      <point x="483" y="329" type="line" smooth="yes"/>
      <point x="483" y="437"/>
      <point x="540" y="506"/>
      <point x="628" y="506" type="curve" smooth="yes"/>
      <point x="736" y="506"/>
      <point x="809" y="406"/>
      <point x="814" y="251" type="curve"/>
      <point x="782" y="277"/>
      <point x="742" y="291"/>
      <point x="701" y="291" type="curve" smooth="yes"/>
      <point x="612" y="291"/>
      <point x="547" y="217"/>
      <point x="547" y="124" type="curve" smooth="yes"/>
      <point x="547" y="40"/>
      <point x="604" y="-15"/>
      <point x="692" y="-15" type="curve" smooth="yes"/>
      <point x="811" y="-15"/>
      <point x="884" y="87"/>
      <point x="884" y="253" type="curve" smooth="yes"/>
      <point x="884" y="441"/>
      <point x="777" y="571"/>
      <point x="623" y="571" type="curve" smooth="yes"/>
      <point x="508" y="571"/>
      <point x="441" y="489"/>
    </contour>
  </outline>
</glyph>
<glyph name="llVocalic-tutg" format="2">
  <advance width="1080"/>
  <unicode hex="11389"/>
  <guideline x="816" y="210" angle="90"/>
  <outline>
    <contour>
      <point x="318" y="-203" type="curve"/>
      <point x="418" y="-241"/>
      <point x="524" y="-263"/>
      <point x="620" y="-263" type="curve" smooth="yes"/>
      <point x="809" y="-263"/>
      <point x="970" y="-178"/>
      <point x="970" y="8" type="curve" smooth="yes"/>
      <point x="970" y="103"/>
      <point x="929" y="195"/>
      <point x="834" y="259" type="curve"/>
      <point x="808" y="261" type="line"/>
      <point x="775" y="277"/>
      <point x="734" y="285"/>
      <point x="700" y="285" type="curve" smooth="yes"/>
      <point x="589" y="285"/>
      <point x="530" y="203"/>
      <point x="530" y="125" type="curve" smooth="yes"/>
      <point x="530" y="53"/>
      <point x="579" y="-15"/>
      <point x="674" y="-15" type="curve" smooth="yes"/>
      <point x="783" y="-15"/>
      <point x="844" y="75"/>
      <point x="864" y="191" type="curve"/>
      <point x="837" y="187" type="line"/>
      <point x="884" y="129"/>
      <point x="900" y="77"/>
      <point x="900" y="21" type="curve" smooth="yes"/>
      <point x="900" y="-136"/>
      <point x="777" y="-195"/>
      <point x="626" y="-195" type="curve" smooth="yes"/>
      <point x="526" y="-195"/>
      <point x="415" y="-169"/>
      <point x="317" y="-130" type="curve"/>
      <point x="309" y="-151"/>
      <point x="310" y="-182"/>
    </contour>
    <contour>
      <point x="675" y="48" type="curve" smooth="yes"/>
      <point x="628" y="48"/>
      <point x="599" y="84"/>
      <point x="599" y="125" type="curve" smooth="yes"/>
      <point x="599" y="172"/>
      <point x="638" y="223"/>
      <point x="710" y="223" type="curve" smooth="yes"/>
      <point x="745" y="223"/>
      <point x="790" y="211"/>
      <point x="822" y="181" type="curve"/>
      <point x="796" y="235" type="line"/>
      <point x="799" y="152"/>
      <point x="756" y="48"/>
    </contour>
    <contour>
      <point x="443" y="437" type="curve"/>
      <point x="411" y="336" type="line"/>
      <point x="411" y="300" type="line"/>
      <point x="423" y="290"/>
      <point x="470" y="290"/>
      <point x="482" y="300" type="curve"/>
      <point x="482" y="336" type="line" smooth="yes"/>
      <point x="482" y="429"/>
      <point x="548" y="505"/>
      <point x="636" y="505" type="curve" smooth="yes"/>
      <point x="760" y="505"/>
      <point x="799" y="358"/>
      <point x="799" y="270" type="curve" smooth="yes"/>
      <point x="799" y="256"/>
      <point x="798" y="255"/>
      <point x="798" y="247" type="curve"/>
      <point x="865" y="195" type="line"/>
      <point x="871" y="231"/>
      <point x="873" y="267"/>
      <point x="871" y="302" type="curve" smooth="yes"/>
      <point x="863" y="445"/>
      <point x="779" y="571"/>
      <point x="637" y="571" type="curve" smooth="yes"/>
      <point x="542" y="571"/>
      <point x="479" y="515"/>
    </contour>
    <contour>
      <point x="201" y="47" type="curve" smooth="yes"/>
      <point x="142" y="47"/>
      <point x="91" y="103"/>
      <point x="80" y="178" type="curve"/>
      <point x="104" y="210"/>
      <point x="144" y="231"/>
      <point x="181" y="231" type="curve" smooth="yes"/>
      <point x="238" y="231"/>
      <point x="284" y="186"/>
      <point x="284" y="130" type="curve" smooth="yes"/>
      <point x="284" y="80"/>
      <point x="251" y="47"/>
    </contour>
    <contour>
      <point x="482" y="237" type="curve"/>
      <point x="482" y="349" type="line"/>
      <point x="453" y="489"/>
      <point x="386" y="571"/>
      <point x="271" y="571" type="curve" smooth="yes"/>
      <point x="117" y="571"/>
      <point x="10" y="441"/>
      <point x="10" y="253" type="curve" smooth="yes"/>
      <point x="10" y="87"/>
      <point x="83" y="-15"/>
      <point x="202" y="-15" type="curve" smooth="yes"/>
      <point x="290" y="-15"/>
      <point x="347" y="40"/>
      <point x="347" y="124" type="curve" smooth="yes"/>
      <point x="347" y="217"/>
      <point x="282" y="291"/>
      <point x="193" y="291" type="curve" smooth="yes"/>
      <point x="152" y="291"/>
      <point x="112" y="277"/>
      <point x="80" y="251" type="curve"/>
      <point x="85" y="406"/>
      <point x="158" y="506"/>
      <point x="266" y="506" type="curve" smooth="yes"/>
      <point x="354" y="506"/>
      <point x="411" y="437"/>
      <point x="411" y="329" type="curve" smooth="yes"/>
      <point x="411" y="237" type="line"/>
      <point x="423" y="227"/>
      <point x="470" y="227"/>
    </contour>
  </outline>
</glyph>
<glyph name="ee-tutg" format="2">
  <advance width="1576"/>
  <unicode hex="1138B"/>
  <guideline x="1819" y="-208" angle="0"/>
  <guideline x="1645" y="-157" angle="90"/>
  <guideline x="430" y="64" angle="0"/>
  <guideline x="1501" y="284" angle="0"/>
  <guideline x="365" y="285" angle="90"/>
  <outline>
    <contour>
      <point x="1061" y="48" type="curve" smooth="yes"/>
      <point x="1001" y="48"/>
      <point x="965" y="112"/>
      <point x="965" y="214" type="curve" smooth="yes"/>
      <point x="965" y="325"/>
      <point x="1008" y="405"/>
      <point x="1051" y="451" type="curve"/>
      <point x="1092" y="424"/>
      <point x="1164" y="336"/>
      <point x="1164" y="211" type="curve" smooth="yes"/>
      <point x="1164" y="119"/>
      <point x="1125" y="48"/>
    </contour>
    <contour>
      <point x="745" y="252" type="curve" smooth="yes"/>
      <point x="745" y="387"/>
      <point x="787" y="505"/>
      <point x="907" y="505" type="curve" smooth="yes"/>
      <point x="948" y="505"/>
      <point x="987" y="492"/>
      <point x="1023" y="467" type="curve"/>
      <point x="1014" y="504" type="line"/>
      <point x="936" y="432"/>
      <point x="890" y="316"/>
      <point x="890" y="206" type="curve" smooth="yes"/>
      <point x="890" y="83"/>
      <point x="948" y="-17"/>
      <point x="1061" y="-17" type="curve" smooth="yes"/>
      <point x="1153" y="-17"/>
      <point x="1239" y="49"/>
      <point x="1239" y="200" type="curve" smooth="yes"/>
      <point x="1239" y="317"/>
      <point x="1188" y="414"/>
      <point x="1108" y="486" type="curve"/>
      <point x="1133" y="497"/>
      <point x="1154" y="503"/>
      <point x="1184" y="503" type="curve" smooth="yes"/>
      <point x="1313" y="503"/>
      <point x="1391" y="397"/>
      <point x="1391" y="205" type="curve" smooth="yes"/>
      <point x="1391" y="146"/>
      <point x="1384" y="54"/>
      <point x="1350" y="0" type="curve"/>
      <point x="1372" y="-10"/>
      <point x="1407" y="-10"/>
      <point x="1429" y="0" type="curve"/>
      <point x="1457" y="61"/>
      <point x="1466" y="148"/>
      <point x="1466" y="211" type="curve" smooth="yes"/>
      <point x="1466" y="427"/>
      <point x="1361" y="569"/>
      <point x="1197" y="569" type="curve" smooth="yes"/>
      <point x="1137" y="569"/>
      <point x="1079" y="550"/>
      <point x="1023" y="512" type="curve"/>
      <point x="1072" y="513" type="line"/>
      <point x="1015" y="552"/>
      <point x="958" y="571"/>
      <point x="898" y="571" type="curve" smooth="yes"/>
      <point x="754" y="571"/>
      <point x="679" y="460"/>
      <point x="671" y="283" type="curve" smooth="yes"/>
      <point x="667" y="192"/>
      <point x="679" y="49"/>
      <point x="562" y="49" type="curve" smooth="yes"/>
      <point x="462" y="49"/>
      <point x="462" y="153"/>
      <point x="462" y="262" type="curve" smooth="yes"/>
      <point x="462" y="303"/>
      <point x="459" y="345"/>
      <point x="450" y="383" type="curve" smooth="yes"/>
      <point x="426" y="485"/>
      <point x="359" y="570"/>
      <point x="232" y="570" type="curve" smooth="yes"/>
      <point x="71" y="570"/>
      <point x="10" y="433"/>
      <point x="10" y="281" type="curve" smooth="yes"/>
      <point x="10" y="184"/>
      <point x="35" y="80"/>
      <point x="82" y="-2" type="curve"/>
      <point x="99" y="-12"/>
      <point x="146" y="-12"/>
      <point x="163" y="-2" type="curve"/>
      <point x="113" y="71"/>
      <point x="82" y="186"/>
      <point x="82" y="287" type="curve" smooth="yes"/>
      <point x="82" y="405"/>
      <point x="124" y="503"/>
      <point x="233" y="503" type="curve" smooth="yes"/>
      <point x="324" y="503"/>
      <point x="363" y="436"/>
      <point x="380" y="348" type="curve" smooth="yes"/>
      <point x="386" y="317"/>
      <point x="389" y="284"/>
      <point x="389" y="252" type="curve" smooth="yes"/>
      <point x="389" y="106"/>
      <point x="408" y="-15"/>
      <point x="560" y="-15" type="curve" smooth="yes"/>
      <point x="691" y="-15"/>
      <point x="745" y="75"/>
    </contour>
  </outline>
</glyph>
<glyph name="oo-tutg" format="2">
  <advance width="1026"/>
  <unicode hex="11390"/>
  <outline>
    <contour>
      <point x="754" y="-185" type="curve"/>
      <point x="771" y="-195"/>
      <point x="817" y="-195"/>
      <point x="834" y="-185" type="curve"/>
      <point x="872" y="-87"/>
      <point x="916" y="33"/>
      <point x="916" y="117" type="curve" smooth="yes"/>
      <point x="916" y="202"/>
      <point x="872" y="264"/>
      <point x="753" y="264" type="curve" smooth="yes"/>
      <point x="690" y="264"/>
      <point x="635" y="247"/>
      <point x="567" y="218" type="curve"/>
      <point x="580" y="209" type="line"/>
      <point x="629" y="271"/>
      <point x="673" y="358"/>
      <point x="673" y="433" type="curve" smooth="yes"/>
      <point x="673" y="532"/>
      <point x="597" y="570"/>
      <point x="492" y="570" type="curve" smooth="yes"/>
      <point x="303" y="570"/>
      <point x="10" y="448"/>
      <point x="10" y="246" type="curve" smooth="yes"/>
      <point x="10" y="137"/>
      <point x="81" y="64"/>
      <point x="188" y="64" type="curve" smooth="yes"/>
      <point x="289" y="64"/>
      <point x="370" y="144"/>
      <point x="370" y="248" type="curve" smooth="yes"/>
      <point x="370" y="353"/>
      <point x="288" y="453"/>
      <point x="162" y="433" type="curve"/>
      <point x="124" y="380" type="line"/>
      <point x="232" y="407"/>
      <point x="301" y="331"/>
      <point x="301" y="253" type="curve" smooth="yes"/>
      <point x="301" y="184"/>
      <point x="247" y="127"/>
      <point x="182" y="127" type="curve" smooth="yes"/>
      <point x="122" y="127"/>
      <point x="80" y="175"/>
      <point x="80" y="244" type="curve" smooth="yes"/>
      <point x="80" y="417"/>
      <point x="347" y="502"/>
      <point x="493" y="502" type="curve" smooth="yes"/>
      <point x="557" y="502"/>
      <point x="599" y="486"/>
      <point x="599" y="422" type="curve" smooth="yes"/>
      <point x="599" y="341"/>
      <point x="531" y="229"/>
      <point x="468" y="171" type="curve"/>
      <point x="471" y="155"/>
      <point x="485" y="131"/>
      <point x="501" y="120" type="curve"/>
      <point x="568" y="155"/>
      <point x="673" y="199"/>
      <point x="751" y="199" type="curve" smooth="yes"/>
      <point x="817" y="199"/>
      <point x="841" y="168"/>
      <point x="841" y="113" type="curve" smooth="yes"/>
      <point x="841" y="45"/>
      <point x="804" y="-67"/>
    </contour>
  </outline>
</glyph>
<glyph name="ka-tutg" format="2">
  <advance width="1164"/>
  <unicode hex="11392"/>
  <anchor x="1021" y="-8" name="short"/>
  <anchor x="532.0" y="621" name="top"/>
  <anchor x="532.0" y="-65" name="bottom"/>
  <anchor x="1054" y="621" name="topright"/>
  <anchor x="1052.1" y="-1.2" name="bottomright"/>
  <outline>
    <contour>
      <point x="982" y="132" type="curve" smooth="yes"/>
      <point x="982" y="0" type="line"/>
      <point x="996" y="-10"/>
      <point x="1040" y="-10"/>
      <point x="1054" y="0" type="curve"/>
      <point x="1054" y="130" type="line" smooth="yes"/>
      <point x="1054" y="420"/>
      <point x="932" y="571"/>
      <point x="726" y="571" type="curve" smooth="yes"/>
      <point x="650" y="571"/>
      <point x="575" y="551"/>
      <point x="487" y="508" type="curve"/>
      <point x="571" y="484" type="line"/>
      <point x="616" y="502"/>
      <point x="666" y="511"/>
      <point x="714" y="511" type="curve" smooth="yes"/>
      <point x="881" y="511"/>
      <point x="982" y="382"/>
    </contour>
    <component base="_kabowl"/>
    <component base="_karightarm"/>
  </outline>
</glyph>
<glyph name="kha-tutg" format="2">
  <advance width="1334"/>
  <unicode hex="11393"/>
  <anchor x="617.0" y="615.5" name="top"/>
  <anchor x="617.0" y="-80" name="bottom"/>
  <anchor x="1224" y="615.5" name="topright"/>
  <anchor x="1183.1" y="10.4" name="bottomright"/>
  <outline>
    <contour>
      <point x="772" y="0" type="curve" smooth="yes"/>
      <point x="783" y="0" type="line"/>
      <point x="783" y="64" type="line"/>
      <point x="749" y="64" type="line" smooth="yes"/>
      <point x="707" y="64"/>
      <point x="634" y="60"/>
      <point x="582" y="45" type="curve"/>
      <point x="606" y="41" type="line"/>
      <point x="712" y="133"/>
      <point x="865" y="348"/>
      <point x="865" y="460" type="curve" smooth="yes"/>
      <point x="865" y="523"/>
      <point x="819" y="555"/>
      <point x="718" y="555" type="curve" smooth="yes"/>
      <point x="648" y="555"/>
      <point x="339" y="555"/>
      <point x="238" y="555" type="curve" smooth="yes"/>
      <point x="33" y="555"/>
      <point x="10" y="479"/>
      <point x="10" y="368" type="curve" smooth="yes"/>
      <point x="10" y="235"/>
      <point x="10" y="234"/>
      <point x="10" y="218" type="curve" smooth="yes"/>
      <point x="10" y="99"/>
      <point x="75" y="-15"/>
      <point x="223" y="-15" type="curve" smooth="yes"/>
      <point x="350" y="-15"/>
      <point x="433" y="69"/>
      <point x="433" y="181" type="curve" smooth="yes"/>
      <point x="433" y="303"/>
      <point x="335" y="367"/>
      <point x="232" y="369" type="curve" smooth="yes"/>
      <point x="168" y="370"/>
      <point x="90" y="346"/>
      <point x="47" y="265" type="curve"/>
      <point x="62" y="173" type="line"/>
      <point x="74" y="274"/>
      <point x="168" y="306"/>
      <point x="226" y="306" type="curve" smooth="yes"/>
      <point x="289" y="306"/>
      <point x="358" y="267"/>
      <point x="358" y="182" type="curve" smooth="yes"/>
      <point x="358" y="106"/>
      <point x="304" y="52"/>
      <point x="221" y="52" type="curve" smooth="yes"/>
      <point x="119" y="52"/>
      <point x="76" y="132"/>
      <point x="76" y="221" type="curve" smooth="yes"/>
      <point x="76" y="241"/>
      <point x="76" y="245"/>
      <point x="76" y="368" type="curve" smooth="yes"/>
      <point x="76" y="457"/>
      <point x="92" y="489"/>
      <point x="249" y="489" type="curve" smooth="yes"/>
      <point x="354" y="489"/>
      <point x="655" y="489"/>
      <point x="711" y="489" type="curve" smooth="yes"/>
      <point x="771" y="489"/>
      <point x="794" y="481"/>
      <point x="794" y="448" type="curve" smooth="yes"/>
      <point x="794" y="376"/>
      <point x="688" y="213"/>
      <point x="592" y="112" type="curve" smooth="yes"/>
      <point x="556" y="74"/>
      <point x="528" y="54"/>
      <point x="450" y="29" type="curve"/>
      <point x="448" y="9"/>
      <point x="465" y="-23"/>
      <point x="482" y="-30" type="curve"/>
      <point x="550" y="-4"/>
      <point x="617" y="0"/>
    </contour>
    <contour>
      <point x="1152" y="558" type="curve"/>
      <point x="1152" y="118" type="line"/>
      <point x="1224" y="118" type="line"/>
      <point x="1224" y="558" type="line"/>
      <point x="1211" y="568"/>
      <point x="1165" y="568"/>
    </contour>
    <component base="_roundedcorner" xOffset="1047" identifier="E9A00724"/>
    <component base="_horizontalline64" xScale="1.2823" xOffset="-313"/>
  </outline>
</glyph>
<glyph name="ga-tutg" format="2">
  <advance width="876"/>
  <unicode hex="11394"/>
  <anchor x="387.5" y="622" name="top"/>
  <anchor x="387.5" y="-65" name="bottom"/>
  <anchor x="765" y="622" name="topright"/>
  <anchor x="765.0" y="0.0" name="bottomright"/>
  <outline>
    <contour>
      <point x="693" y="306" type="curve" smooth="yes"/>
      <point x="693" y="0" type="line"/>
      <point x="708" y="-10"/>
      <point x="750" y="-10"/>
      <point x="765" y="0" type="curve"/>
      <point x="765" y="302" type="line" smooth="yes"/>
      <point x="765" y="471"/>
      <point x="688" y="572"/>
      <point x="555" y="572" type="curve" smooth="yes"/>
      <point x="420" y="572"/>
      <point x="351" y="472"/>
      <point x="351" y="278" type="curve" smooth="yes"/>
      <point x="351" y="123"/>
      <point x="310" y="50"/>
      <point x="223" y="50" type="curve" smooth="yes"/>
      <point x="135" y="50"/>
      <point x="85" y="130"/>
      <point x="85" y="271" type="curve" smooth="yes"/>
      <point x="85" y="361"/>
      <point x="106" y="464"/>
      <point x="142" y="549" type="curve"/>
      <point x="120" y="559"/>
      <point x="88" y="559"/>
      <point x="66" y="549" type="curve"/>
      <point x="30" y="449"/>
      <point x="10" y="347"/>
      <point x="10" y="258" type="curve" smooth="yes"/>
      <point x="10" y="83"/>
      <point x="86" y="-15"/>
      <point x="222" y="-15" type="curve" smooth="yes"/>
      <point x="354" y="-15"/>
      <point x="426" y="77"/>
      <point x="423" y="243" type="curve" smooth="yes"/>
      <point x="420" y="419"/>
      <point x="465" y="506"/>
      <point x="559" y="506" type="curve" smooth="yes"/>
      <point x="644" y="506"/>
      <point x="693" y="433"/>
    </contour>
  </outline>
</glyph>
<glyph name="gha-tutg" format="2">
  <advance width="1230"/>
  <unicode hex="11395"/>
  <anchor x="565.0" y="620" name="top"/>
  <anchor x="565.0" y="-80" name="bottom"/>
  <anchor x="1120" y="620" name="topright"/>
  <anchor x="964.4" y="13.3" name="bottomright"/>
  <outline>
    <contour>
      <point x="302" y="-30" type="curve"/>
      <point x="369" y="-3"/>
      <point x="381" y="0"/>
      <point x="459" y="0" type="curve" smooth="yes"/>
      <point x="546" y="0" type="line"/>
      <point x="546" y="65" type="line"/>
      <point x="488" y="65"/>
      <point x="429" y="65"/>
      <point x="371" y="45" type="curve"/>
      <point x="390" y="41" type="line"/>
      <point x="449" y="106"/>
      <point x="477" y="194"/>
      <point x="477" y="281" type="curve" smooth="yes"/>
      <point x="477" y="429"/>
      <point x="396" y="570"/>
      <point x="234" y="570" type="curve" smooth="yes"/>
      <point x="75" y="570"/>
      <point x="10" y="433"/>
      <point x="10" y="279" type="curve" smooth="yes"/>
      <point x="10" y="184"/>
      <point x="35" y="80"/>
      <point x="82" y="-2" type="curve"/>
      <point x="99" y="-12"/>
      <point x="146" y="-12"/>
      <point x="163" y="-2" type="curve"/>
      <point x="113" y="71"/>
      <point x="82" y="186"/>
      <point x="82" y="285" type="curve" smooth="yes"/>
      <point x="82" y="404"/>
      <point x="126" y="503"/>
      <point x="235" y="503" type="curve" smooth="yes"/>
      <point x="350" y="503"/>
      <point x="405" y="391"/>
      <point x="405" y="280" type="curve" smooth="yes"/>
      <point x="405" y="178"/>
      <point x="359" y="60"/>
      <point x="270" y="29" type="curve"/>
      <point x="268" y="9"/>
      <point x="285" y="-23"/>
    </contour>
    <contour>
      <point x="736" y="48" type="curve"/>
      <point x="681" y="87" type="line"/>
      <point x="661" y="64"/>
      <point x="581" y="65"/>
      <point x="567" y="65" type="curve" smooth="yes"/>
      <point x="548" y="65"/>
      <point x="530" y="65"/>
      <point x="512" y="65" type="curve"/>
      <point x="505" y="0" type="line"/>
      <point x="522" y="0"/>
      <point x="539" y="0"/>
      <point x="557" y="0" type="curve" smooth="yes"/>
      <point x="619" y="0"/>
      <point x="690" y="1"/>
    </contour>
    <contour>
      <point x="725" y="505" type="curve" smooth="yes"/>
      <point x="788" y="505"/>
      <point x="825" y="445"/>
      <point x="825" y="343" type="curve" smooth="yes"/>
      <point x="825" y="240"/>
      <point x="788" y="150"/>
      <point x="725" y="100" type="curve"/>
      <point x="662" y="150"/>
      <point x="625" y="240"/>
      <point x="625" y="342" type="curve" smooth="yes"/>
      <point x="625" y="444"/>
      <point x="662" y="505"/>
    </contour>
    <contour>
      <point x="686" y="51" type="curve"/>
      <point x="775" y="60" type="line"/>
      <point x="855" y="131"/>
      <point x="900" y="235"/>
      <point x="900" y="350" type="curve" smooth="yes"/>
      <point x="900" y="486"/>
      <point x="832" y="570"/>
      <point x="723" y="570" type="curve" smooth="yes"/>
      <point x="616" y="570"/>
      <point x="550" y="484"/>
      <point x="550" y="346" type="curve" smooth="yes"/>
      <point x="550" y="223"/>
      <point x="602" y="111"/>
    </contour>
    <contour>
      <point x="1054" y="552" type="curve"/>
      <point x="1037" y="562"/>
      <point x="990" y="562"/>
      <point x="973" y="552" type="curve"/>
      <point x="1020" y="482"/>
      <point x="1045" y="393"/>
      <point x="1045" y="306" type="curve" smooth="yes"/>
      <point x="1045" y="134"/>
      <point x="948" y="52"/>
      <point x="849" y="52" type="curve" smooth="yes"/>
      <point x="813" y="52"/>
      <point x="777" y="64"/>
      <point x="746" y="87" type="curve"/>
      <point x="691" y="44" type="line"/>
      <point x="738" y="5"/>
      <point x="793" y="-14"/>
      <point x="849" y="-14" type="curve" smooth="yes"/>
      <point x="985" y="-14"/>
      <point x="1120" y="93"/>
      <point x="1120" y="308" type="curve" smooth="yes"/>
      <point x="1120" y="397"/>
      <point x="1097" y="481"/>
    </contour>
  </outline>
</glyph>
<glyph name="nga-tutg" format="2">
  <advance width="1163"/>
  <unicode hex="11396"/>
  <anchor x="531.0" y="621" name="top"/>
  <anchor x="531.0" y="-65" name="bottom"/>
  <anchor x="1052" y="621" name="topright"/>
  <anchor x="1052.0" y="0.0" name="bottomright"/>
  <outline>
    <contour>
      <point x="201" y="47" type="curve" smooth="yes"/>
      <point x="142" y="47"/>
      <point x="91" y="103"/>
      <point x="80" y="178" type="curve"/>
      <point x="104" y="210"/>
      <point x="144" y="231"/>
      <point x="181" y="231" type="curve" smooth="yes"/>
      <point x="238" y="231"/>
      <point x="284" y="186"/>
      <point x="284" y="130" type="curve" smooth="yes"/>
      <point x="284" y="80"/>
      <point x="251" y="47"/>
    </contour>
    <contour>
      <point x="482" y="300" type="curve"/>
      <point x="482" y="350" type="line"/>
      <point x="453" y="489"/>
      <point x="386" y="571"/>
      <point x="271" y="571" type="curve" smooth="yes"/>
      <point x="117" y="571"/>
      <point x="10" y="441"/>
      <point x="10" y="253" type="curve" smooth="yes"/>
      <point x="10" y="87"/>
      <point x="83" y="-15"/>
      <point x="202" y="-15" type="curve" smooth="yes"/>
      <point x="290" y="-15"/>
      <point x="347" y="40"/>
      <point x="347" y="124" type="curve" smooth="yes"/>
      <point x="347" y="217"/>
      <point x="282" y="291"/>
      <point x="193" y="291" type="curve" smooth="yes"/>
      <point x="152" y="291"/>
      <point x="112" y="277"/>
      <point x="80" y="251" type="curve"/>
      <point x="85" y="406"/>
      <point x="158" y="506"/>
      <point x="266" y="506" type="curve" smooth="yes"/>
      <point x="354" y="506"/>
      <point x="411" y="437"/>
      <point x="411" y="329" type="curve" smooth="yes"/>
      <point x="411" y="300" type="line"/>
      <point x="423" y="290"/>
      <point x="470" y="290"/>
    </contour>
    <component base="_nga1" xOffset="50"/>
  </outline>
</glyph>
<glyph name="ca-tutg" format="2">
  <advance width="1038"/>
  <unicode hex="11397"/>
  <guideline x="-68" y="167" angle="0"/>
  <guideline x="-387" y="383" angle="0"/>
  <anchor x="469.0" y="625.5" name="top"/>
  <anchor x="469.0" y="-80" name="bottom"/>
  <anchor x="928" y="625.5" name="topright"/>
  <anchor x="892.0" y="13.2" name="bottomright"/>
  <outline>
    <contour>
      <point x="430" y="0" type="curve" smooth="yes"/>
      <point x="473" y="0" type="line"/>
      <point x="473" y="64" type="line"/>
      <point x="414" y="64" type="line" smooth="yes"/>
      <point x="361" y="64"/>
      <point x="299" y="59"/>
      <point x="246" y="44" type="curve"/>
      <point x="276" y="45" type="line"/>
      <point x="393" y="114"/>
      <point x="457" y="227"/>
      <point x="457" y="338" type="curve" smooth="yes"/>
      <point x="457" y="632"/>
      <point x="10" y="648"/>
      <point x="10" y="414" type="curve" smooth="yes"/>
      <point x="10" y="324"/>
      <point x="77" y="275"/>
      <point x="149" y="275" type="curve" smooth="yes"/>
      <point x="227" y="275"/>
      <point x="294" y="331"/>
      <point x="294" y="411" type="curve" smooth="yes"/>
      <point x="294" y="444"/>
      <point x="283" y="480"/>
      <point x="257" y="519" type="curve"/>
      <point x="190" y="527" type="line"/>
      <point x="225" y="492"/>
      <point x="239" y="458"/>
      <point x="239" y="427" type="curve" smooth="yes"/>
      <point x="239" y="375"/>
      <point x="200" y="336"/>
      <point x="149" y="336" type="curve" smooth="yes"/>
      <point x="108" y="336"/>
      <point x="76" y="362"/>
      <point x="76" y="409" type="curve" smooth="yes"/>
      <point x="76" y="474"/>
      <point x="138" y="512"/>
      <point x="210" y="512" type="curve" smooth="yes"/>
      <point x="306" y="512"/>
      <point x="385" y="443"/>
      <point x="385" y="333" type="curve" smooth="yes"/>
      <point x="385" y="284"/>
      <point x="369" y="231"/>
      <point x="333" y="180" type="curve" smooth="yes"/>
      <point x="281" y="106"/>
      <point x="200" y="57"/>
      <point x="106" y="29" type="curve"/>
      <point x="104" y="9"/>
      <point x="121" y="-23"/>
      <point x="138" y="-30" type="curve"/>
      <point x="205" y="-4"/>
      <point x="278" y="0"/>
    </contour>
    <contour>
      <point x="856" y="558" type="curve"/>
      <point x="856" y="124" type="line"/>
      <point x="928" y="124" type="line"/>
      <point x="928" y="558" type="line"/>
      <point x="915" y="568"/>
      <point x="869" y="568"/>
    </contour>
    <component base="_roundedcorner" xOffset="751"/>
    <component base="_horizontalline64" xScale="1.3312" xOffset="-666"/>
  </outline>
</glyph>
<glyph name="cha-tutg" format="2">
  <advance width="1340"/>
  <unicode hex="11398"/>
  <anchor x="620.0" y="621" name="top"/>
  <anchor x="620.0" y="-65" name="bottom"/>
  <anchor x="1230" y="621" name="topright"/>
  <anchor x="1110.6" y="-0.7" name="bottomright"/>
  <outline>
    <contour>
      <point x="203" y="47" type="curve" smooth="yes"/>
      <point x="154" y="47"/>
      <point x="93" y="87"/>
      <point x="80" y="178" type="curve"/>
      <point x="104" y="210"/>
      <point x="144" y="231"/>
      <point x="183" y="231" type="curve"/>
      <point x="242" y="231"/>
      <point x="284" y="182"/>
      <point x="284" y="128" type="curve" smooth="yes"/>
      <point x="284" y="77"/>
      <point x="246" y="47"/>
    </contour>
    <contour>
      <point x="530" y="114" type="curve" smooth="yes"/>
      <point x="512" y="155"/>
      <point x="509" y="203"/>
      <point x="505" y="263" type="curve" smooth="yes"/>
      <point x="498" y="358"/>
      <point x="490" y="453"/>
      <point x="425" y="516" type="curve" smooth="yes"/>
      <point x="390" y="550"/>
      <point x="342" y="571"/>
      <point x="277" y="571" type="curve" smooth="yes"/>
      <point x="118" y="571"/>
      <point x="10" y="450"/>
      <point x="10" y="252" type="curve" smooth="yes"/>
      <point x="10" y="100"/>
      <point x="73" y="-15"/>
      <point x="201" y="-15" type="curve" smooth="yes"/>
      <point x="290" y="-15"/>
      <point x="347" y="40"/>
      <point x="347" y="126" type="curve" smooth="yes"/>
      <point x="347" y="219"/>
      <point x="280" y="291"/>
      <point x="192" y="291" type="curve" smooth="yes"/>
      <point x="140" y="291"/>
      <point x="91" y="268"/>
      <point x="59" y="230" type="curve"/>
      <point x="81" y="200" type="line"/>
      <point x="71" y="410"/>
      <point x="159" y="506"/>
      <point x="273" y="506" type="curve" smooth="yes"/>
      <point x="318" y="506"/>
      <point x="352" y="490"/>
      <point x="375" y="467" type="curve" smooth="yes"/>
      <point x="418" y="424"/>
      <point x="423" y="357"/>
      <point x="431" y="262" type="curve" smooth="yes"/>
      <point x="436" y="200"/>
      <point x="443" y="137"/>
      <point x="464" y="87" type="curve" smooth="yes"/>
      <point x="489" y="28"/>
      <point x="535" y="-15"/>
      <point x="620" y="-15" type="curve"/>
      <point x="621" y="50" type="line"/>
      <point x="572" y="50"/>
      <point x="546" y="77"/>
    </contour>
    <contour>
      <point x="1037" y="47" type="curve" smooth="yes"/>
      <point x="994" y="47"/>
      <point x="956" y="77"/>
      <point x="956" y="128" type="curve" smooth="yes"/>
      <point x="956" y="182"/>
      <point x="998" y="231"/>
      <point x="1057" y="231" type="curve" smooth="yes"/>
      <point x="1096" y="231"/>
      <point x="1136" y="210"/>
      <point x="1160" y="178" type="curve"/>
      <point x="1147" y="87"/>
      <point x="1086" y="47"/>
    </contour>
    <contour>
      <point x="710" y="114" type="curve" smooth="yes"/>
      <point x="694" y="77"/>
      <point x="668" y="50"/>
      <point x="619" y="50" type="curve"/>
      <point x="620" y="-15" type="line"/>
      <point x="705" y="-15"/>
      <point x="751" y="28"/>
      <point x="776" y="87" type="curve" smooth="yes"/>
      <point x="797" y="137"/>
      <point x="804" y="200"/>
      <point x="809" y="262" type="curve" smooth="yes"/>
      <point x="817" y="357"/>
      <point x="822" y="424"/>
      <point x="865" y="467" type="curve" smooth="yes"/>
      <point x="888" y="490"/>
      <point x="922" y="506"/>
      <point x="967" y="506" type="curve" smooth="yes"/>
      <point x="1081" y="506"/>
      <point x="1169" y="410"/>
      <point x="1159" y="200" type="curve"/>
      <point x="1181" y="230" type="line"/>
      <point x="1149" y="268"/>
      <point x="1100" y="291"/>
      <point x="1048" y="291" type="curve" smooth="yes"/>
      <point x="960" y="291"/>
      <point x="893" y="219"/>
      <point x="893" y="126" type="curve" smooth="yes"/>
      <point x="893" y="40"/>
      <point x="950" y="-15"/>
      <point x="1039" y="-15" type="curve" smooth="yes"/>
      <point x="1167" y="-15"/>
      <point x="1230" y="100"/>
      <point x="1230" y="252" type="curve" smooth="yes"/>
      <point x="1230" y="450"/>
      <point x="1122" y="571"/>
      <point x="963" y="571" type="curve" smooth="yes"/>
      <point x="898" y="571"/>
      <point x="850" y="550"/>
      <point x="815" y="516" type="curve" smooth="yes"/>
      <point x="750" y="453"/>
      <point x="742" y="358"/>
      <point x="735" y="263" type="curve" smooth="yes"/>
      <point x="731" y="203"/>
      <point x="728" y="155"/>
    </contour>
  </outline>
</glyph>
<glyph name="ja-tutg" format="2">
  <advance width="1619"/>
  <unicode hex="11399"/>
  <guideline x="1162" y="-103" angle="90"/>
  <anchor x="759.5" y="621" name="top"/>
  <anchor x="759.5" y="-65" name="bottom"/>
  <anchor x="1509" y="621" name="topright"/>
  <anchor x="1385.6" y="-2.1" name="bottomright"/>
  <outline>
    <contour>
      <point x="438" y="434" type="curve"/>
      <point x="482" y="318" type="line"/>
      <point x="482" y="427"/>
      <point x="536" y="504"/>
      <point x="611" y="504" type="curve" smooth="yes"/>
      <point x="690" y="504"/>
      <point x="724" y="428"/>
      <point x="724" y="252" type="curve" smooth="yes"/>
      <point x="724" y="172"/>
      <point x="706" y="-15"/>
      <point x="900" y="-15" type="curve"/>
      <point x="899" y="50" type="line"/>
      <point x="818" y="50"/>
      <point x="795" y="96"/>
      <point x="795" y="260" type="curve" smooth="yes"/>
      <point x="795" y="479"/>
      <point x="744" y="569"/>
      <point x="620" y="569" type="curve" smooth="yes"/>
      <point x="534" y="569"/>
      <point x="473" y="524"/>
    </contour>
    <contour>
      <point x="1316" y="47" type="curve" smooth="yes"/>
      <point x="1269" y="47"/>
      <point x="1235" y="81"/>
      <point x="1235" y="128" type="curve" smooth="yes"/>
      <point x="1235" y="185"/>
      <point x="1280" y="231"/>
      <point x="1336" y="231" type="curve" smooth="yes"/>
      <point x="1375" y="231"/>
      <point x="1415" y="210"/>
      <point x="1439" y="178" type="curve"/>
      <point x="1428" y="102"/>
      <point x="1377" y="47"/>
    </contour>
    <contour>
      <point x="989" y="114" type="curve" smooth="yes"/>
      <point x="970" y="71"/>
      <point x="941" y="50"/>
      <point x="898" y="50" type="curve"/>
      <point x="899" y="-15" type="line"/>
      <point x="974" y="-15"/>
      <point x="1026" y="19"/>
      <point x="1055" y="87" type="curve" smooth="yes"/>
      <point x="1071" y="125"/>
      <point x="1081" y="174"/>
      <point x="1088" y="262" type="curve" smooth="yes"/>
      <point x="1096" y="357"/>
      <point x="1101" y="424"/>
      <point x="1144" y="467" type="curve" smooth="yes"/>
      <point x="1169" y="492"/>
      <point x="1205" y="506"/>
      <point x="1246" y="506" type="curve" smooth="yes"/>
      <point x="1374" y="506"/>
      <point x="1447" y="389"/>
      <point x="1438" y="200" type="curve"/>
      <point x="1460" y="231" type="line"/>
      <point x="1428" y="269"/>
      <point x="1378" y="292"/>
      <point x="1327" y="292" type="curve" smooth="yes"/>
      <point x="1238" y="292"/>
      <point x="1172" y="218"/>
      <point x="1172" y="126" type="curve" smooth="yes"/>
      <point x="1172" y="40"/>
      <point x="1229" y="-15"/>
      <point x="1318" y="-15" type="curve" smooth="yes"/>
      <point x="1436" y="-15"/>
      <point x="1509" y="87"/>
      <point x="1509" y="252" type="curve" smooth="yes"/>
      <point x="1509" y="446"/>
      <point x="1404" y="571"/>
      <point x="1242" y="571" type="curve" smooth="yes"/>
      <point x="1181" y="571"/>
      <point x="1132" y="553"/>
      <point x="1094" y="516" type="curve" smooth="yes"/>
      <point x="1045" y="468"/>
      <point x="1024" y="402"/>
      <point x="1014" y="263" type="curve" smooth="yes"/>
      <point x="1010" y="203"/>
      <point x="1007" y="155"/>
    </contour>
    <contour>
      <point x="201" y="47" type="curve" smooth="yes"/>
      <point x="142" y="47"/>
      <point x="91" y="103"/>
      <point x="80" y="178" type="curve"/>
      <point x="104" y="210"/>
      <point x="144" y="231"/>
      <point x="181" y="231" type="curve" smooth="yes"/>
      <point x="238" y="231"/>
      <point x="284" y="186"/>
      <point x="284" y="130" type="curve" smooth="yes"/>
      <point x="284" y="80"/>
      <point x="251" y="47"/>
    </contour>
    <contour>
      <point x="482" y="237" type="curve"/>
      <point x="482" y="349" type="line"/>
      <point x="453" y="489"/>
      <point x="386" y="571"/>
      <point x="271" y="571" type="curve" smooth="yes"/>
      <point x="117" y="571"/>
      <point x="10" y="441"/>
      <point x="10" y="253" type="curve" smooth="yes"/>
      <point x="10" y="87"/>
      <point x="83" y="-15"/>
      <point x="202" y="-15" type="curve" smooth="yes"/>
      <point x="290" y="-15"/>
      <point x="347" y="40"/>
      <point x="347" y="124" type="curve" smooth="yes"/>
      <point x="347" y="217"/>
      <point x="282" y="291"/>
      <point x="193" y="291" type="curve" smooth="yes"/>
      <point x="152" y="291"/>
      <point x="112" y="277"/>
      <point x="80" y="251" type="curve"/>
      <point x="85" y="406"/>
      <point x="158" y="506"/>
      <point x="266" y="506" type="curve" smooth="yes"/>
      <point x="354" y="506"/>
      <point x="411" y="437"/>
      <point x="411" y="329" type="curve" smooth="yes"/>
      <point x="411" y="237" type="line"/>
      <point x="423" y="227"/>
      <point x="470" y="227"/>
    </contour>
  </outline>
</glyph>
